%TF.GenerationSoftware,KiCad,Pcbnew,7.0.1*%
%TF.CreationDate,2023-03-16T09:25:58+01:00*%
%TF.ProjectId,Muons_SIPM_V2,4d756f6e-735f-4534-9950-4d5f56322e6b,rev?*%
%TF.SameCoordinates,PXc54b534PY8c10c98*%
%TF.FileFunction,Paste,Bot*%
%TF.FilePolarity,Positive*%
%FSLAX46Y46*%
G04 Gerber Fmt 4.6, Leading zero omitted, Abs format (unit mm)*
G04 Created by KiCad (PCBNEW 7.0.1) date 2023-03-16 09:25:58*
%MOMM*%
%LPD*%
G01*
G04 APERTURE LIST*
G04 Aperture macros list*
%AMRoundRect*
0 Rectangle with rounded corners*
0 $1 Rounding radius*
0 $2 $3 $4 $5 $6 $7 $8 $9 X,Y pos of 4 corners*
0 Add a 4 corners polygon primitive as box body*
4,1,4,$2,$3,$4,$5,$6,$7,$8,$9,$2,$3,0*
0 Add four circle primitives for the rounded corners*
1,1,$1+$1,$2,$3*
1,1,$1+$1,$4,$5*
1,1,$1+$1,$6,$7*
1,1,$1+$1,$8,$9*
0 Add four rect primitives between the rounded corners*
20,1,$1+$1,$2,$3,$4,$5,0*
20,1,$1+$1,$4,$5,$6,$7,0*
20,1,$1+$1,$6,$7,$8,$9,0*
20,1,$1+$1,$8,$9,$2,$3,0*%
G04 Aperture macros list end*
%ADD10R,2.008000X12.700000*%
%ADD11R,4.572000X2.032000*%
%ADD12R,12.192000X2.032000*%
%ADD13R,22.352000X2.008000*%
%ADD14R,2.008000X12.192000*%
%ADD15RoundRect,0.255319X-0.494681X0.344681X-0.494681X-0.344681X0.494681X-0.344681X0.494681X0.344681X0*%
%ADD16RoundRect,0.255319X-0.344681X-0.494681X0.344681X-0.494681X0.344681X0.494681X-0.344681X0.494681X0*%
%ADD17RoundRect,0.150000X0.150000X-0.587500X0.150000X0.587500X-0.150000X0.587500X-0.150000X-0.587500X0*%
%ADD18RoundRect,0.255319X0.494681X-0.344681X0.494681X0.344681X-0.494681X0.344681X-0.494681X-0.344681X0*%
%ADD19RoundRect,0.255319X0.344681X0.494681X-0.344681X0.494681X-0.344681X-0.494681X0.344681X-0.494681X0*%
%ADD20R,1.200000X0.900000*%
%ADD21RoundRect,0.250000X0.350000X0.450000X-0.350000X0.450000X-0.350000X-0.450000X0.350000X-0.450000X0*%
%ADD22RoundRect,0.150000X-0.150000X0.825000X-0.150000X-0.825000X0.150000X-0.825000X0.150000X0.825000X0*%
%ADD23R,1.300000X1.300000*%
%ADD24R,2.000000X1.300000*%
%ADD25RoundRect,0.152400X-0.482600X-0.152400X0.482600X-0.152400X0.482600X0.152400X-0.482600X0.152400X0*%
%ADD26RoundRect,0.225000X0.375000X-0.225000X0.375000X0.225000X-0.375000X0.225000X-0.375000X-0.225000X0*%
%ADD27RoundRect,0.090000X-0.210000X0.520000X-0.210000X-0.520000X0.210000X-0.520000X0.210000X0.520000X0*%
%ADD28RoundRect,0.150000X0.150000X-0.825000X0.150000X0.825000X-0.150000X0.825000X-0.150000X-0.825000X0*%
%ADD29RoundRect,0.150000X-0.150000X0.587500X-0.150000X-0.587500X0.150000X-0.587500X0.150000X0.587500X0*%
%ADD30R,1.300000X1.500000*%
%ADD31R,2.000000X1.780000*%
%ADD32RoundRect,0.150000X0.150000X-0.512500X0.150000X0.512500X-0.150000X0.512500X-0.150000X-0.512500X0*%
%ADD33R,0.450000X0.700000*%
G04 APERTURE END LIST*
D10*
%TO.C,B1*%
X-135608004Y101454200D03*
D11*
X-131786004Y93580200D03*
D12*
X-120356004Y93580200D03*
D13*
X-122896004Y108832200D03*
D14*
X-110692004Y101200200D03*
%TD*%
D15*
%TO.C,R22*%
X-86435569Y65992200D03*
%TD*%
D16*
%TO.C,R25*%
X-97752204Y90443901D03*
%TD*%
D17*
%TO.C,D6*%
X-116332004Y66351400D03*
X-118232004Y66351400D03*
X-117282004Y68226400D03*
%TD*%
D18*
%TO.C,R8*%
X-128105204Y75644200D03*
%TD*%
%TO.C,R13*%
X-109360004Y75644200D03*
%TD*%
D19*
%TO.C,R10*%
X-91910204Y56797400D03*
X-91910204Y54257400D03*
%TD*%
D18*
%TO.C,R17*%
X-128232204Y64061800D03*
%TD*%
D16*
%TO.C,R39*%
X-15367000Y98139275D03*
X-15367000Y100679275D03*
%TD*%
D19*
%TO.C,R27*%
X-86830204Y54257400D03*
%TD*%
D20*
%TO.C,D1*%
X-117724004Y70034400D03*
X-117724004Y73334400D03*
%TD*%
D19*
%TO.C,C2*%
X-127902004Y86130500D03*
%TD*%
D20*
%TO.C,D2*%
X-114422004Y69821000D03*
%TD*%
D19*
%TO.C,R24*%
X-89370204Y54257400D03*
%TD*%
D18*
%TO.C,R18*%
X-83895569Y63833200D03*
X-86435569Y63833200D03*
%TD*%
D21*
%TO.C,L1*%
X-127703204Y97073600D03*
%TD*%
D19*
%TO.C,R16*%
X-108961004Y65132200D03*
%TD*%
%TO.C,R4*%
X-136995204Y72291400D03*
%TD*%
D22*
%TO.C,U4*%
X-123736404Y72739000D03*
X-122466404Y72739000D03*
X-119926404Y67789000D03*
X-121196404Y67789000D03*
X-123736404Y67789000D03*
%TD*%
D23*
%TO.C,RV3*%
X-100393404Y86825401D03*
D24*
X-101543404Y92325401D03*
D23*
X-102693404Y86825401D03*
%TD*%
D25*
%TO.C,K3*%
X-125171200Y58902600D03*
X-125171200Y59893200D03*
X-123367800Y59893200D03*
X-123367800Y58902600D03*
%TD*%
D16*
%TO.C,R7*%
X-111247004Y72901000D03*
%TD*%
D15*
%TO.C,R9*%
X-123371404Y75663000D03*
X-120831404Y75663000D03*
%TD*%
%TO.C,R1*%
X-127671204Y100578800D03*
%TD*%
D19*
%TO.C,R3*%
X-130899204Y78743000D03*
X-130899204Y76203000D03*
%TD*%
D16*
%TO.C,R20*%
X-131521200Y58559400D03*
X-131521200Y61099400D03*
%TD*%
D15*
%TO.C,C22*%
X-47371000Y66135275D03*
%TD*%
%TO.C,C16*%
X-86449203Y68151200D03*
%TD*%
D18*
%TO.C,C15*%
X-81877204Y55197200D03*
%TD*%
D26*
%TO.C,D3*%
X-115946004Y64829400D03*
%TD*%
D15*
%TO.C,R15*%
X-120078804Y64061800D03*
X-117538804Y64061800D03*
%TD*%
D22*
%TO.C,U3*%
X-132372404Y72739000D03*
X-131102404Y72739000D03*
X-129832404Y72739000D03*
X-128562404Y67789000D03*
X-129832404Y67789000D03*
X-132372404Y67789000D03*
%TD*%
D27*
%TO.C,U8*%
X-96604205Y82629200D03*
X-94704205Y80139200D03*
X-96604205Y80139200D03*
%TD*%
D16*
%TO.C,C13*%
X-111120004Y65128600D03*
X-111120004Y67668600D03*
%TD*%
D15*
%TO.C,R2*%
X-127026804Y105760400D03*
X-124486804Y105760400D03*
%TD*%
%TO.C,C4*%
X-127040104Y103474400D03*
X-124500104Y103474400D03*
%TD*%
D19*
%TO.C,R12*%
X-109088004Y70364600D03*
%TD*%
D28*
%TO.C,U7*%
X-100781404Y79371401D03*
X-102051404Y84321401D03*
X-100781404Y84321401D03*
X-99511404Y84321401D03*
%TD*%
D19*
%TO.C,R40*%
X-25781000Y97631275D03*
%TD*%
D18*
%TO.C,C14*%
X-81877204Y58118200D03*
%TD*%
D15*
%TO.C,R11*%
X-118707204Y75644200D03*
X-116167204Y75644200D03*
%TD*%
D29*
%TO.C,D5*%
X-114798004Y69115400D03*
X-112898004Y69115400D03*
X-113848004Y67240400D03*
%TD*%
D30*
%TO.C,K2*%
X-128789600Y58140600D03*
X-128789600Y60680600D03*
X-119989600Y60680600D03*
X-119989600Y58140600D03*
%TD*%
D22*
%TO.C,U2*%
X-91021204Y72720200D03*
X-88481204Y67770200D03*
X-89751204Y67770200D03*
X-92291204Y67770200D03*
%TD*%
D31*
%TO.C,K1*%
X-128193800Y58115200D03*
X-128193800Y60655200D03*
X-120573800Y60655200D03*
X-120573800Y58115200D03*
%TD*%
D16*
%TO.C,R19*%
X-99530204Y54257400D03*
%TD*%
D18*
%TO.C,R14*%
X-114033604Y75644200D03*
%TD*%
D17*
%TO.C,D4*%
X-113411004Y71558400D03*
X-115311004Y71558400D03*
X-114361004Y73433400D03*
%TD*%
D29*
%TO.C,Q2*%
X-123992003Y64004400D03*
X-123042003Y62129400D03*
%TD*%
D19*
%TO.C,R5*%
X-134760004Y70313000D03*
X-134760004Y67773000D03*
%TD*%
D32*
%TO.C,U1*%
X-123770203Y98351100D03*
X-125670203Y98351100D03*
%TD*%
D19*
%TO.C,C12*%
X-136995204Y70310200D03*
X-136995204Y67770200D03*
%TD*%
D33*
%TO.C,Q1*%
X-123738005Y64004399D03*
X-122438005Y64004399D03*
X-123088005Y62004399D03*
%TD*%
M02*
