%TF.GenerationSoftware,KiCad,Pcbnew,7.0.1*%
%TF.CreationDate,2023-03-16T09:25:58+01:00*%
%TF.ProjectId,Muons_SIPM_V2,4d756f6e-735f-4534-9950-4d5f56322e6b,rev?*%
%TF.SameCoordinates,PXc54b534PY8c10c98*%
%TF.FileFunction,Other,User*%
%FSLAX46Y46*%
G04 Gerber Fmt 4.6, Leading zero omitted, Abs format (unit mm)*
G04 Created by KiCad (PCBNEW 7.0.1) date 2023-03-16 09:25:58*
%MOMM*%
%LPD*%
G01*
G04 APERTURE LIST*
%ADD10C,0.050000*%
%ADD11C,0.120000*%
%ADD12C,0.100000*%
G04 APERTURE END LIST*
D10*
%TO.C,R22*%
X-87324569Y66972200D02*
X-87324569Y65012200D01*
X-87324569Y65012200D02*
X-83006569Y65012200D01*
X-83006569Y66972200D02*
X-87324569Y66972200D01*
X-83006569Y65012200D02*
X-83006569Y66972200D01*
%TO.C,R25*%
X-98732204Y87014901D02*
X-96772204Y87014901D01*
X-96772204Y87014901D02*
X-96772204Y91332901D01*
X-98732204Y91332901D02*
X-98732204Y87014901D01*
X-96772204Y91332901D02*
X-98732204Y91332901D01*
%TO.C,U12*%
X-44442200Y99202275D02*
X-33942200Y99202275D01*
X-44442200Y91992275D02*
X-44442200Y99202275D01*
X-33942200Y99202275D02*
X-33942200Y91992275D01*
X-33942200Y91992275D02*
X-44442200Y91992275D01*
%TO.C,D6*%
X-118982004Y65368900D02*
X-118982004Y69208900D01*
X-115582004Y65368900D02*
X-118982004Y65368900D01*
X-118982004Y69208900D02*
X-115582004Y69208900D01*
X-115582004Y69208900D02*
X-115582004Y65368900D01*
%TO.C,R8*%
X-124676204Y74664200D02*
X-124676204Y76624200D01*
X-124676204Y76624200D02*
X-128994204Y76624200D01*
X-128994204Y74664200D02*
X-124676204Y74664200D01*
X-128994204Y76624200D02*
X-128994204Y74664200D01*
%TO.C,R13*%
X-105931004Y74664200D02*
X-105931004Y76624200D01*
X-105931004Y76624200D02*
X-110249004Y76624200D01*
X-110249004Y74664200D02*
X-105931004Y74664200D01*
X-110249004Y76624200D02*
X-110249004Y74664200D01*
%TO.C,SW1*%
X-22498004Y106162400D02*
X-22498004Y113412400D01*
X-22498004Y113412400D02*
X-32048004Y113412400D01*
X-32048004Y106162400D02*
X-22498004Y106162400D01*
X-32048004Y113412400D02*
X-32048004Y106162400D01*
%TO.C,R21*%
X-97970204Y53368400D02*
X-96010204Y53368400D01*
X-96010204Y53368400D02*
X-96010204Y57686400D01*
X-97970204Y57686400D02*
X-97970204Y53368400D01*
X-96010204Y57686400D02*
X-97970204Y57686400D01*
%TO.C,R10*%
X-90930204Y57686400D02*
X-92890204Y57686400D01*
X-92890204Y57686400D02*
X-92890204Y53368400D01*
X-90930204Y53368400D02*
X-90930204Y57686400D01*
X-92890204Y53368400D02*
X-90930204Y53368400D01*
%TO.C,C9*%
X-128306204Y102494400D02*
X-128306204Y104454400D01*
X-128306204Y104454400D02*
X-132624204Y104454400D01*
X-132624204Y102494400D02*
X-128306204Y102494400D01*
X-132624204Y104454400D02*
X-132624204Y102494400D01*
%TO.C,R17*%
X-127343204Y63081800D02*
X-127343204Y65041800D01*
X-127343204Y65041800D02*
X-131661204Y65041800D01*
X-131661204Y63081800D02*
X-127343204Y63081800D01*
X-131661204Y65041800D02*
X-131661204Y63081800D01*
%TO.C,R39*%
X-16347000Y97250275D02*
X-14387000Y97250275D01*
X-14387000Y97250275D02*
X-14387000Y101568275D01*
X-16347000Y101568275D02*
X-16347000Y97250275D01*
X-14387000Y101568275D02*
X-16347000Y101568275D01*
%TO.C,R27*%
X-85850204Y57686400D02*
X-87810204Y57686400D01*
X-87810204Y57686400D02*
X-87810204Y53368400D01*
X-85850204Y53368400D02*
X-85850204Y57686400D01*
X-87810204Y53368400D02*
X-85850204Y53368400D01*
%TO.C,D1*%
X-116574004Y69334400D02*
X-118874004Y69334400D01*
X-116574004Y69334400D02*
X-116574004Y74034400D01*
X-118874004Y74034400D02*
X-118874004Y69334400D01*
X-116574004Y74034400D02*
X-118874004Y74034400D01*
%TO.C,C2*%
X-126922004Y87019500D02*
X-128882004Y87019500D01*
X-128882004Y87019500D02*
X-128882004Y82701500D01*
X-126922004Y82701500D02*
X-126922004Y87019500D01*
X-128882004Y82701500D02*
X-126922004Y82701500D01*
%TO.C,D2*%
X-115572004Y73821000D02*
X-113272004Y73821000D01*
X-115572004Y73821000D02*
X-115572004Y69121000D01*
X-113272004Y69121000D02*
X-113272004Y73821000D01*
X-115572004Y69121000D02*
X-113272004Y69121000D01*
%TO.C,J10*%
X-70985000Y64435275D02*
X-54745000Y64435275D01*
X-70985000Y57635275D02*
X-70985000Y64435275D01*
X-54745000Y64435275D02*
X-54745000Y57635275D01*
X-54745000Y57635275D02*
X-70985000Y57635275D01*
%TO.C,R24*%
X-88390204Y57686400D02*
X-90350204Y57686400D01*
X-90350204Y57686400D02*
X-90350204Y53368400D01*
X-88390204Y53368400D02*
X-88390204Y57686400D01*
X-90350204Y53368400D02*
X-88390204Y53368400D01*
%TO.C,R18*%
X-83006569Y62853200D02*
X-83006569Y64813200D01*
X-83006569Y64813200D02*
X-87324569Y64813200D01*
X-87324569Y62853200D02*
X-83006569Y62853200D01*
X-87324569Y64813200D02*
X-87324569Y62853200D01*
%TO.C,L1*%
X-126853204Y96123600D02*
X-126853204Y98023600D01*
X-126853204Y98023600D02*
X-130553204Y98023600D01*
X-130553204Y96123600D02*
X-126853204Y96123600D01*
X-130553204Y98023600D02*
X-130553204Y96123600D01*
%TO.C,R16*%
X-107981004Y68561200D02*
X-109941004Y68561200D01*
X-109941004Y68561200D02*
X-109941004Y64243200D01*
X-107981004Y64243200D02*
X-107981004Y68561200D01*
X-109941004Y64243200D02*
X-107981004Y64243200D01*
%TO.C,R4*%
X-136015204Y75720400D02*
X-137975204Y75720400D01*
X-137975204Y75720400D02*
X-137975204Y71402400D01*
X-136015204Y71402400D02*
X-136015204Y75720400D01*
X-137975204Y71402400D02*
X-136015204Y71402400D01*
%TO.C,U4*%
X-119131404Y73964000D02*
X-119131404Y66564000D01*
X-124531404Y73964000D02*
X-119131404Y73964000D01*
X-119131404Y66564000D02*
X-124531404Y66564000D01*
X-124531404Y66564000D02*
X-124531404Y73964000D01*
%TO.C,C5*%
X-126850004Y68100400D02*
X-124890004Y68100400D01*
X-124890004Y68100400D02*
X-124890004Y72418400D01*
X-126850004Y72418400D02*
X-126850004Y68100400D01*
X-124890004Y72418400D02*
X-126850004Y72418400D01*
%TO.C,J8*%
X-67429001Y76627275D02*
X-46109001Y76627275D01*
X-67429001Y69827275D02*
X-67429001Y76627275D01*
X-46109001Y76627275D02*
X-46109001Y69827275D01*
X-46109001Y69827275D02*
X-67429001Y69827275D01*
%TO.C,RV3*%
X-104043404Y93225401D02*
X-99043404Y93225401D01*
X-104043404Y85925401D02*
X-104043404Y93225401D01*
X-99043404Y93225401D02*
X-99043404Y85925401D01*
X-99043404Y85925401D02*
X-104043404Y85925401D01*
%TO.C,K3*%
X-126161800Y58356500D02*
X-126161800Y60401200D01*
X-122428000Y60413900D02*
X-122428000Y58356500D01*
X-122428000Y60401200D02*
X-126161800Y60401200D01*
X-122428000Y58356500D02*
X-126161800Y58356500D01*
%TO.C,R6*%
X-138138204Y66591200D02*
X-138138204Y64631200D01*
X-138138204Y64631200D02*
X-133820204Y64631200D01*
X-133820204Y66591200D02*
X-138138204Y66591200D01*
X-133820204Y64631200D02*
X-133820204Y66591200D01*
%TO.C,R26*%
X-85092404Y69421200D02*
X-83132404Y69421200D01*
X-83132404Y69421200D02*
X-83132404Y73739200D01*
X-85092404Y73739200D02*
X-85092404Y69421200D01*
X-83132404Y73739200D02*
X-85092404Y73739200D01*
D11*
%TO.C,Led1*%
X-21747000Y114028275D02*
X-16667000Y114028275D01*
X-16667000Y114028275D02*
X-16667000Y98026275D01*
X-16667000Y98026275D02*
X-21747000Y98026275D01*
X-21747000Y98026275D02*
X-21747000Y114028275D01*
D10*
%TO.C,R7*%
X-112227004Y69472000D02*
X-110267004Y69472000D01*
X-110267004Y69472000D02*
X-110267004Y73790000D01*
X-112227004Y73790000D02*
X-112227004Y69472000D01*
X-110267004Y73790000D02*
X-112227004Y73790000D01*
%TO.C,C6*%
X-133578804Y97251400D02*
X-131618804Y97251400D01*
X-131618804Y97251400D02*
X-131618804Y101569400D01*
X-133578804Y101569400D02*
X-133578804Y97251400D01*
X-131618804Y101569400D02*
X-133578804Y101569400D01*
%TO.C,R9*%
X-124260404Y76643000D02*
X-124260404Y74683000D01*
X-124260404Y74683000D02*
X-119942404Y74683000D01*
X-119942404Y76643000D02*
X-124260404Y76643000D01*
X-119942404Y74683000D02*
X-119942404Y76643000D01*
%TO.C,R1*%
X-131100204Y101558800D02*
X-131100204Y99598800D01*
X-131100204Y99598800D02*
X-126782204Y99598800D01*
X-126782204Y101558800D02*
X-131100204Y101558800D01*
X-126782204Y99598800D02*
X-126782204Y101558800D01*
%TO.C,R3*%
X-129919204Y79632000D02*
X-131879204Y79632000D01*
X-131879204Y79632000D02*
X-131879204Y75314000D01*
X-129919204Y75314000D02*
X-129919204Y79632000D01*
X-131879204Y75314000D02*
X-129919204Y75314000D01*
%TO.C,C11*%
X-114194404Y101700300D02*
X-116154404Y101700300D01*
X-116154404Y101700300D02*
X-116154404Y97382300D01*
X-114194404Y97382300D02*
X-114194404Y101700300D01*
X-116154404Y97382300D02*
X-114194404Y97382300D01*
%TO.C,R23*%
X-90930204Y62410801D02*
X-92890204Y62410801D01*
X-92890204Y62410801D02*
X-92890204Y58092801D01*
X-90930204Y58092801D02*
X-90930204Y62410801D01*
X-92890204Y58092801D02*
X-90930204Y58092801D01*
%TO.C,R20*%
X-132501200Y57670400D02*
X-130541200Y57670400D01*
X-130541200Y57670400D02*
X-130541200Y61988400D01*
X-132501200Y61988400D02*
X-132501200Y57670400D01*
X-130541200Y61988400D02*
X-132501200Y61988400D01*
%TO.C,C22*%
X-50800000Y67115275D02*
X-50800000Y65155275D01*
X-50800000Y65155275D02*
X-46482000Y65155275D01*
X-46482000Y67115275D02*
X-50800000Y67115275D01*
X-46482000Y65155275D02*
X-46482000Y67115275D01*
%TO.C,C16*%
X-87338203Y69131200D02*
X-87338203Y67171200D01*
X-87338203Y67171200D02*
X-83020203Y67171200D01*
X-83020203Y69131200D02*
X-87338203Y69131200D01*
X-83020203Y67171200D02*
X-83020203Y69131200D01*
%TO.C,C15*%
X-80988204Y54217200D02*
X-80988204Y56177200D01*
X-80988204Y56177200D02*
X-85306204Y56177200D01*
X-85306204Y54217200D02*
X-80988204Y54217200D01*
X-85306204Y56177200D02*
X-85306204Y54217200D01*
%TO.C,D3*%
X-114796004Y64129400D02*
X-117096004Y64129400D01*
X-114796004Y64129400D02*
X-114796004Y68829400D01*
X-117096004Y68829400D02*
X-117096004Y64129400D01*
X-114796004Y68829400D02*
X-117096004Y68829400D01*
%TO.C,R15*%
X-120967804Y65041800D02*
X-120967804Y63081800D01*
X-120967804Y63081800D02*
X-116649804Y63081800D01*
X-116649804Y65041800D02*
X-120967804Y65041800D01*
X-116649804Y63081800D02*
X-116649804Y65041800D01*
%TO.C,J9*%
X-44061000Y76647275D02*
X-35441000Y76647275D01*
X-44061000Y69847275D02*
X-44061000Y76647275D01*
X-35441000Y76647275D02*
X-35441000Y69847275D01*
X-35441000Y69847275D02*
X-44061000Y69847275D01*
%TO.C,C17*%
X-11285000Y4077475D02*
X-11285000Y6037475D01*
X-11285000Y6037475D02*
X-15603000Y6037475D01*
X-15603000Y4077475D02*
X-11285000Y4077475D01*
X-15603000Y6037475D02*
X-15603000Y4077475D01*
%TO.C,U3*%
X-127767404Y73964000D02*
X-127767404Y66564000D01*
X-133167404Y73964000D02*
X-127767404Y73964000D01*
X-127767404Y66564000D02*
X-133167404Y66564000D01*
X-133167404Y66564000D02*
X-133167404Y73964000D01*
%TO.C,U8*%
X-97154205Y83494200D02*
X-94154205Y83494200D01*
X-97154205Y83494200D02*
X-97154205Y82514200D01*
X-93904205Y82514200D02*
X-94154205Y82514200D01*
X-94154205Y82514200D02*
X-94154205Y83494200D01*
X-97154205Y82514200D02*
X-97404205Y82514200D01*
X-97404205Y82514200D02*
X-97404205Y80254200D01*
X-93904205Y80254200D02*
X-93904205Y82514200D01*
X-94154205Y80254200D02*
X-93904205Y80254200D01*
X-97154205Y80254200D02*
X-97154205Y79274200D01*
X-97404205Y80254200D02*
X-97154205Y80254200D01*
X-94154205Y79274200D02*
X-94154205Y80254200D01*
X-94154205Y79274200D02*
X-97154205Y79274200D01*
%TO.C,J13*%
X-19707000Y85431275D02*
X-16107000Y85431275D01*
X-19707000Y64081275D02*
X-19707000Y85431275D01*
X-16107000Y85431275D02*
X-16107000Y64081275D01*
X-16107000Y64081275D02*
X-19707000Y64081275D01*
%TO.C,C13*%
X-112100004Y64239600D02*
X-110140004Y64239600D01*
X-110140004Y64239600D02*
X-110140004Y68557600D01*
X-112100004Y68557600D02*
X-112100004Y64239600D01*
X-110140004Y68557600D02*
X-112100004Y68557600D01*
%TO.C,R2*%
X-127915804Y106740400D02*
X-127915804Y104780400D01*
X-127915804Y104780400D02*
X-123597804Y104780400D01*
X-123597804Y106740400D02*
X-127915804Y106740400D01*
X-123597804Y104780400D02*
X-123597804Y106740400D01*
D12*
%TO.C,IC1*%
X-54592000Y11407475D02*
X-54592000Y22710475D01*
X-54592000Y11407475D02*
X-70086000Y11407475D01*
X-54592000Y22710475D02*
X-70086000Y22710475D01*
X-70086000Y22710475D02*
X-70086000Y11407475D01*
D10*
%TO.C,J11*%
X-54221000Y64435275D02*
X-35441000Y64435275D01*
X-54221000Y57635275D02*
X-54221000Y64435275D01*
X-35441000Y64435275D02*
X-35441000Y57635275D01*
X-35441000Y57635275D02*
X-54221000Y57635275D01*
%TO.C,C7*%
X-135740004Y71402400D02*
X-133780004Y71402400D01*
X-133780004Y71402400D02*
X-133780004Y75720400D01*
X-135740004Y75720400D02*
X-135740004Y71402400D01*
X-133780004Y75720400D02*
X-135740004Y75720400D01*
%TO.C,C10*%
X-116632804Y101671000D02*
X-118592804Y101671000D01*
X-118592804Y101671000D02*
X-118592804Y97353000D01*
X-116632804Y97353000D02*
X-116632804Y101671000D01*
X-118592804Y97353000D02*
X-116632804Y97353000D01*
%TO.C,C4*%
X-127929104Y104454400D02*
X-127929104Y102494400D01*
X-127929104Y102494400D02*
X-123611104Y102494400D01*
X-123611104Y104454400D02*
X-127929104Y104454400D01*
X-123611104Y102494400D02*
X-123611104Y104454400D01*
%TO.C,R12*%
X-108108004Y73793600D02*
X-110068004Y73793600D01*
X-110068004Y73793600D02*
X-110068004Y69475600D01*
X-108108004Y69475600D02*
X-108108004Y73793600D01*
X-110068004Y69475600D02*
X-108108004Y69475600D01*
%TO.C,U7*%
X-102846404Y78146401D02*
X-102846404Y85546401D01*
X-97446404Y78146401D02*
X-102846404Y78146401D01*
X-102846404Y85546401D02*
X-97446404Y85546401D01*
X-97446404Y85546401D02*
X-97446404Y78146401D01*
%TO.C,R40*%
X-24801000Y101060275D02*
X-26761000Y101060275D01*
X-26761000Y101060275D02*
X-26761000Y96742275D01*
X-24801000Y96742275D02*
X-24801000Y101060275D01*
X-26761000Y96742275D02*
X-24801000Y96742275D01*
%TO.C,SW2*%
X-16672000Y112109275D02*
X-6512000Y112109275D01*
X-16672000Y101949275D02*
X-16672000Y112109275D01*
X-6512000Y112109275D02*
X-6512000Y101949275D01*
X-6512000Y101949275D02*
X-16672000Y101949275D01*
%TO.C,C14*%
X-80988204Y57138200D02*
X-80988204Y59098200D01*
X-80988204Y59098200D02*
X-85306204Y59098200D01*
X-85306204Y57138200D02*
X-80988204Y57138200D01*
X-85306204Y59098200D02*
X-85306204Y57138200D01*
%TO.C,R11*%
X-119596204Y76624200D02*
X-119596204Y74664200D01*
X-119596204Y74664200D02*
X-115278204Y74664200D01*
X-115278204Y76624200D02*
X-119596204Y76624200D01*
X-115278204Y74664200D02*
X-115278204Y76624200D01*
%TO.C,D5*%
X-112148004Y70097900D02*
X-112148004Y66257900D01*
X-115548004Y70097900D02*
X-112148004Y70097900D01*
X-112148004Y66257900D02*
X-115548004Y66257900D01*
X-115548004Y66257900D02*
X-115548004Y70097900D01*
%TO.C,K2*%
X-129689600Y61950600D02*
X-119089600Y61950600D01*
X-129689600Y56870600D02*
X-129689600Y61950600D01*
X-119089600Y61950600D02*
X-119089600Y56870600D01*
X-119089600Y56870600D02*
X-129689600Y56870600D01*
%TO.C,L2*%
X-122690203Y96968600D02*
X-119530203Y96968600D01*
X-119530203Y96968600D02*
X-119530203Y101868600D01*
X-122690203Y101868600D02*
X-122690203Y96968600D01*
X-119530203Y101868600D02*
X-122690203Y101868600D01*
%TO.C,U2*%
X-87686204Y73945200D02*
X-87686204Y66545200D01*
X-93086204Y73945200D02*
X-87686204Y73945200D01*
X-87686204Y66545200D02*
X-93086204Y66545200D01*
X-93086204Y66545200D02*
X-93086204Y73945200D01*
%TO.C,C3*%
X-87302204Y69399700D02*
X-85342204Y69399700D01*
X-85342204Y69399700D02*
X-85342204Y73717700D01*
X-87302204Y73717700D02*
X-87302204Y69399700D01*
X-85342204Y73717700D02*
X-87302204Y73717700D01*
%TO.C,K1*%
X-129483800Y62185200D02*
X-119283800Y62185200D01*
X-129483800Y56585200D02*
X-129483800Y62185200D01*
X-119283800Y62185200D02*
X-119283800Y56585200D01*
X-119283800Y56585200D02*
X-129483800Y56585200D01*
%TO.C,R19*%
X-100510204Y53368400D02*
X-98550204Y53368400D01*
X-98550204Y53368400D02*
X-98550204Y57686400D01*
X-100510204Y57686400D02*
X-100510204Y53368400D01*
X-98550204Y57686400D02*
X-100510204Y57686400D01*
%TO.C,C18*%
X-15603001Y3624475D02*
X-15603001Y1664475D01*
X-15603001Y1664475D02*
X-11285001Y1664475D01*
X-11285001Y3624475D02*
X-15603001Y3624475D01*
X-11285001Y1664475D02*
X-11285001Y3624475D01*
%TO.C,R14*%
X-110604604Y74664200D02*
X-110604604Y76624200D01*
X-110604604Y76624200D02*
X-114922604Y76624200D01*
X-114922604Y74664200D02*
X-110604604Y74664200D01*
X-114922604Y76624200D02*
X-114922604Y74664200D01*
%TO.C,D4*%
X-116061004Y70575900D02*
X-116061004Y74415900D01*
X-112661004Y70575900D02*
X-116061004Y70575900D01*
X-116061004Y74415900D02*
X-112661004Y74415900D01*
X-112661004Y74415900D02*
X-112661004Y70575900D01*
%TO.C,Q2*%
X-121342003Y64986900D02*
X-121342003Y61146900D01*
X-124742003Y64986900D02*
X-121342003Y64986900D01*
X-121342003Y61146900D02*
X-124742003Y61146900D01*
X-124742003Y61146900D02*
X-124742003Y64986900D01*
%TO.C,C1*%
X-116609604Y85960500D02*
X-118569604Y85960500D01*
X-118569604Y85960500D02*
X-118569604Y81642500D01*
X-116609604Y81642500D02*
X-116609604Y85960500D01*
X-118569604Y81642500D02*
X-116609604Y81642500D01*
%TO.C,R5*%
X-133780004Y71202000D02*
X-135740004Y71202000D01*
X-135740004Y71202000D02*
X-135740004Y66884000D01*
X-133780004Y66884000D02*
X-133780004Y71202000D01*
X-135740004Y66884000D02*
X-133780004Y66884000D01*
%TO.C,U1*%
X-126420203Y97438600D02*
X-126420203Y101538600D01*
X-123020203Y97438600D02*
X-126420203Y97438600D01*
X-126420203Y101538600D02*
X-123020203Y101538600D01*
X-123020203Y101538600D02*
X-123020203Y97438600D01*
%TO.C,C12*%
X-136015204Y71199200D02*
X-137975204Y71199200D01*
X-137975204Y71199200D02*
X-137975204Y66881200D01*
X-136015204Y66881200D02*
X-136015204Y71199200D01*
X-137975204Y66881200D02*
X-136015204Y66881200D01*
%TO.C,Q1*%
X-121788005Y64704399D02*
X-124388005Y64704399D01*
X-124388005Y64704399D02*
X-124388005Y61304399D01*
X-121788005Y61304399D02*
X-121788005Y64704399D01*
X-124388005Y61304399D02*
X-121788005Y61304399D01*
%TO.C,C8*%
X-103249204Y83010200D02*
X-105209204Y83010200D01*
X-105209204Y83010200D02*
X-105209204Y78692200D01*
X-103249204Y78692200D02*
X-103249204Y83010200D01*
X-105209204Y78692200D02*
X-103249204Y78692200D01*
%TD*%
M02*
