%TF.GenerationSoftware,KiCad,Pcbnew,7.0.1*%
%TF.CreationDate,2023-03-16T09:25:58+01:00*%
%TF.ProjectId,Muons_SIPM_V2,4d756f6e-735f-4534-9950-4d5f56322e6b,rev?*%
%TF.SameCoordinates,PXc54b534PY8c10c98*%
%TF.FileFunction,Other,User*%
%FSLAX46Y46*%
G04 Gerber Fmt 4.6, Leading zero omitted, Abs format (unit mm)*
G04 Created by KiCad (PCBNEW 7.0.1) date 2023-03-16 09:25:58*
%MOMM*%
%LPD*%
G01*
G04 APERTURE LIST*
%ADD10C,0.050000*%
%ADD11C,0.127000*%
%ADD12C,0.120000*%
G04 APERTURE END LIST*
D10*
%TO.C,H3*%
X-101279404Y68801200D02*
G75*
G03*
X-101279404Y68801200I-2150000J0D01*
G01*
%TO.C,J1*%
X-126508204Y88133200D02*
X-120408204Y88133200D01*
X-126508204Y79483200D02*
X-126508204Y88133200D01*
X-120408204Y88133200D02*
X-120408204Y79483200D01*
X-120408204Y79483200D02*
X-126508204Y79483200D01*
%TO.C,R33*%
X-35397000Y99300275D02*
X-35397000Y103618275D01*
X-33437000Y99300275D02*
X-35397000Y99300275D01*
X-35397000Y103618275D02*
X-33437000Y103618275D01*
X-33437000Y103618275D02*
X-33437000Y99300275D01*
%TO.C,J3*%
X-147225204Y28367000D02*
X-147225204Y10267000D01*
X-147225204Y10267000D02*
X-115325204Y10267000D01*
X-115325204Y28367000D02*
X-147225204Y28367000D01*
X-115325204Y10267000D02*
X-115325204Y28367000D01*
%TO.C,H8*%
X-64850000Y67405275D02*
G75*
G03*
X-64850000Y67405275I-2150000J0D01*
G01*
D11*
%TO.C,J2*%
X-146605404Y53838200D02*
X-130405404Y53838200D01*
X-146605404Y45438200D02*
X-146605404Y53838200D01*
X-130405404Y53838200D02*
X-130405404Y45438200D01*
X-130405404Y45438200D02*
X-146605404Y45438200D01*
D10*
%TO.C,TP8*%
X-10777000Y5946475D02*
X-10777000Y1882475D01*
X-10777000Y5946475D02*
X-5697000Y5946475D01*
X-5697000Y1882475D02*
X-10777000Y1882475D01*
X-5697000Y1882475D02*
X-5697000Y5946475D01*
%TO.C,H12*%
X-64850000Y4405275D02*
G75*
G03*
X-64850000Y4405275I-2150000J0D01*
G01*
%TO.C,Cn1*%
X-115022004Y47606200D02*
X-110958004Y47606200D01*
X-115022004Y47606200D02*
X-115022004Y52686200D01*
X-110958004Y52686200D02*
X-110958004Y47606200D01*
X-110958004Y52686200D02*
X-115022004Y52686200D01*
%TO.C,H7*%
X-64850000Y105538275D02*
G75*
G03*
X-64850000Y105538275I-2150000J0D01*
G01*
%TO.C,R29*%
X-66040000Y88269275D02*
X-70358000Y88269275D01*
X-66040000Y90229275D02*
X-66040000Y88269275D01*
X-70358000Y88269275D02*
X-70358000Y90229275D01*
X-70358000Y90229275D02*
X-66040000Y90229275D01*
D12*
%TO.C,B1*%
X-137120004Y110344200D02*
X-109180004Y110344200D01*
X-109180004Y110344200D02*
X-109180004Y92056200D01*
X-109180004Y92056200D02*
X-137120004Y92056200D01*
X-137120004Y92056200D02*
X-137120004Y110344200D01*
D10*
%TO.C,H4*%
X-101279404Y98801200D02*
G75*
G03*
X-101279404Y98801200I-2150000J0D01*
G01*
%TO.C,U11*%
X-53741000Y69951275D02*
X-53741000Y64351275D01*
X-53741000Y64351275D02*
X-43541000Y64351275D01*
X-43541000Y69951275D02*
X-53741000Y69951275D01*
X-43541000Y64351275D02*
X-43541000Y69951275D01*
%TO.C,C26*%
X-34798001Y88015275D02*
X-39116001Y88015275D01*
X-34798001Y89975275D02*
X-34798001Y88015275D01*
X-39116001Y88015275D02*
X-39116001Y89975275D01*
X-39116001Y89975275D02*
X-34798001Y89975275D01*
%TO.C,RV4*%
X-62270000Y91905275D02*
X-62270000Y99205275D01*
X-62270000Y99205275D02*
X-67270000Y99205275D01*
X-67270000Y91905275D02*
X-62270000Y91905275D01*
X-67270000Y99205275D02*
X-67270000Y91905275D01*
%TO.C,U5*%
X-116302004Y81042200D02*
X-111562004Y81042200D01*
X-116302004Y81042200D02*
X-116302004Y86502200D01*
X-111562004Y86502200D02*
X-111562004Y81042200D01*
X-111562004Y86502200D02*
X-116302004Y86502200D01*
%TO.C,R36*%
X-26162000Y85475275D02*
X-30480000Y85475275D01*
X-26162000Y87435275D02*
X-26162000Y85475275D01*
X-30480000Y85475275D02*
X-30480000Y87435275D01*
X-30480000Y87435275D02*
X-26162000Y87435275D01*
%TO.C,C21*%
X-39405000Y91872275D02*
X-43723000Y91872275D01*
X-39405000Y93832275D02*
X-39405000Y91872275D01*
X-43723000Y91872275D02*
X-43723000Y93832275D01*
X-43723000Y93832275D02*
X-39405000Y93832275D01*
%TO.C,TP3*%
X-100379804Y41064800D02*
X-100379804Y37000800D01*
X-100379804Y41064800D02*
X-95299804Y41064800D01*
X-95299804Y37000800D02*
X-100379804Y37000800D01*
X-95299804Y37000800D02*
X-95299804Y41064800D01*
%TO.C,R32*%
X-56987000Y64992275D02*
X-56987000Y69310275D01*
X-55027000Y64992275D02*
X-56987000Y64992275D01*
X-56987000Y69310275D02*
X-55027000Y69310275D01*
X-55027000Y69310275D02*
X-55027000Y64992275D01*
%TO.C,J6*%
X-126485204Y41699000D02*
X-126485204Y34899000D01*
X-126485204Y34899000D02*
X-110245204Y34899000D01*
X-110245204Y41699000D02*
X-126485204Y41699000D01*
X-110245204Y34899000D02*
X-110245204Y41699000D01*
%TO.C,H6*%
X-81279404Y105801200D02*
G75*
G03*
X-81279404Y105801200I-2150000J0D01*
G01*
%TO.C,U9*%
X-45466000Y103380275D02*
X-61341000Y103380275D01*
X-61341000Y103380275D02*
X-61341000Y89757275D01*
D12*
X-51181000Y103346275D02*
X-51181000Y99155275D01*
X-56261000Y103346275D02*
X-56261000Y99028275D01*
X-52070000Y96869275D02*
X-54991000Y96869275D01*
X-57531000Y96869275D02*
X-60198000Y96869275D01*
X-60198000Y96869275D02*
X-61341000Y96869275D01*
X-45593000Y96742275D02*
X-48768000Y96742275D01*
X-48768000Y96742275D02*
X-49149000Y96742275D01*
X-56261000Y94710275D02*
X-56261000Y89757275D01*
D10*
X-45466000Y89757275D02*
X-45466000Y103380275D01*
D12*
X-51181000Y89757275D02*
X-51181000Y94583275D01*
D10*
X-61341000Y89757275D02*
X-45466000Y89757275D01*
%TO.C,H2*%
X-81279404Y83801200D02*
G75*
G03*
X-81279404Y83801200I-2150000J0D01*
G01*
%TO.C,H10*%
X-36585000Y4405275D02*
G75*
G03*
X-36585000Y4405275I-2150000J0D01*
G01*
%TO.C,C23*%
X-43723000Y96118275D02*
X-39405000Y96118275D01*
X-43723000Y94158275D02*
X-43723000Y96118275D01*
X-39405000Y96118275D02*
X-39405000Y94158275D01*
X-39405000Y94158275D02*
X-43723000Y94158275D01*
D12*
%TO.C,J15*%
X-3860800Y26122275D02*
X-31800800Y26122275D01*
X-3860800Y48220275D02*
X-3860800Y26122275D01*
X-3860800Y48220275D02*
X-7162800Y48220275D01*
X-7162800Y48220275D02*
X-7162800Y50023675D01*
X-31800800Y26122275D02*
X-31826200Y49718875D01*
X-31826200Y50023675D02*
X-7162800Y50023675D01*
D10*
%TO.C,R31*%
X-67854000Y95218274D02*
X-67854000Y90900274D01*
X-69814000Y95218274D02*
X-67854000Y95218274D01*
X-67854000Y90900274D02*
X-69814000Y90900274D01*
X-69814000Y90900274D02*
X-69814000Y95218274D01*
%TO.C,R34*%
X-35397000Y101586274D02*
X-35397000Y105904274D01*
X-33437000Y101586274D02*
X-35397000Y101586274D01*
X-35397000Y105904274D02*
X-33437000Y105904274D01*
X-33437000Y105904274D02*
X-33437000Y101586274D01*
%TO.C,C20*%
X-67854000Y99790276D02*
X-67854000Y95472276D01*
X-69814000Y99790276D02*
X-67854000Y99790276D01*
X-67854000Y95472276D02*
X-69814000Y95472276D01*
X-69814000Y95472276D02*
X-69814000Y99790276D01*
%TO.C,RV2*%
X-106444204Y15399000D02*
X-101544204Y15399000D01*
X-101544204Y15399000D02*
X-101544204Y36799000D01*
X-106444204Y36799000D02*
X-106444204Y15399000D01*
X-101544204Y36799000D02*
X-106444204Y36799000D01*
%TO.C,J5*%
X-146805204Y41699000D02*
X-146805204Y34899000D01*
X-146805204Y34899000D02*
X-128025204Y34899000D01*
X-128025204Y41699000D02*
X-146805204Y41699000D01*
X-128025204Y34899000D02*
X-128025204Y41699000D01*
%TO.C,RV1*%
X-101364204Y15399000D02*
X-96464204Y15399000D01*
X-96464204Y15399000D02*
X-96464204Y36799000D01*
X-101364204Y36799000D02*
X-101364204Y15399000D01*
X-96464204Y36799000D02*
X-101364204Y36799000D01*
D12*
%TO.C,J14*%
X-33680500Y50929875D02*
X-69712300Y50929875D01*
X-69712300Y50929875D02*
X-69712300Y49262475D01*
X-69712300Y49262475D02*
X-33680500Y49262475D01*
X-33680500Y49262475D02*
X-33680500Y50929875D01*
X-43924000Y49253475D02*
X-58783000Y49253475D01*
X-58783000Y49253475D02*
X-58783000Y40363475D01*
X-58783000Y40363475D02*
X-43924000Y40363475D01*
X-43924000Y40363475D02*
X-43924000Y49253475D01*
D10*
%TO.C,H14*%
X-36585000Y105538275D02*
G75*
G03*
X-36585000Y105538275I-2150000J0D01*
G01*
%TO.C,C24*%
X-39024000Y93832275D02*
X-34706000Y93832275D01*
X-39024000Y91872275D02*
X-39024000Y93832275D01*
X-34706000Y93832275D02*
X-34706000Y91872275D01*
X-34706000Y91872275D02*
X-39024000Y91872275D01*
D11*
%TO.C,J4*%
X-106672204Y26406400D02*
X-106672204Y10206400D01*
X-115072204Y26406400D02*
X-106672204Y26406400D01*
X-106672204Y10206400D02*
X-115072204Y10206400D01*
X-115072204Y10206400D02*
X-115072204Y26406400D01*
D10*
%TO.C,TP7*%
X-29337000Y60293275D02*
X-25273000Y60293275D01*
X-29337000Y60293275D02*
X-29337000Y65373275D01*
X-25273000Y65373275D02*
X-25273000Y60293275D01*
X-25273000Y65373275D02*
X-29337000Y65373275D01*
%TO.C,TP4*%
X-20955000Y70453275D02*
X-25019000Y70453275D01*
X-20955000Y70453275D02*
X-20955000Y65373275D01*
X-25019000Y65373275D02*
X-25019000Y70453275D01*
X-25019000Y65373275D02*
X-20955000Y65373275D01*
%TO.C,H5*%
X-141279404Y105801200D02*
G75*
G03*
X-141279404Y105801200I-2150000J0D01*
G01*
%TO.C,J7*%
X-82520204Y44843000D02*
X-82520204Y51643000D01*
X-82520204Y51643000D02*
X-103840204Y51643000D01*
X-103840204Y44843000D02*
X-82520204Y44843000D01*
X-103840204Y51643000D02*
X-103840204Y44843000D01*
%TO.C,R30*%
X-67056000Y101913275D02*
X-62738000Y101913275D01*
X-67056000Y99953275D02*
X-67056000Y101913275D01*
X-62738000Y101913275D02*
X-62738000Y99953275D01*
X-62738000Y99953275D02*
X-67056000Y99953275D01*
%TO.C,TP2*%
X-115952204Y28754000D02*
X-111888204Y28754000D01*
X-115952204Y28754000D02*
X-115952204Y33834000D01*
X-111888204Y33834000D02*
X-111888204Y28754000D01*
X-111888204Y33834000D02*
X-115952204Y33834000D01*
%TO.C,R35*%
X-26162000Y93095275D02*
X-30480000Y93095275D01*
X-26162000Y95055275D02*
X-26162000Y93095275D01*
X-30480000Y93095275D02*
X-30480000Y95055275D01*
X-30480000Y95055275D02*
X-26162000Y95055275D01*
%TO.C,C25*%
X-34706000Y94158275D02*
X-39024000Y94158275D01*
X-34706000Y96118275D02*
X-34706000Y94158275D01*
X-39024000Y94158275D02*
X-39024000Y96118275D01*
X-39024000Y96118275D02*
X-34706000Y96118275D01*
%TO.C,TP5*%
X-29337000Y65373275D02*
X-25273000Y65373275D01*
X-29337000Y65373275D02*
X-29337000Y70453275D01*
X-25273000Y70453275D02*
X-25273000Y65373275D01*
X-25273000Y70453275D02*
X-29337000Y70453275D01*
%TO.C,M2*%
X-33031000Y105662275D02*
X-33031000Y56902275D01*
X-33031000Y56902275D02*
X-23151000Y56902275D01*
X-28081000Y111832275D02*
X-9581000Y111832275D01*
X-28081000Y105662275D02*
X-33031000Y105662275D01*
X-28081000Y105662275D02*
X-28081000Y111832275D01*
X-23151000Y56902275D02*
X-23151000Y56032275D01*
X-23151000Y56032275D02*
X-14521000Y56032275D01*
X-14521000Y56902275D02*
X-4631000Y56902275D01*
X-14521000Y56032275D02*
X-14521000Y56902275D01*
X-9581000Y111832275D02*
X-9581000Y105662275D01*
X-4631000Y105662275D02*
X-9581000Y105662275D01*
X-4631000Y56902275D02*
X-4631000Y105662275D01*
%TO.C,H9*%
X-36585000Y67405275D02*
G75*
G03*
X-36585000Y67405275I-2150000J0D01*
G01*
%TO.C,C19*%
X-65786000Y90229275D02*
X-61468000Y90229275D01*
X-65786000Y88269275D02*
X-65786000Y90229275D01*
X-61468000Y90229275D02*
X-61468000Y88269275D01*
X-61468000Y88269275D02*
X-65786000Y88269275D01*
%TO.C,TP1*%
X-110872204Y28754000D02*
X-106808204Y28754000D01*
X-110872204Y28754000D02*
X-110872204Y33834000D01*
X-106808204Y33834000D02*
X-106808204Y28754000D01*
X-106808204Y33834000D02*
X-110872204Y33834000D01*
%TO.C,R38*%
X-26162000Y75315275D02*
X-30480000Y75315275D01*
X-26162000Y77275275D02*
X-26162000Y75315275D01*
X-30480000Y75315275D02*
X-30480000Y77275275D01*
X-30480000Y77275275D02*
X-26162000Y77275275D01*
%TO.C,R37*%
X-9743000Y62452276D02*
X-9743000Y66770276D01*
X-7783000Y62452276D02*
X-9743000Y62452276D01*
X-9743000Y66770276D02*
X-7783000Y66770276D01*
X-7783000Y66770276D02*
X-7783000Y62452276D01*
%TO.C,H11*%
X-64850000Y42538275D02*
G75*
G03*
X-64850000Y42538275I-2150000J0D01*
G01*
%TO.C,H13*%
X-36585000Y42538275D02*
G75*
G03*
X-36585000Y42538275I-2150000J0D01*
G01*
%TO.C,TP6*%
X-25019000Y60293275D02*
X-20955000Y60293275D01*
X-25019000Y60293275D02*
X-25019000Y65373275D01*
X-20955000Y65373275D02*
X-20955000Y60293275D01*
X-20955000Y65373275D02*
X-25019000Y65373275D01*
%TO.C,R28*%
X-61377000Y69310275D02*
X-61377000Y64992275D01*
X-63337000Y69310275D02*
X-61377000Y69310275D01*
X-61377000Y64992275D02*
X-63337000Y64992275D01*
X-63337000Y64992275D02*
X-63337000Y69310275D01*
%TO.C,H1*%
X-141279404Y61801200D02*
G75*
G03*
X-141279404Y61801200I-2150000J0D01*
G01*
D12*
%TO.C,M1*%
X-31732000Y15598475D02*
X-70848000Y15598475D01*
X-70848000Y15598475D02*
X-70848000Y39474475D01*
X-70848000Y39474475D02*
X-31732000Y39474475D01*
X-31732000Y39474475D02*
X-31732000Y15598475D01*
D10*
%TO.C,J12*%
X-16089000Y1225475D02*
X-19639000Y1225475D01*
X-16089000Y22575475D02*
X-16089000Y1225475D01*
X-19639000Y1225475D02*
X-19639000Y22575475D01*
X-19639000Y22575475D02*
X-16089000Y22575475D01*
%TD*%
M02*
