%TF.GenerationSoftware,KiCad,Pcbnew,7.0.1*%
%TF.CreationDate,2023-03-16T09:25:58+01:00*%
%TF.ProjectId,Muons_SIPM_V2,4d756f6e-735f-4534-9950-4d5f56322e6b,rev?*%
%TF.SameCoordinates,PXc54b534PY8c10c98*%
%TF.FileFunction,Legend,Top*%
%TF.FilePolarity,Positive*%
%FSLAX46Y46*%
G04 Gerber Fmt 4.6, Leading zero omitted, Abs format (unit mm)*
G04 Created by KiCad (PCBNEW 7.0.1) date 2023-03-16 09:25:58*
%MOMM*%
%LPD*%
G01*
G04 APERTURE LIST*
%ADD10C,0.150000*%
%ADD11C,0.250000*%
%ADD12C,0.200000*%
%ADD13C,0.254000*%
%ADD14C,0.120000*%
%ADD15C,0.127000*%
G04 APERTURE END LIST*
D10*
X-120728204Y87679200D02*
X-125808204Y87679200D01*
D11*
X-151321254Y75783840D02*
X-151273634Y75831460D01*
D10*
X-125808204Y80059200D02*
X-120728204Y80059200D01*
X-120728204Y80059200D02*
X-120728204Y87679200D01*
X-125808204Y87679200D02*
X-125808204Y80059200D01*
X-116815909Y87733581D02*
X-116815909Y88733581D01*
X-116815909Y88733581D02*
X-116577814Y88733581D01*
X-116577814Y88733581D02*
X-116434957Y88685962D01*
X-116434957Y88685962D02*
X-116339719Y88590724D01*
X-116339719Y88590724D02*
X-116292100Y88495486D01*
X-116292100Y88495486D02*
X-116244481Y88305010D01*
X-116244481Y88305010D02*
X-116244481Y88162153D01*
X-116244481Y88162153D02*
X-116292100Y87971677D01*
X-116292100Y87971677D02*
X-116339719Y87876439D01*
X-116339719Y87876439D02*
X-116434957Y87781200D01*
X-116434957Y87781200D02*
X-116577814Y87733581D01*
X-116577814Y87733581D02*
X-116815909Y87733581D01*
X-115863528Y87781200D02*
X-115720671Y87733581D01*
X-115720671Y87733581D02*
X-115482576Y87733581D01*
X-115482576Y87733581D02*
X-115387338Y87781200D01*
X-115387338Y87781200D02*
X-115339719Y87828820D01*
X-115339719Y87828820D02*
X-115292100Y87924058D01*
X-115292100Y87924058D02*
X-115292100Y88019296D01*
X-115292100Y88019296D02*
X-115339719Y88114534D01*
X-115339719Y88114534D02*
X-115387338Y88162153D01*
X-115387338Y88162153D02*
X-115482576Y88209772D01*
X-115482576Y88209772D02*
X-115673052Y88257391D01*
X-115673052Y88257391D02*
X-115768290Y88305010D01*
X-115768290Y88305010D02*
X-115815909Y88352629D01*
X-115815909Y88352629D02*
X-115863528Y88447867D01*
X-115863528Y88447867D02*
X-115863528Y88543105D01*
X-115863528Y88543105D02*
X-115815909Y88638343D01*
X-115815909Y88638343D02*
X-115768290Y88685962D01*
X-115768290Y88685962D02*
X-115673052Y88733581D01*
X-115673052Y88733581D02*
X-115434957Y88733581D01*
X-115434957Y88733581D02*
X-115292100Y88685962D01*
X-114339719Y87733581D02*
X-114911147Y87733581D01*
X-114625433Y87733581D02*
X-114625433Y88733581D01*
X-114625433Y88733581D02*
X-114720671Y88590724D01*
X-114720671Y88590724D02*
X-114815909Y88495486D01*
X-114815909Y88495486D02*
X-114911147Y88447867D01*
X-113768290Y88305010D02*
X-113863528Y88352629D01*
X-113863528Y88352629D02*
X-113911147Y88400248D01*
X-113911147Y88400248D02*
X-113958766Y88495486D01*
X-113958766Y88495486D02*
X-113958766Y88543105D01*
X-113958766Y88543105D02*
X-113911147Y88638343D01*
X-113911147Y88638343D02*
X-113863528Y88685962D01*
X-113863528Y88685962D02*
X-113768290Y88733581D01*
X-113768290Y88733581D02*
X-113577814Y88733581D01*
X-113577814Y88733581D02*
X-113482576Y88685962D01*
X-113482576Y88685962D02*
X-113434957Y88638343D01*
X-113434957Y88638343D02*
X-113387338Y88543105D01*
X-113387338Y88543105D02*
X-113387338Y88495486D01*
X-113387338Y88495486D02*
X-113434957Y88400248D01*
X-113434957Y88400248D02*
X-113482576Y88352629D01*
X-113482576Y88352629D02*
X-113577814Y88305010D01*
X-113577814Y88305010D02*
X-113768290Y88305010D01*
X-113768290Y88305010D02*
X-113863528Y88257391D01*
X-113863528Y88257391D02*
X-113911147Y88209772D01*
X-113911147Y88209772D02*
X-113958766Y88114534D01*
X-113958766Y88114534D02*
X-113958766Y87924058D01*
X-113958766Y87924058D02*
X-113911147Y87828820D01*
X-113911147Y87828820D02*
X-113863528Y87781200D01*
X-113863528Y87781200D02*
X-113768290Y87733581D01*
X-113768290Y87733581D02*
X-113577814Y87733581D01*
X-113577814Y87733581D02*
X-113482576Y87781200D01*
X-113482576Y87781200D02*
X-113434957Y87828820D01*
X-113434957Y87828820D02*
X-113387338Y87924058D01*
X-113387338Y87924058D02*
X-113387338Y88114534D01*
X-113387338Y88114534D02*
X-113434957Y88209772D01*
X-113434957Y88209772D02*
X-113482576Y88257391D01*
X-113482576Y88257391D02*
X-113577814Y88305010D01*
X-112625433Y88257391D02*
X-112482576Y88209772D01*
X-112482576Y88209772D02*
X-112434957Y88162153D01*
X-112434957Y88162153D02*
X-112387338Y88066915D01*
X-112387338Y88066915D02*
X-112387338Y87924058D01*
X-112387338Y87924058D02*
X-112434957Y87828820D01*
X-112434957Y87828820D02*
X-112482576Y87781200D01*
X-112482576Y87781200D02*
X-112577814Y87733581D01*
X-112577814Y87733581D02*
X-112958766Y87733581D01*
X-112958766Y87733581D02*
X-112958766Y88733581D01*
X-112958766Y88733581D02*
X-112625433Y88733581D01*
X-112625433Y88733581D02*
X-112530195Y88685962D01*
X-112530195Y88685962D02*
X-112482576Y88638343D01*
X-112482576Y88638343D02*
X-112434957Y88543105D01*
X-112434957Y88543105D02*
X-112434957Y88447867D01*
X-112434957Y88447867D02*
X-112482576Y88352629D01*
X-112482576Y88352629D02*
X-112530195Y88305010D01*
X-112530195Y88305010D02*
X-112625433Y88257391D01*
X-112625433Y88257391D02*
X-112958766Y88257391D01*
X-112006385Y88638343D02*
X-111958766Y88685962D01*
X-111958766Y88685962D02*
X-111863528Y88733581D01*
X-111863528Y88733581D02*
X-111625433Y88733581D01*
X-111625433Y88733581D02*
X-111530195Y88685962D01*
X-111530195Y88685962D02*
X-111482576Y88638343D01*
X-111482576Y88638343D02*
X-111434957Y88543105D01*
X-111434957Y88543105D02*
X-111434957Y88447867D01*
X-111434957Y88447867D02*
X-111482576Y88305010D01*
X-111482576Y88305010D02*
X-112054004Y87733581D01*
X-112054004Y87733581D02*
X-111434957Y87733581D01*
X-110815909Y88733581D02*
X-110720671Y88733581D01*
X-110720671Y88733581D02*
X-110625433Y88685962D01*
X-110625433Y88685962D02*
X-110577814Y88638343D01*
X-110577814Y88638343D02*
X-110530195Y88543105D01*
X-110530195Y88543105D02*
X-110482576Y88352629D01*
X-110482576Y88352629D02*
X-110482576Y88114534D01*
X-110482576Y88114534D02*
X-110530195Y87924058D01*
X-110530195Y87924058D02*
X-110577814Y87828820D01*
X-110577814Y87828820D02*
X-110625433Y87781200D01*
X-110625433Y87781200D02*
X-110720671Y87733581D01*
X-110720671Y87733581D02*
X-110815909Y87733581D01*
X-110815909Y87733581D02*
X-110911147Y87781200D01*
X-110911147Y87781200D02*
X-110958766Y87828820D01*
X-110958766Y87828820D02*
X-111006385Y87924058D01*
X-111006385Y87924058D02*
X-111054004Y88114534D01*
X-111054004Y88114534D02*
X-111054004Y88352629D01*
X-111054004Y88352629D02*
X-111006385Y88543105D01*
X-111006385Y88543105D02*
X-110958766Y88638343D01*
X-110958766Y88638343D02*
X-110911147Y88685962D01*
X-110911147Y88685962D02*
X-110815909Y88733581D01*
X-103544481Y109895820D02*
X-103592100Y109848200D01*
X-103592100Y109848200D02*
X-103734957Y109800581D01*
X-103734957Y109800581D02*
X-103830195Y109800581D01*
X-103830195Y109800581D02*
X-103973052Y109848200D01*
X-103973052Y109848200D02*
X-104068290Y109943439D01*
X-104068290Y109943439D02*
X-104115909Y110038677D01*
X-104115909Y110038677D02*
X-104163528Y110229153D01*
X-104163528Y110229153D02*
X-104163528Y110372010D01*
X-104163528Y110372010D02*
X-104115909Y110562486D01*
X-104115909Y110562486D02*
X-104068290Y110657724D01*
X-104068290Y110657724D02*
X-103973052Y110752962D01*
X-103973052Y110752962D02*
X-103830195Y110800581D01*
X-103830195Y110800581D02*
X-103734957Y110800581D01*
X-103734957Y110800581D02*
X-103592100Y110752962D01*
X-103592100Y110752962D02*
X-103544481Y110705343D01*
X-102973052Y109800581D02*
X-103068290Y109848200D01*
X-103068290Y109848200D02*
X-103115909Y109895820D01*
X-103115909Y109895820D02*
X-103163528Y109991058D01*
X-103163528Y109991058D02*
X-103163528Y110276772D01*
X-103163528Y110276772D02*
X-103115909Y110372010D01*
X-103115909Y110372010D02*
X-103068290Y110419629D01*
X-103068290Y110419629D02*
X-102973052Y110467248D01*
X-102973052Y110467248D02*
X-102830195Y110467248D01*
X-102830195Y110467248D02*
X-102734957Y110419629D01*
X-102734957Y110419629D02*
X-102687338Y110372010D01*
X-102687338Y110372010D02*
X-102639719Y110276772D01*
X-102639719Y110276772D02*
X-102639719Y109991058D01*
X-102639719Y109991058D02*
X-102687338Y109895820D01*
X-102687338Y109895820D02*
X-102734957Y109848200D01*
X-102734957Y109848200D02*
X-102830195Y109800581D01*
X-102830195Y109800581D02*
X-102973052Y109800581D01*
X-102258766Y109848200D02*
X-102163528Y109800581D01*
X-102163528Y109800581D02*
X-101973052Y109800581D01*
X-101973052Y109800581D02*
X-101877814Y109848200D01*
X-101877814Y109848200D02*
X-101830195Y109943439D01*
X-101830195Y109943439D02*
X-101830195Y109991058D01*
X-101830195Y109991058D02*
X-101877814Y110086296D01*
X-101877814Y110086296D02*
X-101973052Y110133915D01*
X-101973052Y110133915D02*
X-102115909Y110133915D01*
X-102115909Y110133915D02*
X-102211147Y110181534D01*
X-102211147Y110181534D02*
X-102258766Y110276772D01*
X-102258766Y110276772D02*
X-102258766Y110324391D01*
X-102258766Y110324391D02*
X-102211147Y110419629D01*
X-102211147Y110419629D02*
X-102115909Y110467248D01*
X-102115909Y110467248D02*
X-101973052Y110467248D01*
X-101973052Y110467248D02*
X-101877814Y110419629D01*
X-101401623Y109800581D02*
X-101401623Y110467248D01*
X-101401623Y110372010D02*
X-101354004Y110419629D01*
X-101354004Y110419629D02*
X-101258766Y110467248D01*
X-101258766Y110467248D02*
X-101115909Y110467248D01*
X-101115909Y110467248D02*
X-101020671Y110419629D01*
X-101020671Y110419629D02*
X-100973052Y110324391D01*
X-100973052Y110324391D02*
X-100973052Y109800581D01*
X-100973052Y110324391D02*
X-100925433Y110419629D01*
X-100925433Y110419629D02*
X-100830195Y110467248D01*
X-100830195Y110467248D02*
X-100687338Y110467248D01*
X-100687338Y110467248D02*
X-100592099Y110419629D01*
X-100592099Y110419629D02*
X-100544480Y110324391D01*
X-100544480Y110324391D02*
X-100544480Y109800581D01*
X-100068290Y109800581D02*
X-100068290Y110467248D01*
X-100068290Y110800581D02*
X-100115909Y110752962D01*
X-100115909Y110752962D02*
X-100068290Y110705343D01*
X-100068290Y110705343D02*
X-100020671Y110752962D01*
X-100020671Y110752962D02*
X-100068290Y110800581D01*
X-100068290Y110800581D02*
X-100068290Y110705343D01*
X-99163529Y109848200D02*
X-99258767Y109800581D01*
X-99258767Y109800581D02*
X-99449243Y109800581D01*
X-99449243Y109800581D02*
X-99544481Y109848200D01*
X-99544481Y109848200D02*
X-99592100Y109895820D01*
X-99592100Y109895820D02*
X-99639719Y109991058D01*
X-99639719Y109991058D02*
X-99639719Y110276772D01*
X-99639719Y110276772D02*
X-99592100Y110372010D01*
X-99592100Y110372010D02*
X-99544481Y110419629D01*
X-99544481Y110419629D02*
X-99449243Y110467248D01*
X-99449243Y110467248D02*
X-99258767Y110467248D01*
X-99258767Y110467248D02*
X-99163529Y110419629D01*
X-98782576Y109848200D02*
X-98639719Y109800581D01*
X-98639719Y109800581D02*
X-98401624Y109800581D01*
X-98401624Y109800581D02*
X-98306386Y109848200D01*
X-98306386Y109848200D02*
X-98258767Y109895820D01*
X-98258767Y109895820D02*
X-98211148Y109991058D01*
X-98211148Y109991058D02*
X-98211148Y110086296D01*
X-98211148Y110086296D02*
X-98258767Y110181534D01*
X-98258767Y110181534D02*
X-98306386Y110229153D01*
X-98306386Y110229153D02*
X-98401624Y110276772D01*
X-98401624Y110276772D02*
X-98592100Y110324391D01*
X-98592100Y110324391D02*
X-98687338Y110372010D01*
X-98687338Y110372010D02*
X-98734957Y110419629D01*
X-98734957Y110419629D02*
X-98782576Y110514867D01*
X-98782576Y110514867D02*
X-98782576Y110610105D01*
X-98782576Y110610105D02*
X-98734957Y110705343D01*
X-98734957Y110705343D02*
X-98687338Y110752962D01*
X-98687338Y110752962D02*
X-98592100Y110800581D01*
X-98592100Y110800581D02*
X-98354005Y110800581D01*
X-98354005Y110800581D02*
X-98211148Y110752962D01*
X-97354005Y109800581D02*
X-97354005Y110324391D01*
X-97354005Y110324391D02*
X-97401624Y110419629D01*
X-97401624Y110419629D02*
X-97496862Y110467248D01*
X-97496862Y110467248D02*
X-97687338Y110467248D01*
X-97687338Y110467248D02*
X-97782576Y110419629D01*
X-97354005Y109848200D02*
X-97449243Y109800581D01*
X-97449243Y109800581D02*
X-97687338Y109800581D01*
X-97687338Y109800581D02*
X-97782576Y109848200D01*
X-97782576Y109848200D02*
X-97830195Y109943439D01*
X-97830195Y109943439D02*
X-97830195Y110038677D01*
X-97830195Y110038677D02*
X-97782576Y110133915D01*
X-97782576Y110133915D02*
X-97687338Y110181534D01*
X-97687338Y110181534D02*
X-97449243Y110181534D01*
X-97449243Y110181534D02*
X-97354005Y110229153D01*
X-96877814Y109800581D02*
X-96877814Y110467248D01*
X-96877814Y110800581D02*
X-96925433Y110752962D01*
X-96925433Y110752962D02*
X-96877814Y110705343D01*
X-96877814Y110705343D02*
X-96830195Y110752962D01*
X-96830195Y110752962D02*
X-96877814Y110800581D01*
X-96877814Y110800581D02*
X-96877814Y110705343D01*
X-96258767Y109800581D02*
X-96354005Y109848200D01*
X-96354005Y109848200D02*
X-96401624Y109943439D01*
X-96401624Y109943439D02*
X-96401624Y110800581D01*
X-93687337Y110467248D02*
X-93449242Y109800581D01*
X-93449242Y109800581D02*
X-93211147Y110467248D01*
X-92830194Y110181534D02*
X-92068289Y110181534D01*
X-91401623Y110800581D02*
X-91306385Y110800581D01*
X-91306385Y110800581D02*
X-91211147Y110752962D01*
X-91211147Y110752962D02*
X-91163528Y110705343D01*
X-91163528Y110705343D02*
X-91115909Y110610105D01*
X-91115909Y110610105D02*
X-91068290Y110419629D01*
X-91068290Y110419629D02*
X-91068290Y110181534D01*
X-91068290Y110181534D02*
X-91115909Y109991058D01*
X-91115909Y109991058D02*
X-91163528Y109895820D01*
X-91163528Y109895820D02*
X-91211147Y109848200D01*
X-91211147Y109848200D02*
X-91306385Y109800581D01*
X-91306385Y109800581D02*
X-91401623Y109800581D01*
X-91401623Y109800581D02*
X-91496861Y109848200D01*
X-91496861Y109848200D02*
X-91544480Y109895820D01*
X-91544480Y109895820D02*
X-91592099Y109991058D01*
X-91592099Y109991058D02*
X-91639718Y110181534D01*
X-91639718Y110181534D02*
X-91639718Y110419629D01*
X-91639718Y110419629D02*
X-91592099Y110610105D01*
X-91592099Y110610105D02*
X-91544480Y110705343D01*
X-91544480Y110705343D02*
X-91496861Y110752962D01*
X-91496861Y110752962D02*
X-91401623Y110800581D01*
X-90687337Y110705343D02*
X-90639718Y110752962D01*
X-90639718Y110752962D02*
X-90544480Y110800581D01*
X-90544480Y110800581D02*
X-90306385Y110800581D01*
X-90306385Y110800581D02*
X-90211147Y110752962D01*
X-90211147Y110752962D02*
X-90163528Y110705343D01*
X-90163528Y110705343D02*
X-90115909Y110610105D01*
X-90115909Y110610105D02*
X-90115909Y110514867D01*
X-90115909Y110514867D02*
X-90163528Y110372010D01*
X-90163528Y110372010D02*
X-90734956Y109800581D01*
X-90734956Y109800581D02*
X-90115909Y109800581D01*
X-103544481Y108275820D02*
X-103592100Y108228200D01*
X-103592100Y108228200D02*
X-103734957Y108180581D01*
X-103734957Y108180581D02*
X-103830195Y108180581D01*
X-103830195Y108180581D02*
X-103973052Y108228200D01*
X-103973052Y108228200D02*
X-104068290Y108323439D01*
X-104068290Y108323439D02*
X-104115909Y108418677D01*
X-104115909Y108418677D02*
X-104163528Y108609153D01*
X-104163528Y108609153D02*
X-104163528Y108752010D01*
X-104163528Y108752010D02*
X-104115909Y108942486D01*
X-104115909Y108942486D02*
X-104068290Y109037724D01*
X-104068290Y109037724D02*
X-103973052Y109132962D01*
X-103973052Y109132962D02*
X-103830195Y109180581D01*
X-103830195Y109180581D02*
X-103734957Y109180581D01*
X-103734957Y109180581D02*
X-103592100Y109132962D01*
X-103592100Y109132962D02*
X-103544481Y109085343D01*
X-103115909Y108275820D02*
X-103068290Y108228200D01*
X-103068290Y108228200D02*
X-103115909Y108180581D01*
X-103115909Y108180581D02*
X-103163528Y108228200D01*
X-103163528Y108228200D02*
X-103115909Y108275820D01*
X-103115909Y108275820D02*
X-103115909Y108180581D01*
X-102306386Y108704391D02*
X-102639719Y108704391D01*
X-102639719Y108180581D02*
X-102639719Y109180581D01*
X-102639719Y109180581D02*
X-102163529Y109180581D01*
X-101782576Y108180581D02*
X-101782576Y108847248D01*
X-101782576Y108656772D02*
X-101734957Y108752010D01*
X-101734957Y108752010D02*
X-101687338Y108799629D01*
X-101687338Y108799629D02*
X-101592100Y108847248D01*
X-101592100Y108847248D02*
X-101496862Y108847248D01*
X-101020671Y108180581D02*
X-101115909Y108228200D01*
X-101115909Y108228200D02*
X-101163528Y108275820D01*
X-101163528Y108275820D02*
X-101211147Y108371058D01*
X-101211147Y108371058D02*
X-101211147Y108656772D01*
X-101211147Y108656772D02*
X-101163528Y108752010D01*
X-101163528Y108752010D02*
X-101115909Y108799629D01*
X-101115909Y108799629D02*
X-101020671Y108847248D01*
X-101020671Y108847248D02*
X-100877814Y108847248D01*
X-100877814Y108847248D02*
X-100782576Y108799629D01*
X-100782576Y108799629D02*
X-100734957Y108752010D01*
X-100734957Y108752010D02*
X-100687338Y108656772D01*
X-100687338Y108656772D02*
X-100687338Y108371058D01*
X-100687338Y108371058D02*
X-100734957Y108275820D01*
X-100734957Y108275820D02*
X-100782576Y108228200D01*
X-100782576Y108228200D02*
X-100877814Y108180581D01*
X-100877814Y108180581D02*
X-101020671Y108180581D01*
X-100258766Y108180581D02*
X-100258766Y108847248D01*
X-100258766Y108752010D02*
X-100211147Y108799629D01*
X-100211147Y108799629D02*
X-100115909Y108847248D01*
X-100115909Y108847248D02*
X-99973052Y108847248D01*
X-99973052Y108847248D02*
X-99877814Y108799629D01*
X-99877814Y108799629D02*
X-99830195Y108704391D01*
X-99830195Y108704391D02*
X-99830195Y108180581D01*
X-99830195Y108704391D02*
X-99782576Y108799629D01*
X-99782576Y108799629D02*
X-99687338Y108847248D01*
X-99687338Y108847248D02*
X-99544481Y108847248D01*
X-99544481Y108847248D02*
X-99449242Y108799629D01*
X-99449242Y108799629D02*
X-99401623Y108704391D01*
X-99401623Y108704391D02*
X-99401623Y108180581D01*
X-98544481Y108228200D02*
X-98639719Y108180581D01*
X-98639719Y108180581D02*
X-98830195Y108180581D01*
X-98830195Y108180581D02*
X-98925433Y108228200D01*
X-98925433Y108228200D02*
X-98973052Y108323439D01*
X-98973052Y108323439D02*
X-98973052Y108704391D01*
X-98973052Y108704391D02*
X-98925433Y108799629D01*
X-98925433Y108799629D02*
X-98830195Y108847248D01*
X-98830195Y108847248D02*
X-98639719Y108847248D01*
X-98639719Y108847248D02*
X-98544481Y108799629D01*
X-98544481Y108799629D02*
X-98496862Y108704391D01*
X-98496862Y108704391D02*
X-98496862Y108609153D01*
X-98496862Y108609153D02*
X-98973052Y108513915D01*
X-98068290Y108847248D02*
X-98068290Y108180581D01*
X-98068290Y108752010D02*
X-98020671Y108799629D01*
X-98020671Y108799629D02*
X-97925433Y108847248D01*
X-97925433Y108847248D02*
X-97782576Y108847248D01*
X-97782576Y108847248D02*
X-97687338Y108799629D01*
X-97687338Y108799629D02*
X-97639719Y108704391D01*
X-97639719Y108704391D02*
X-97639719Y108180581D01*
X-97306385Y108847248D02*
X-96925433Y108847248D01*
X-97163528Y109180581D02*
X-97163528Y108323439D01*
X-97163528Y108323439D02*
X-97115909Y108228200D01*
X-97115909Y108228200D02*
X-97020671Y108180581D01*
X-97020671Y108180581D02*
X-96925433Y108180581D01*
X-96592099Y108180581D02*
X-96592099Y108847248D01*
X-96592099Y109180581D02*
X-96639718Y109132962D01*
X-96639718Y109132962D02*
X-96592099Y109085343D01*
X-96592099Y109085343D02*
X-96544480Y109132962D01*
X-96544480Y109132962D02*
X-96592099Y109180581D01*
X-96592099Y109180581D02*
X-96592099Y109085343D01*
X-96115909Y108847248D02*
X-96115909Y108180581D01*
X-96115909Y108752010D02*
X-96068290Y108799629D01*
X-96068290Y108799629D02*
X-95973052Y108847248D01*
X-95973052Y108847248D02*
X-95830195Y108847248D01*
X-95830195Y108847248D02*
X-95734957Y108799629D01*
X-95734957Y108799629D02*
X-95687338Y108704391D01*
X-95687338Y108704391D02*
X-95687338Y108180581D01*
X-94258766Y109180581D02*
X-94163528Y109180581D01*
X-94163528Y109180581D02*
X-94068290Y109132962D01*
X-94068290Y109132962D02*
X-94020671Y109085343D01*
X-94020671Y109085343D02*
X-93973052Y108990105D01*
X-93973052Y108990105D02*
X-93925433Y108799629D01*
X-93925433Y108799629D02*
X-93925433Y108561534D01*
X-93925433Y108561534D02*
X-93973052Y108371058D01*
X-93973052Y108371058D02*
X-94020671Y108275820D01*
X-94020671Y108275820D02*
X-94068290Y108228200D01*
X-94068290Y108228200D02*
X-94163528Y108180581D01*
X-94163528Y108180581D02*
X-94258766Y108180581D01*
X-94258766Y108180581D02*
X-94354004Y108228200D01*
X-94354004Y108228200D02*
X-94401623Y108275820D01*
X-94401623Y108275820D02*
X-94449242Y108371058D01*
X-94449242Y108371058D02*
X-94496861Y108561534D01*
X-94496861Y108561534D02*
X-94496861Y108799629D01*
X-94496861Y108799629D02*
X-94449242Y108990105D01*
X-94449242Y108990105D02*
X-94401623Y109085343D01*
X-94401623Y109085343D02*
X-94354004Y109132962D01*
X-94354004Y109132962D02*
X-94258766Y109180581D01*
X-93592099Y109180581D02*
X-92973052Y109180581D01*
X-92973052Y109180581D02*
X-93306385Y108799629D01*
X-93306385Y108799629D02*
X-93163528Y108799629D01*
X-93163528Y108799629D02*
X-93068290Y108752010D01*
X-93068290Y108752010D02*
X-93020671Y108704391D01*
X-93020671Y108704391D02*
X-92973052Y108609153D01*
X-92973052Y108609153D02*
X-92973052Y108371058D01*
X-92973052Y108371058D02*
X-93020671Y108275820D01*
X-93020671Y108275820D02*
X-93068290Y108228200D01*
X-93068290Y108228200D02*
X-93163528Y108180581D01*
X-93163528Y108180581D02*
X-93449242Y108180581D01*
X-93449242Y108180581D02*
X-93544480Y108228200D01*
X-93544480Y108228200D02*
X-93592099Y108275820D01*
X-92544480Y108561534D02*
X-91782575Y108561534D01*
X-91354004Y109085343D02*
X-91306385Y109132962D01*
X-91306385Y109132962D02*
X-91211147Y109180581D01*
X-91211147Y109180581D02*
X-90973052Y109180581D01*
X-90973052Y109180581D02*
X-90877814Y109132962D01*
X-90877814Y109132962D02*
X-90830195Y109085343D01*
X-90830195Y109085343D02*
X-90782576Y108990105D01*
X-90782576Y108990105D02*
X-90782576Y108894867D01*
X-90782576Y108894867D02*
X-90830195Y108752010D01*
X-90830195Y108752010D02*
X-91401623Y108180581D01*
X-91401623Y108180581D02*
X-90782576Y108180581D01*
X-90163528Y109180581D02*
X-90068290Y109180581D01*
X-90068290Y109180581D02*
X-89973052Y109132962D01*
X-89973052Y109132962D02*
X-89925433Y109085343D01*
X-89925433Y109085343D02*
X-89877814Y108990105D01*
X-89877814Y108990105D02*
X-89830195Y108799629D01*
X-89830195Y108799629D02*
X-89830195Y108561534D01*
X-89830195Y108561534D02*
X-89877814Y108371058D01*
X-89877814Y108371058D02*
X-89925433Y108275820D01*
X-89925433Y108275820D02*
X-89973052Y108228200D01*
X-89973052Y108228200D02*
X-90068290Y108180581D01*
X-90068290Y108180581D02*
X-90163528Y108180581D01*
X-90163528Y108180581D02*
X-90258766Y108228200D01*
X-90258766Y108228200D02*
X-90306385Y108275820D01*
X-90306385Y108275820D02*
X-90354004Y108371058D01*
X-90354004Y108371058D02*
X-90401623Y108561534D01*
X-90401623Y108561534D02*
X-90401623Y108799629D01*
X-90401623Y108799629D02*
X-90354004Y108990105D01*
X-90354004Y108990105D02*
X-90306385Y109085343D01*
X-90306385Y109085343D02*
X-90258766Y109132962D01*
X-90258766Y109132962D02*
X-90163528Y109180581D01*
X-89449242Y109085343D02*
X-89401623Y109132962D01*
X-89401623Y109132962D02*
X-89306385Y109180581D01*
X-89306385Y109180581D02*
X-89068290Y109180581D01*
X-89068290Y109180581D02*
X-88973052Y109132962D01*
X-88973052Y109132962D02*
X-88925433Y109085343D01*
X-88925433Y109085343D02*
X-88877814Y108990105D01*
X-88877814Y108990105D02*
X-88877814Y108894867D01*
X-88877814Y108894867D02*
X-88925433Y108752010D01*
X-88925433Y108752010D02*
X-89496861Y108180581D01*
X-89496861Y108180581D02*
X-88877814Y108180581D01*
X-88544480Y109180581D02*
X-87925433Y109180581D01*
X-87925433Y109180581D02*
X-88258766Y108799629D01*
X-88258766Y108799629D02*
X-88115909Y108799629D01*
X-88115909Y108799629D02*
X-88020671Y108752010D01*
X-88020671Y108752010D02*
X-87973052Y108704391D01*
X-87973052Y108704391D02*
X-87925433Y108609153D01*
X-87925433Y108609153D02*
X-87925433Y108371058D01*
X-87925433Y108371058D02*
X-87973052Y108275820D01*
X-87973052Y108275820D02*
X-88020671Y108228200D01*
X-88020671Y108228200D02*
X-88115909Y108180581D01*
X-88115909Y108180581D02*
X-88401623Y108180581D01*
X-88401623Y108180581D02*
X-88496861Y108228200D01*
X-88496861Y108228200D02*
X-88544480Y108275820D01*
X-137325124Y54322800D02*
X-137182267Y54275181D01*
X-137182267Y54275181D02*
X-136944172Y54275181D01*
X-136944172Y54275181D02*
X-136848934Y54322800D01*
X-136848934Y54322800D02*
X-136801315Y54370420D01*
X-136801315Y54370420D02*
X-136753696Y54465658D01*
X-136753696Y54465658D02*
X-136753696Y54560896D01*
X-136753696Y54560896D02*
X-136801315Y54656134D01*
X-136801315Y54656134D02*
X-136848934Y54703753D01*
X-136848934Y54703753D02*
X-136944172Y54751372D01*
X-136944172Y54751372D02*
X-137134648Y54798991D01*
X-137134648Y54798991D02*
X-137229886Y54846610D01*
X-137229886Y54846610D02*
X-137277505Y54894229D01*
X-137277505Y54894229D02*
X-137325124Y54989467D01*
X-137325124Y54989467D02*
X-137325124Y55084705D01*
X-137325124Y55084705D02*
X-137277505Y55179943D01*
X-137277505Y55179943D02*
X-137229886Y55227562D01*
X-137229886Y55227562D02*
X-137134648Y55275181D01*
X-137134648Y55275181D02*
X-136896553Y55275181D01*
X-136896553Y55275181D02*
X-136753696Y55227562D01*
X-136325124Y54275181D02*
X-136325124Y55275181D01*
X-136325124Y55275181D02*
X-135991791Y54560896D01*
X-135991791Y54560896D02*
X-135658458Y55275181D01*
X-135658458Y55275181D02*
X-135658458Y54275181D01*
X-135229886Y54560896D02*
X-134753696Y54560896D01*
X-135325124Y54275181D02*
X-134991791Y55275181D01*
X-134991791Y55275181D02*
X-134658458Y54275181D01*
D12*
X-125093128Y78510200D02*
X-124950271Y78462581D01*
X-124950271Y78462581D02*
X-124712176Y78462581D01*
X-124712176Y78462581D02*
X-124616938Y78510200D01*
X-124616938Y78510200D02*
X-124569319Y78557820D01*
X-124569319Y78557820D02*
X-124521700Y78653058D01*
X-124521700Y78653058D02*
X-124521700Y78748296D01*
X-124521700Y78748296D02*
X-124569319Y78843534D01*
X-124569319Y78843534D02*
X-124616938Y78891153D01*
X-124616938Y78891153D02*
X-124712176Y78938772D01*
X-124712176Y78938772D02*
X-124902652Y78986391D01*
X-124902652Y78986391D02*
X-124997890Y79034010D01*
X-124997890Y79034010D02*
X-125045509Y79081629D01*
X-125045509Y79081629D02*
X-125093128Y79176867D01*
X-125093128Y79176867D02*
X-125093128Y79272105D01*
X-125093128Y79272105D02*
X-125045509Y79367343D01*
X-125045509Y79367343D02*
X-124997890Y79414962D01*
X-124997890Y79414962D02*
X-124902652Y79462581D01*
X-124902652Y79462581D02*
X-124664557Y79462581D01*
X-124664557Y79462581D02*
X-124521700Y79414962D01*
X-124093128Y78462581D02*
X-124093128Y79462581D01*
X-123616938Y78462581D02*
X-123616938Y79462581D01*
X-123616938Y79462581D02*
X-123235986Y79462581D01*
X-123235986Y79462581D02*
X-123140748Y79414962D01*
X-123140748Y79414962D02*
X-123093129Y79367343D01*
X-123093129Y79367343D02*
X-123045510Y79272105D01*
X-123045510Y79272105D02*
X-123045510Y79129248D01*
X-123045510Y79129248D02*
X-123093129Y79034010D01*
X-123093129Y79034010D02*
X-123140748Y78986391D01*
X-123140748Y78986391D02*
X-123235986Y78938772D01*
X-123235986Y78938772D02*
X-123616938Y78938772D01*
X-122616938Y78462581D02*
X-122616938Y79462581D01*
X-122616938Y79462581D02*
X-122283605Y78748296D01*
X-122283605Y78748296D02*
X-121950272Y79462581D01*
X-121950272Y79462581D02*
X-121950272Y78462581D01*
D10*
X-59515477Y108112895D02*
X-59563096Y108065275D01*
X-59563096Y108065275D02*
X-59705953Y108017656D01*
X-59705953Y108017656D02*
X-59801191Y108017656D01*
X-59801191Y108017656D02*
X-59944048Y108065275D01*
X-59944048Y108065275D02*
X-60039286Y108160514D01*
X-60039286Y108160514D02*
X-60086905Y108255752D01*
X-60086905Y108255752D02*
X-60134524Y108446228D01*
X-60134524Y108446228D02*
X-60134524Y108589085D01*
X-60134524Y108589085D02*
X-60086905Y108779561D01*
X-60086905Y108779561D02*
X-60039286Y108874799D01*
X-60039286Y108874799D02*
X-59944048Y108970037D01*
X-59944048Y108970037D02*
X-59801191Y109017656D01*
X-59801191Y109017656D02*
X-59705953Y109017656D01*
X-59705953Y109017656D02*
X-59563096Y108970037D01*
X-59563096Y108970037D02*
X-59515477Y108922418D01*
X-58944048Y108017656D02*
X-59039286Y108065275D01*
X-59039286Y108065275D02*
X-59086905Y108112895D01*
X-59086905Y108112895D02*
X-59134524Y108208133D01*
X-59134524Y108208133D02*
X-59134524Y108493847D01*
X-59134524Y108493847D02*
X-59086905Y108589085D01*
X-59086905Y108589085D02*
X-59039286Y108636704D01*
X-59039286Y108636704D02*
X-58944048Y108684323D01*
X-58944048Y108684323D02*
X-58801191Y108684323D01*
X-58801191Y108684323D02*
X-58705953Y108636704D01*
X-58705953Y108636704D02*
X-58658334Y108589085D01*
X-58658334Y108589085D02*
X-58610715Y108493847D01*
X-58610715Y108493847D02*
X-58610715Y108208133D01*
X-58610715Y108208133D02*
X-58658334Y108112895D01*
X-58658334Y108112895D02*
X-58705953Y108065275D01*
X-58705953Y108065275D02*
X-58801191Y108017656D01*
X-58801191Y108017656D02*
X-58944048Y108017656D01*
X-58229762Y108065275D02*
X-58134524Y108017656D01*
X-58134524Y108017656D02*
X-57944048Y108017656D01*
X-57944048Y108017656D02*
X-57848810Y108065275D01*
X-57848810Y108065275D02*
X-57801191Y108160514D01*
X-57801191Y108160514D02*
X-57801191Y108208133D01*
X-57801191Y108208133D02*
X-57848810Y108303371D01*
X-57848810Y108303371D02*
X-57944048Y108350990D01*
X-57944048Y108350990D02*
X-58086905Y108350990D01*
X-58086905Y108350990D02*
X-58182143Y108398609D01*
X-58182143Y108398609D02*
X-58229762Y108493847D01*
X-58229762Y108493847D02*
X-58229762Y108541466D01*
X-58229762Y108541466D02*
X-58182143Y108636704D01*
X-58182143Y108636704D02*
X-58086905Y108684323D01*
X-58086905Y108684323D02*
X-57944048Y108684323D01*
X-57944048Y108684323D02*
X-57848810Y108636704D01*
X-57372619Y108017656D02*
X-57372619Y108684323D01*
X-57372619Y108589085D02*
X-57325000Y108636704D01*
X-57325000Y108636704D02*
X-57229762Y108684323D01*
X-57229762Y108684323D02*
X-57086905Y108684323D01*
X-57086905Y108684323D02*
X-56991667Y108636704D01*
X-56991667Y108636704D02*
X-56944048Y108541466D01*
X-56944048Y108541466D02*
X-56944048Y108017656D01*
X-56944048Y108541466D02*
X-56896429Y108636704D01*
X-56896429Y108636704D02*
X-56801191Y108684323D01*
X-56801191Y108684323D02*
X-56658334Y108684323D01*
X-56658334Y108684323D02*
X-56563095Y108636704D01*
X-56563095Y108636704D02*
X-56515476Y108541466D01*
X-56515476Y108541466D02*
X-56515476Y108017656D01*
X-56039286Y108017656D02*
X-56039286Y108684323D01*
X-56039286Y109017656D02*
X-56086905Y108970037D01*
X-56086905Y108970037D02*
X-56039286Y108922418D01*
X-56039286Y108922418D02*
X-55991667Y108970037D01*
X-55991667Y108970037D02*
X-56039286Y109017656D01*
X-56039286Y109017656D02*
X-56039286Y108922418D01*
X-55134525Y108065275D02*
X-55229763Y108017656D01*
X-55229763Y108017656D02*
X-55420239Y108017656D01*
X-55420239Y108017656D02*
X-55515477Y108065275D01*
X-55515477Y108065275D02*
X-55563096Y108112895D01*
X-55563096Y108112895D02*
X-55610715Y108208133D01*
X-55610715Y108208133D02*
X-55610715Y108493847D01*
X-55610715Y108493847D02*
X-55563096Y108589085D01*
X-55563096Y108589085D02*
X-55515477Y108636704D01*
X-55515477Y108636704D02*
X-55420239Y108684323D01*
X-55420239Y108684323D02*
X-55229763Y108684323D01*
X-55229763Y108684323D02*
X-55134525Y108636704D01*
X-54753572Y108065275D02*
X-54610715Y108017656D01*
X-54610715Y108017656D02*
X-54372620Y108017656D01*
X-54372620Y108017656D02*
X-54277382Y108065275D01*
X-54277382Y108065275D02*
X-54229763Y108112895D01*
X-54229763Y108112895D02*
X-54182144Y108208133D01*
X-54182144Y108208133D02*
X-54182144Y108303371D01*
X-54182144Y108303371D02*
X-54229763Y108398609D01*
X-54229763Y108398609D02*
X-54277382Y108446228D01*
X-54277382Y108446228D02*
X-54372620Y108493847D01*
X-54372620Y108493847D02*
X-54563096Y108541466D01*
X-54563096Y108541466D02*
X-54658334Y108589085D01*
X-54658334Y108589085D02*
X-54705953Y108636704D01*
X-54705953Y108636704D02*
X-54753572Y108731942D01*
X-54753572Y108731942D02*
X-54753572Y108827180D01*
X-54753572Y108827180D02*
X-54705953Y108922418D01*
X-54705953Y108922418D02*
X-54658334Y108970037D01*
X-54658334Y108970037D02*
X-54563096Y109017656D01*
X-54563096Y109017656D02*
X-54325001Y109017656D01*
X-54325001Y109017656D02*
X-54182144Y108970037D01*
X-53325001Y108017656D02*
X-53325001Y108541466D01*
X-53325001Y108541466D02*
X-53372620Y108636704D01*
X-53372620Y108636704D02*
X-53467858Y108684323D01*
X-53467858Y108684323D02*
X-53658334Y108684323D01*
X-53658334Y108684323D02*
X-53753572Y108636704D01*
X-53325001Y108065275D02*
X-53420239Y108017656D01*
X-53420239Y108017656D02*
X-53658334Y108017656D01*
X-53658334Y108017656D02*
X-53753572Y108065275D01*
X-53753572Y108065275D02*
X-53801191Y108160514D01*
X-53801191Y108160514D02*
X-53801191Y108255752D01*
X-53801191Y108255752D02*
X-53753572Y108350990D01*
X-53753572Y108350990D02*
X-53658334Y108398609D01*
X-53658334Y108398609D02*
X-53420239Y108398609D01*
X-53420239Y108398609D02*
X-53325001Y108446228D01*
X-52848810Y108017656D02*
X-52848810Y108684323D01*
X-52848810Y109017656D02*
X-52896429Y108970037D01*
X-52896429Y108970037D02*
X-52848810Y108922418D01*
X-52848810Y108922418D02*
X-52801191Y108970037D01*
X-52801191Y108970037D02*
X-52848810Y109017656D01*
X-52848810Y109017656D02*
X-52848810Y108922418D01*
X-52229763Y108017656D02*
X-52325001Y108065275D01*
X-52325001Y108065275D02*
X-52372620Y108160514D01*
X-52372620Y108160514D02*
X-52372620Y109017656D01*
X-49658333Y108684323D02*
X-49420238Y108017656D01*
X-49420238Y108017656D02*
X-49182143Y108684323D01*
X-48801190Y108398609D02*
X-48039285Y108398609D01*
X-47372619Y109017656D02*
X-47277381Y109017656D01*
X-47277381Y109017656D02*
X-47182143Y108970037D01*
X-47182143Y108970037D02*
X-47134524Y108922418D01*
X-47134524Y108922418D02*
X-47086905Y108827180D01*
X-47086905Y108827180D02*
X-47039286Y108636704D01*
X-47039286Y108636704D02*
X-47039286Y108398609D01*
X-47039286Y108398609D02*
X-47086905Y108208133D01*
X-47086905Y108208133D02*
X-47134524Y108112895D01*
X-47134524Y108112895D02*
X-47182143Y108065275D01*
X-47182143Y108065275D02*
X-47277381Y108017656D01*
X-47277381Y108017656D02*
X-47372619Y108017656D01*
X-47372619Y108017656D02*
X-47467857Y108065275D01*
X-47467857Y108065275D02*
X-47515476Y108112895D01*
X-47515476Y108112895D02*
X-47563095Y108208133D01*
X-47563095Y108208133D02*
X-47610714Y108398609D01*
X-47610714Y108398609D02*
X-47610714Y108636704D01*
X-47610714Y108636704D02*
X-47563095Y108827180D01*
X-47563095Y108827180D02*
X-47515476Y108922418D01*
X-47515476Y108922418D02*
X-47467857Y108970037D01*
X-47467857Y108970037D02*
X-47372619Y109017656D01*
X-46658333Y108922418D02*
X-46610714Y108970037D01*
X-46610714Y108970037D02*
X-46515476Y109017656D01*
X-46515476Y109017656D02*
X-46277381Y109017656D01*
X-46277381Y109017656D02*
X-46182143Y108970037D01*
X-46182143Y108970037D02*
X-46134524Y108922418D01*
X-46134524Y108922418D02*
X-46086905Y108827180D01*
X-46086905Y108827180D02*
X-46086905Y108731942D01*
X-46086905Y108731942D02*
X-46134524Y108589085D01*
X-46134524Y108589085D02*
X-46705952Y108017656D01*
X-46705952Y108017656D02*
X-46086905Y108017656D01*
X-59515477Y106492895D02*
X-59563096Y106445275D01*
X-59563096Y106445275D02*
X-59705953Y106397656D01*
X-59705953Y106397656D02*
X-59801191Y106397656D01*
X-59801191Y106397656D02*
X-59944048Y106445275D01*
X-59944048Y106445275D02*
X-60039286Y106540514D01*
X-60039286Y106540514D02*
X-60086905Y106635752D01*
X-60086905Y106635752D02*
X-60134524Y106826228D01*
X-60134524Y106826228D02*
X-60134524Y106969085D01*
X-60134524Y106969085D02*
X-60086905Y107159561D01*
X-60086905Y107159561D02*
X-60039286Y107254799D01*
X-60039286Y107254799D02*
X-59944048Y107350037D01*
X-59944048Y107350037D02*
X-59801191Y107397656D01*
X-59801191Y107397656D02*
X-59705953Y107397656D01*
X-59705953Y107397656D02*
X-59563096Y107350037D01*
X-59563096Y107350037D02*
X-59515477Y107302418D01*
X-59086905Y106492895D02*
X-59039286Y106445275D01*
X-59039286Y106445275D02*
X-59086905Y106397656D01*
X-59086905Y106397656D02*
X-59134524Y106445275D01*
X-59134524Y106445275D02*
X-59086905Y106492895D01*
X-59086905Y106492895D02*
X-59086905Y106397656D01*
X-58277382Y106921466D02*
X-58610715Y106921466D01*
X-58610715Y106397656D02*
X-58610715Y107397656D01*
X-58610715Y107397656D02*
X-58134525Y107397656D01*
X-57753572Y106397656D02*
X-57753572Y107064323D01*
X-57753572Y106873847D02*
X-57705953Y106969085D01*
X-57705953Y106969085D02*
X-57658334Y107016704D01*
X-57658334Y107016704D02*
X-57563096Y107064323D01*
X-57563096Y107064323D02*
X-57467858Y107064323D01*
X-56991667Y106397656D02*
X-57086905Y106445275D01*
X-57086905Y106445275D02*
X-57134524Y106492895D01*
X-57134524Y106492895D02*
X-57182143Y106588133D01*
X-57182143Y106588133D02*
X-57182143Y106873847D01*
X-57182143Y106873847D02*
X-57134524Y106969085D01*
X-57134524Y106969085D02*
X-57086905Y107016704D01*
X-57086905Y107016704D02*
X-56991667Y107064323D01*
X-56991667Y107064323D02*
X-56848810Y107064323D01*
X-56848810Y107064323D02*
X-56753572Y107016704D01*
X-56753572Y107016704D02*
X-56705953Y106969085D01*
X-56705953Y106969085D02*
X-56658334Y106873847D01*
X-56658334Y106873847D02*
X-56658334Y106588133D01*
X-56658334Y106588133D02*
X-56705953Y106492895D01*
X-56705953Y106492895D02*
X-56753572Y106445275D01*
X-56753572Y106445275D02*
X-56848810Y106397656D01*
X-56848810Y106397656D02*
X-56991667Y106397656D01*
X-56229762Y106397656D02*
X-56229762Y107064323D01*
X-56229762Y106969085D02*
X-56182143Y107016704D01*
X-56182143Y107016704D02*
X-56086905Y107064323D01*
X-56086905Y107064323D02*
X-55944048Y107064323D01*
X-55944048Y107064323D02*
X-55848810Y107016704D01*
X-55848810Y107016704D02*
X-55801191Y106921466D01*
X-55801191Y106921466D02*
X-55801191Y106397656D01*
X-55801191Y106921466D02*
X-55753572Y107016704D01*
X-55753572Y107016704D02*
X-55658334Y107064323D01*
X-55658334Y107064323D02*
X-55515477Y107064323D01*
X-55515477Y107064323D02*
X-55420238Y107016704D01*
X-55420238Y107016704D02*
X-55372619Y106921466D01*
X-55372619Y106921466D02*
X-55372619Y106397656D01*
X-54515477Y106445275D02*
X-54610715Y106397656D01*
X-54610715Y106397656D02*
X-54801191Y106397656D01*
X-54801191Y106397656D02*
X-54896429Y106445275D01*
X-54896429Y106445275D02*
X-54944048Y106540514D01*
X-54944048Y106540514D02*
X-54944048Y106921466D01*
X-54944048Y106921466D02*
X-54896429Y107016704D01*
X-54896429Y107016704D02*
X-54801191Y107064323D01*
X-54801191Y107064323D02*
X-54610715Y107064323D01*
X-54610715Y107064323D02*
X-54515477Y107016704D01*
X-54515477Y107016704D02*
X-54467858Y106921466D01*
X-54467858Y106921466D02*
X-54467858Y106826228D01*
X-54467858Y106826228D02*
X-54944048Y106730990D01*
X-54039286Y107064323D02*
X-54039286Y106397656D01*
X-54039286Y106969085D02*
X-53991667Y107016704D01*
X-53991667Y107016704D02*
X-53896429Y107064323D01*
X-53896429Y107064323D02*
X-53753572Y107064323D01*
X-53753572Y107064323D02*
X-53658334Y107016704D01*
X-53658334Y107016704D02*
X-53610715Y106921466D01*
X-53610715Y106921466D02*
X-53610715Y106397656D01*
X-53277381Y107064323D02*
X-52896429Y107064323D01*
X-53134524Y107397656D02*
X-53134524Y106540514D01*
X-53134524Y106540514D02*
X-53086905Y106445275D01*
X-53086905Y106445275D02*
X-52991667Y106397656D01*
X-52991667Y106397656D02*
X-52896429Y106397656D01*
X-52563095Y106397656D02*
X-52563095Y107064323D01*
X-52563095Y107397656D02*
X-52610714Y107350037D01*
X-52610714Y107350037D02*
X-52563095Y107302418D01*
X-52563095Y107302418D02*
X-52515476Y107350037D01*
X-52515476Y107350037D02*
X-52563095Y107397656D01*
X-52563095Y107397656D02*
X-52563095Y107302418D01*
X-52086905Y107064323D02*
X-52086905Y106397656D01*
X-52086905Y106969085D02*
X-52039286Y107016704D01*
X-52039286Y107016704D02*
X-51944048Y107064323D01*
X-51944048Y107064323D02*
X-51801191Y107064323D01*
X-51801191Y107064323D02*
X-51705953Y107016704D01*
X-51705953Y107016704D02*
X-51658334Y106921466D01*
X-51658334Y106921466D02*
X-51658334Y106397656D01*
X-50229762Y107397656D02*
X-50134524Y107397656D01*
X-50134524Y107397656D02*
X-50039286Y107350037D01*
X-50039286Y107350037D02*
X-49991667Y107302418D01*
X-49991667Y107302418D02*
X-49944048Y107207180D01*
X-49944048Y107207180D02*
X-49896429Y107016704D01*
X-49896429Y107016704D02*
X-49896429Y106778609D01*
X-49896429Y106778609D02*
X-49944048Y106588133D01*
X-49944048Y106588133D02*
X-49991667Y106492895D01*
X-49991667Y106492895D02*
X-50039286Y106445275D01*
X-50039286Y106445275D02*
X-50134524Y106397656D01*
X-50134524Y106397656D02*
X-50229762Y106397656D01*
X-50229762Y106397656D02*
X-50325000Y106445275D01*
X-50325000Y106445275D02*
X-50372619Y106492895D01*
X-50372619Y106492895D02*
X-50420238Y106588133D01*
X-50420238Y106588133D02*
X-50467857Y106778609D01*
X-50467857Y106778609D02*
X-50467857Y107016704D01*
X-50467857Y107016704D02*
X-50420238Y107207180D01*
X-50420238Y107207180D02*
X-50372619Y107302418D01*
X-50372619Y107302418D02*
X-50325000Y107350037D01*
X-50325000Y107350037D02*
X-50229762Y107397656D01*
X-49563095Y107397656D02*
X-48944048Y107397656D01*
X-48944048Y107397656D02*
X-49277381Y107016704D01*
X-49277381Y107016704D02*
X-49134524Y107016704D01*
X-49134524Y107016704D02*
X-49039286Y106969085D01*
X-49039286Y106969085D02*
X-48991667Y106921466D01*
X-48991667Y106921466D02*
X-48944048Y106826228D01*
X-48944048Y106826228D02*
X-48944048Y106588133D01*
X-48944048Y106588133D02*
X-48991667Y106492895D01*
X-48991667Y106492895D02*
X-49039286Y106445275D01*
X-49039286Y106445275D02*
X-49134524Y106397656D01*
X-49134524Y106397656D02*
X-49420238Y106397656D01*
X-49420238Y106397656D02*
X-49515476Y106445275D01*
X-49515476Y106445275D02*
X-49563095Y106492895D01*
X-48515476Y106778609D02*
X-47753571Y106778609D01*
X-47325000Y107302418D02*
X-47277381Y107350037D01*
X-47277381Y107350037D02*
X-47182143Y107397656D01*
X-47182143Y107397656D02*
X-46944048Y107397656D01*
X-46944048Y107397656D02*
X-46848810Y107350037D01*
X-46848810Y107350037D02*
X-46801191Y107302418D01*
X-46801191Y107302418D02*
X-46753572Y107207180D01*
X-46753572Y107207180D02*
X-46753572Y107111942D01*
X-46753572Y107111942D02*
X-46801191Y106969085D01*
X-46801191Y106969085D02*
X-47372619Y106397656D01*
X-47372619Y106397656D02*
X-46753572Y106397656D01*
X-46134524Y107397656D02*
X-46039286Y107397656D01*
X-46039286Y107397656D02*
X-45944048Y107350037D01*
X-45944048Y107350037D02*
X-45896429Y107302418D01*
X-45896429Y107302418D02*
X-45848810Y107207180D01*
X-45848810Y107207180D02*
X-45801191Y107016704D01*
X-45801191Y107016704D02*
X-45801191Y106778609D01*
X-45801191Y106778609D02*
X-45848810Y106588133D01*
X-45848810Y106588133D02*
X-45896429Y106492895D01*
X-45896429Y106492895D02*
X-45944048Y106445275D01*
X-45944048Y106445275D02*
X-46039286Y106397656D01*
X-46039286Y106397656D02*
X-46134524Y106397656D01*
X-46134524Y106397656D02*
X-46229762Y106445275D01*
X-46229762Y106445275D02*
X-46277381Y106492895D01*
X-46277381Y106492895D02*
X-46325000Y106588133D01*
X-46325000Y106588133D02*
X-46372619Y106778609D01*
X-46372619Y106778609D02*
X-46372619Y107016704D01*
X-46372619Y107016704D02*
X-46325000Y107207180D01*
X-46325000Y107207180D02*
X-46277381Y107302418D01*
X-46277381Y107302418D02*
X-46229762Y107350037D01*
X-46229762Y107350037D02*
X-46134524Y107397656D01*
X-45420238Y107302418D02*
X-45372619Y107350037D01*
X-45372619Y107350037D02*
X-45277381Y107397656D01*
X-45277381Y107397656D02*
X-45039286Y107397656D01*
X-45039286Y107397656D02*
X-44944048Y107350037D01*
X-44944048Y107350037D02*
X-44896429Y107302418D01*
X-44896429Y107302418D02*
X-44848810Y107207180D01*
X-44848810Y107207180D02*
X-44848810Y107111942D01*
X-44848810Y107111942D02*
X-44896429Y106969085D01*
X-44896429Y106969085D02*
X-45467857Y106397656D01*
X-45467857Y106397656D02*
X-44848810Y106397656D01*
X-44515476Y107397656D02*
X-43896429Y107397656D01*
X-43896429Y107397656D02*
X-44229762Y107016704D01*
X-44229762Y107016704D02*
X-44086905Y107016704D01*
X-44086905Y107016704D02*
X-43991667Y106969085D01*
X-43991667Y106969085D02*
X-43944048Y106921466D01*
X-43944048Y106921466D02*
X-43896429Y106826228D01*
X-43896429Y106826228D02*
X-43896429Y106588133D01*
X-43896429Y106588133D02*
X-43944048Y106492895D01*
X-43944048Y106492895D02*
X-43991667Y106445275D01*
X-43991667Y106445275D02*
X-44086905Y106397656D01*
X-44086905Y106397656D02*
X-44372619Y106397656D01*
X-44372619Y106397656D02*
X-44467857Y106445275D01*
X-44467857Y106445275D02*
X-44515476Y106492895D01*
D12*
X-128971705Y87066581D02*
X-128971705Y88066581D01*
X-128971705Y87590391D02*
X-128400277Y87590391D01*
X-128400277Y87066581D02*
X-128400277Y88066581D01*
X-128066943Y88066581D02*
X-127733610Y87066581D01*
X-127733610Y87066581D02*
X-127400277Y88066581D01*
D10*
X-107596681Y40825981D02*
X-107930014Y41302172D01*
X-108168109Y40825981D02*
X-108168109Y41825981D01*
X-108168109Y41825981D02*
X-107787157Y41825981D01*
X-107787157Y41825981D02*
X-107691919Y41778362D01*
X-107691919Y41778362D02*
X-107644300Y41730743D01*
X-107644300Y41730743D02*
X-107596681Y41635505D01*
X-107596681Y41635505D02*
X-107596681Y41492648D01*
X-107596681Y41492648D02*
X-107644300Y41397410D01*
X-107644300Y41397410D02*
X-107691919Y41349791D01*
X-107691919Y41349791D02*
X-107787157Y41302172D01*
X-107787157Y41302172D02*
X-108168109Y41302172D01*
X-106787157Y40873600D02*
X-106882395Y40825981D01*
X-106882395Y40825981D02*
X-107072871Y40825981D01*
X-107072871Y40825981D02*
X-107168109Y40873600D01*
X-107168109Y40873600D02*
X-107215728Y40968839D01*
X-107215728Y40968839D02*
X-107215728Y41349791D01*
X-107215728Y41349791D02*
X-107168109Y41445029D01*
X-107168109Y41445029D02*
X-107072871Y41492648D01*
X-107072871Y41492648D02*
X-106882395Y41492648D01*
X-106882395Y41492648D02*
X-106787157Y41445029D01*
X-106787157Y41445029D02*
X-106739538Y41349791D01*
X-106739538Y41349791D02*
X-106739538Y41254553D01*
X-106739538Y41254553D02*
X-107215728Y41159315D01*
X-105882395Y41492648D02*
X-105882395Y40683124D01*
X-105882395Y40683124D02*
X-105930014Y40587886D01*
X-105930014Y40587886D02*
X-105977633Y40540267D01*
X-105977633Y40540267D02*
X-106072871Y40492648D01*
X-106072871Y40492648D02*
X-106215728Y40492648D01*
X-106215728Y40492648D02*
X-106310966Y40540267D01*
X-105882395Y40873600D02*
X-105977633Y40825981D01*
X-105977633Y40825981D02*
X-106168109Y40825981D01*
X-106168109Y40825981D02*
X-106263347Y40873600D01*
X-106263347Y40873600D02*
X-106310966Y40921220D01*
X-106310966Y40921220D02*
X-106358585Y41016458D01*
X-106358585Y41016458D02*
X-106358585Y41302172D01*
X-106358585Y41302172D02*
X-106310966Y41397410D01*
X-106310966Y41397410D02*
X-106263347Y41445029D01*
X-106263347Y41445029D02*
X-106168109Y41492648D01*
X-106168109Y41492648D02*
X-105977633Y41492648D01*
X-105977633Y41492648D02*
X-105882395Y41445029D01*
X-108310966Y40205981D02*
X-107739538Y40205981D01*
X-108025252Y39205981D02*
X-108025252Y40205981D01*
X-107406204Y39205981D02*
X-107406204Y40205981D01*
X-106977633Y39205981D02*
X-106977633Y39729791D01*
X-106977633Y39729791D02*
X-107025252Y39825029D01*
X-107025252Y39825029D02*
X-107120490Y39872648D01*
X-107120490Y39872648D02*
X-107263347Y39872648D01*
X-107263347Y39872648D02*
X-107358585Y39825029D01*
X-107358585Y39825029D02*
X-107406204Y39777410D01*
X-106501442Y39205981D02*
X-106501442Y39872648D01*
X-106501442Y39682172D02*
X-106453823Y39777410D01*
X-106453823Y39777410D02*
X-106406204Y39825029D01*
X-106406204Y39825029D02*
X-106310966Y39872648D01*
X-106310966Y39872648D02*
X-106215728Y39872648D01*
X-105501442Y39253600D02*
X-105596680Y39205981D01*
X-105596680Y39205981D02*
X-105787156Y39205981D01*
X-105787156Y39205981D02*
X-105882394Y39253600D01*
X-105882394Y39253600D02*
X-105930013Y39348839D01*
X-105930013Y39348839D02*
X-105930013Y39729791D01*
X-105930013Y39729791D02*
X-105882394Y39825029D01*
X-105882394Y39825029D02*
X-105787156Y39872648D01*
X-105787156Y39872648D02*
X-105596680Y39872648D01*
X-105596680Y39872648D02*
X-105501442Y39825029D01*
X-105501442Y39825029D02*
X-105453823Y39729791D01*
X-105453823Y39729791D02*
X-105453823Y39634553D01*
X-105453823Y39634553D02*
X-105930013Y39539315D01*
X-105072870Y39253600D02*
X-104977632Y39205981D01*
X-104977632Y39205981D02*
X-104787156Y39205981D01*
X-104787156Y39205981D02*
X-104691918Y39253600D01*
X-104691918Y39253600D02*
X-104644299Y39348839D01*
X-104644299Y39348839D02*
X-104644299Y39396458D01*
X-104644299Y39396458D02*
X-104691918Y39491696D01*
X-104691918Y39491696D02*
X-104787156Y39539315D01*
X-104787156Y39539315D02*
X-104930013Y39539315D01*
X-104930013Y39539315D02*
X-105025251Y39586934D01*
X-105025251Y39586934D02*
X-105072870Y39682172D01*
X-105072870Y39682172D02*
X-105072870Y39729791D01*
X-105072870Y39729791D02*
X-105025251Y39825029D01*
X-105025251Y39825029D02*
X-104930013Y39872648D01*
X-104930013Y39872648D02*
X-104787156Y39872648D01*
X-104787156Y39872648D02*
X-104691918Y39825029D01*
X-104215727Y39205981D02*
X-104215727Y40205981D01*
X-103787156Y39205981D02*
X-103787156Y39729791D01*
X-103787156Y39729791D02*
X-103834775Y39825029D01*
X-103834775Y39825029D02*
X-103930013Y39872648D01*
X-103930013Y39872648D02*
X-104072870Y39872648D01*
X-104072870Y39872648D02*
X-104168108Y39825029D01*
X-104168108Y39825029D02*
X-104215727Y39777410D01*
X-103168108Y39205981D02*
X-103263346Y39253600D01*
X-103263346Y39253600D02*
X-103310965Y39301220D01*
X-103310965Y39301220D02*
X-103358584Y39396458D01*
X-103358584Y39396458D02*
X-103358584Y39682172D01*
X-103358584Y39682172D02*
X-103310965Y39777410D01*
X-103310965Y39777410D02*
X-103263346Y39825029D01*
X-103263346Y39825029D02*
X-103168108Y39872648D01*
X-103168108Y39872648D02*
X-103025251Y39872648D01*
X-103025251Y39872648D02*
X-102930013Y39825029D01*
X-102930013Y39825029D02*
X-102882394Y39777410D01*
X-102882394Y39777410D02*
X-102834775Y39682172D01*
X-102834775Y39682172D02*
X-102834775Y39396458D01*
X-102834775Y39396458D02*
X-102882394Y39301220D01*
X-102882394Y39301220D02*
X-102930013Y39253600D01*
X-102930013Y39253600D02*
X-103025251Y39205981D01*
X-103025251Y39205981D02*
X-103168108Y39205981D01*
X-102263346Y39205981D02*
X-102358584Y39253600D01*
X-102358584Y39253600D02*
X-102406203Y39348839D01*
X-102406203Y39348839D02*
X-102406203Y40205981D01*
X-101453822Y39205981D02*
X-101453822Y40205981D01*
X-101453822Y39253600D02*
X-101549060Y39205981D01*
X-101549060Y39205981D02*
X-101739536Y39205981D01*
X-101739536Y39205981D02*
X-101834774Y39253600D01*
X-101834774Y39253600D02*
X-101882393Y39301220D01*
X-101882393Y39301220D02*
X-101930012Y39396458D01*
X-101930012Y39396458D02*
X-101930012Y39682172D01*
X-101930012Y39682172D02*
X-101882393Y39777410D01*
X-101882393Y39777410D02*
X-101834774Y39825029D01*
X-101834774Y39825029D02*
X-101739536Y39872648D01*
X-101739536Y39872648D02*
X-101549060Y39872648D01*
X-101549060Y39872648D02*
X-101453822Y39825029D01*
X-40728200Y99936277D02*
X-40680581Y100079134D01*
X-40680581Y100079134D02*
X-40680581Y100317229D01*
X-40680581Y100317229D02*
X-40728200Y100412467D01*
X-40728200Y100412467D02*
X-40775820Y100460086D01*
X-40775820Y100460086D02*
X-40871058Y100507705D01*
X-40871058Y100507705D02*
X-40966296Y100507705D01*
X-40966296Y100507705D02*
X-41061534Y100460086D01*
X-41061534Y100460086D02*
X-41109153Y100412467D01*
X-41109153Y100412467D02*
X-41156772Y100317229D01*
X-41156772Y100317229D02*
X-41204391Y100126753D01*
X-41204391Y100126753D02*
X-41252010Y100031515D01*
X-41252010Y100031515D02*
X-41299629Y99983896D01*
X-41299629Y99983896D02*
X-41394867Y99936277D01*
X-41394867Y99936277D02*
X-41490105Y99936277D01*
X-41490105Y99936277D02*
X-41585343Y99983896D01*
X-41585343Y99983896D02*
X-41632962Y100031515D01*
X-41632962Y100031515D02*
X-41680581Y100126753D01*
X-41680581Y100126753D02*
X-41680581Y100364848D01*
X-41680581Y100364848D02*
X-41632962Y100507705D01*
X-40728200Y101317229D02*
X-40680581Y101221991D01*
X-40680581Y101221991D02*
X-40680581Y101031515D01*
X-40680581Y101031515D02*
X-40728200Y100936277D01*
X-40728200Y100936277D02*
X-40823439Y100888658D01*
X-40823439Y100888658D02*
X-41204391Y100888658D01*
X-41204391Y100888658D02*
X-41299629Y100936277D01*
X-41299629Y100936277D02*
X-41347248Y101031515D01*
X-41347248Y101031515D02*
X-41347248Y101221991D01*
X-41347248Y101221991D02*
X-41299629Y101317229D01*
X-41299629Y101317229D02*
X-41204391Y101364848D01*
X-41204391Y101364848D02*
X-41109153Y101364848D01*
X-41109153Y101364848D02*
X-41013915Y100888658D01*
X-40680581Y101936277D02*
X-40728200Y101841039D01*
X-40728200Y101841039D02*
X-40823439Y101793420D01*
X-40823439Y101793420D02*
X-41680581Y101793420D01*
X-40728200Y102698182D02*
X-40680581Y102602944D01*
X-40680581Y102602944D02*
X-40680581Y102412468D01*
X-40680581Y102412468D02*
X-40728200Y102317230D01*
X-40728200Y102317230D02*
X-40823439Y102269611D01*
X-40823439Y102269611D02*
X-41204391Y102269611D01*
X-41204391Y102269611D02*
X-41299629Y102317230D01*
X-41299629Y102317230D02*
X-41347248Y102412468D01*
X-41347248Y102412468D02*
X-41347248Y102602944D01*
X-41347248Y102602944D02*
X-41299629Y102698182D01*
X-41299629Y102698182D02*
X-41204391Y102745801D01*
X-41204391Y102745801D02*
X-41109153Y102745801D01*
X-41109153Y102745801D02*
X-41013915Y102269611D01*
X-40728200Y103602944D02*
X-40680581Y103507706D01*
X-40680581Y103507706D02*
X-40680581Y103317230D01*
X-40680581Y103317230D02*
X-40728200Y103221992D01*
X-40728200Y103221992D02*
X-40775820Y103174373D01*
X-40775820Y103174373D02*
X-40871058Y103126754D01*
X-40871058Y103126754D02*
X-41156772Y103126754D01*
X-41156772Y103126754D02*
X-41252010Y103174373D01*
X-41252010Y103174373D02*
X-41299629Y103221992D01*
X-41299629Y103221992D02*
X-41347248Y103317230D01*
X-41347248Y103317230D02*
X-41347248Y103507706D01*
X-41347248Y103507706D02*
X-41299629Y103602944D01*
X-41347248Y103888659D02*
X-41347248Y104269611D01*
X-41680581Y104031516D02*
X-40823439Y104031516D01*
X-40823439Y104031516D02*
X-40728200Y104079135D01*
X-40728200Y104079135D02*
X-40680581Y104174373D01*
X-40680581Y104174373D02*
X-40680581Y104269611D01*
X-40060581Y99888658D02*
X-40060581Y100507705D01*
X-40060581Y100507705D02*
X-39679629Y100174372D01*
X-39679629Y100174372D02*
X-39679629Y100317229D01*
X-39679629Y100317229D02*
X-39632010Y100412467D01*
X-39632010Y100412467D02*
X-39584391Y100460086D01*
X-39584391Y100460086D02*
X-39489153Y100507705D01*
X-39489153Y100507705D02*
X-39251058Y100507705D01*
X-39251058Y100507705D02*
X-39155820Y100460086D01*
X-39155820Y100460086D02*
X-39108200Y100412467D01*
X-39108200Y100412467D02*
X-39060581Y100317229D01*
X-39060581Y100317229D02*
X-39060581Y100031515D01*
X-39060581Y100031515D02*
X-39108200Y99936277D01*
X-39108200Y99936277D02*
X-39155820Y99888658D01*
X-39155820Y100936277D02*
X-39108200Y100983896D01*
X-39108200Y100983896D02*
X-39060581Y100936277D01*
X-39060581Y100936277D02*
X-39108200Y100888658D01*
X-39108200Y100888658D02*
X-39155820Y100936277D01*
X-39155820Y100936277D02*
X-39060581Y100936277D01*
X-40060581Y101317229D02*
X-40060581Y101936276D01*
X-40060581Y101936276D02*
X-39679629Y101602943D01*
X-39679629Y101602943D02*
X-39679629Y101745800D01*
X-39679629Y101745800D02*
X-39632010Y101841038D01*
X-39632010Y101841038D02*
X-39584391Y101888657D01*
X-39584391Y101888657D02*
X-39489153Y101936276D01*
X-39489153Y101936276D02*
X-39251058Y101936276D01*
X-39251058Y101936276D02*
X-39155820Y101888657D01*
X-39155820Y101888657D02*
X-39108200Y101841038D01*
X-39108200Y101841038D02*
X-39060581Y101745800D01*
X-39060581Y101745800D02*
X-39060581Y101460086D01*
X-39060581Y101460086D02*
X-39108200Y101364848D01*
X-39108200Y101364848D02*
X-39155820Y101317229D01*
X-39727248Y102269610D02*
X-39060581Y102507705D01*
X-39060581Y102507705D02*
X-39727248Y102745800D01*
X-94857785Y23789524D02*
X-95333976Y23456191D01*
X-94857785Y23218096D02*
X-95857785Y23218096D01*
X-95857785Y23218096D02*
X-95857785Y23599048D01*
X-95857785Y23599048D02*
X-95810166Y23694286D01*
X-95810166Y23694286D02*
X-95762547Y23741905D01*
X-95762547Y23741905D02*
X-95667309Y23789524D01*
X-95667309Y23789524D02*
X-95524452Y23789524D01*
X-95524452Y23789524D02*
X-95429214Y23741905D01*
X-95429214Y23741905D02*
X-95381595Y23694286D01*
X-95381595Y23694286D02*
X-95333976Y23599048D01*
X-95333976Y23599048D02*
X-95333976Y23218096D01*
X-94905404Y24599048D02*
X-94857785Y24503810D01*
X-94857785Y24503810D02*
X-94857785Y24313334D01*
X-94857785Y24313334D02*
X-94905404Y24218096D01*
X-94905404Y24218096D02*
X-95000643Y24170477D01*
X-95000643Y24170477D02*
X-95381595Y24170477D01*
X-95381595Y24170477D02*
X-95476833Y24218096D01*
X-95476833Y24218096D02*
X-95524452Y24313334D01*
X-95524452Y24313334D02*
X-95524452Y24503810D01*
X-95524452Y24503810D02*
X-95476833Y24599048D01*
X-95476833Y24599048D02*
X-95381595Y24646667D01*
X-95381595Y24646667D02*
X-95286357Y24646667D01*
X-95286357Y24646667D02*
X-95191119Y24170477D01*
X-95524452Y25503810D02*
X-94714928Y25503810D01*
X-94714928Y25503810D02*
X-94619690Y25456191D01*
X-94619690Y25456191D02*
X-94572071Y25408572D01*
X-94572071Y25408572D02*
X-94524452Y25313334D01*
X-94524452Y25313334D02*
X-94524452Y25170477D01*
X-94524452Y25170477D02*
X-94572071Y25075239D01*
X-94905404Y25503810D02*
X-94857785Y25408572D01*
X-94857785Y25408572D02*
X-94857785Y25218096D01*
X-94857785Y25218096D02*
X-94905404Y25122858D01*
X-94905404Y25122858D02*
X-94953024Y25075239D01*
X-94953024Y25075239D02*
X-95048262Y25027620D01*
X-95048262Y25027620D02*
X-95333976Y25027620D01*
X-95333976Y25027620D02*
X-95429214Y25075239D01*
X-95429214Y25075239D02*
X-95476833Y25122858D01*
X-95476833Y25122858D02*
X-95524452Y25218096D01*
X-95524452Y25218096D02*
X-95524452Y25408572D01*
X-95524452Y25408572D02*
X-95476833Y25503810D01*
X-93333024Y23789524D02*
X-93285404Y23741905D01*
X-93285404Y23741905D02*
X-93237785Y23599048D01*
X-93237785Y23599048D02*
X-93237785Y23503810D01*
X-93237785Y23503810D02*
X-93285404Y23360953D01*
X-93285404Y23360953D02*
X-93380643Y23265715D01*
X-93380643Y23265715D02*
X-93475881Y23218096D01*
X-93475881Y23218096D02*
X-93666357Y23170477D01*
X-93666357Y23170477D02*
X-93809214Y23170477D01*
X-93809214Y23170477D02*
X-93999690Y23218096D01*
X-93999690Y23218096D02*
X-94094928Y23265715D01*
X-94094928Y23265715D02*
X-94190166Y23360953D01*
X-94190166Y23360953D02*
X-94237785Y23503810D01*
X-94237785Y23503810D02*
X-94237785Y23599048D01*
X-94237785Y23599048D02*
X-94190166Y23741905D01*
X-94190166Y23741905D02*
X-94142547Y23789524D01*
X-93237785Y24360953D02*
X-93285404Y24265715D01*
X-93285404Y24265715D02*
X-93333024Y24218096D01*
X-93333024Y24218096D02*
X-93428262Y24170477D01*
X-93428262Y24170477D02*
X-93713976Y24170477D01*
X-93713976Y24170477D02*
X-93809214Y24218096D01*
X-93809214Y24218096D02*
X-93856833Y24265715D01*
X-93856833Y24265715D02*
X-93904452Y24360953D01*
X-93904452Y24360953D02*
X-93904452Y24503810D01*
X-93904452Y24503810D02*
X-93856833Y24599048D01*
X-93856833Y24599048D02*
X-93809214Y24646667D01*
X-93809214Y24646667D02*
X-93713976Y24694286D01*
X-93713976Y24694286D02*
X-93428262Y24694286D01*
X-93428262Y24694286D02*
X-93333024Y24646667D01*
X-93333024Y24646667D02*
X-93285404Y24599048D01*
X-93285404Y24599048D02*
X-93237785Y24503810D01*
X-93237785Y24503810D02*
X-93237785Y24360953D01*
X-93285404Y25503810D02*
X-93237785Y25408572D01*
X-93237785Y25408572D02*
X-93237785Y25218096D01*
X-93237785Y25218096D02*
X-93285404Y25122858D01*
X-93285404Y25122858D02*
X-93380643Y25075239D01*
X-93380643Y25075239D02*
X-93761595Y25075239D01*
X-93761595Y25075239D02*
X-93856833Y25122858D01*
X-93856833Y25122858D02*
X-93904452Y25218096D01*
X-93904452Y25218096D02*
X-93904452Y25408572D01*
X-93904452Y25408572D02*
X-93856833Y25503810D01*
X-93856833Y25503810D02*
X-93761595Y25551429D01*
X-93761595Y25551429D02*
X-93666357Y25551429D01*
X-93666357Y25551429D02*
X-93571119Y25075239D01*
X-93904452Y25837144D02*
X-93904452Y26218096D01*
X-93237785Y25980001D02*
X-94094928Y25980001D01*
X-94094928Y25980001D02*
X-94190166Y26027620D01*
X-94190166Y26027620D02*
X-94237785Y26122858D01*
X-94237785Y26122858D02*
X-94237785Y26218096D01*
X-93333024Y27884763D02*
X-93285404Y27837144D01*
X-93285404Y27837144D02*
X-93237785Y27694287D01*
X-93237785Y27694287D02*
X-93237785Y27599049D01*
X-93237785Y27599049D02*
X-93285404Y27456192D01*
X-93285404Y27456192D02*
X-93380643Y27360954D01*
X-93380643Y27360954D02*
X-93475881Y27313335D01*
X-93475881Y27313335D02*
X-93666357Y27265716D01*
X-93666357Y27265716D02*
X-93809214Y27265716D01*
X-93809214Y27265716D02*
X-93999690Y27313335D01*
X-93999690Y27313335D02*
X-94094928Y27360954D01*
X-94094928Y27360954D02*
X-94190166Y27456192D01*
X-94190166Y27456192D02*
X-94237785Y27599049D01*
X-94237785Y27599049D02*
X-94237785Y27694287D01*
X-94237785Y27694287D02*
X-94190166Y27837144D01*
X-94190166Y27837144D02*
X-94142547Y27884763D01*
X-93237785Y28456192D02*
X-93285404Y28360954D01*
X-93285404Y28360954D02*
X-93333024Y28313335D01*
X-93333024Y28313335D02*
X-93428262Y28265716D01*
X-93428262Y28265716D02*
X-93713976Y28265716D01*
X-93713976Y28265716D02*
X-93809214Y28313335D01*
X-93809214Y28313335D02*
X-93856833Y28360954D01*
X-93856833Y28360954D02*
X-93904452Y28456192D01*
X-93904452Y28456192D02*
X-93904452Y28599049D01*
X-93904452Y28599049D02*
X-93856833Y28694287D01*
X-93856833Y28694287D02*
X-93809214Y28741906D01*
X-93809214Y28741906D02*
X-93713976Y28789525D01*
X-93713976Y28789525D02*
X-93428262Y28789525D01*
X-93428262Y28789525D02*
X-93333024Y28741906D01*
X-93333024Y28741906D02*
X-93285404Y28694287D01*
X-93285404Y28694287D02*
X-93237785Y28599049D01*
X-93237785Y28599049D02*
X-93237785Y28456192D01*
X-93237785Y29218097D02*
X-93904452Y29218097D01*
X-93809214Y29218097D02*
X-93856833Y29265716D01*
X-93856833Y29265716D02*
X-93904452Y29360954D01*
X-93904452Y29360954D02*
X-93904452Y29503811D01*
X-93904452Y29503811D02*
X-93856833Y29599049D01*
X-93856833Y29599049D02*
X-93761595Y29646668D01*
X-93761595Y29646668D02*
X-93237785Y29646668D01*
X-93761595Y29646668D02*
X-93856833Y29694287D01*
X-93856833Y29694287D02*
X-93904452Y29789525D01*
X-93904452Y29789525D02*
X-93904452Y29932382D01*
X-93904452Y29932382D02*
X-93856833Y30027621D01*
X-93856833Y30027621D02*
X-93761595Y30075240D01*
X-93761595Y30075240D02*
X-93237785Y30075240D01*
X-93904452Y30551430D02*
X-92904452Y30551430D01*
X-93856833Y30551430D02*
X-93904452Y30646668D01*
X-93904452Y30646668D02*
X-93904452Y30837144D01*
X-93904452Y30837144D02*
X-93856833Y30932382D01*
X-93856833Y30932382D02*
X-93809214Y30980001D01*
X-93809214Y30980001D02*
X-93713976Y31027620D01*
X-93713976Y31027620D02*
X-93428262Y31027620D01*
X-93428262Y31027620D02*
X-93333024Y30980001D01*
X-93333024Y30980001D02*
X-93285404Y30932382D01*
X-93285404Y30932382D02*
X-93237785Y30837144D01*
X-93237785Y30837144D02*
X-93237785Y30646668D01*
X-93237785Y30646668D02*
X-93285404Y30551430D01*
X-139575281Y33504420D02*
X-139622900Y33456800D01*
X-139622900Y33456800D02*
X-139765757Y33409181D01*
X-139765757Y33409181D02*
X-139860995Y33409181D01*
X-139860995Y33409181D02*
X-140003852Y33456800D01*
X-140003852Y33456800D02*
X-140099090Y33552039D01*
X-140099090Y33552039D02*
X-140146709Y33647277D01*
X-140146709Y33647277D02*
X-140194328Y33837753D01*
X-140194328Y33837753D02*
X-140194328Y33980610D01*
X-140194328Y33980610D02*
X-140146709Y34171086D01*
X-140146709Y34171086D02*
X-140099090Y34266324D01*
X-140099090Y34266324D02*
X-140003852Y34361562D01*
X-140003852Y34361562D02*
X-139860995Y34409181D01*
X-139860995Y34409181D02*
X-139765757Y34409181D01*
X-139765757Y34409181D02*
X-139622900Y34361562D01*
X-139622900Y34361562D02*
X-139575281Y34313943D01*
X-139003852Y33409181D02*
X-139099090Y33456800D01*
X-139099090Y33456800D02*
X-139146709Y33504420D01*
X-139146709Y33504420D02*
X-139194328Y33599658D01*
X-139194328Y33599658D02*
X-139194328Y33885372D01*
X-139194328Y33885372D02*
X-139146709Y33980610D01*
X-139146709Y33980610D02*
X-139099090Y34028229D01*
X-139099090Y34028229D02*
X-139003852Y34075848D01*
X-139003852Y34075848D02*
X-138860995Y34075848D01*
X-138860995Y34075848D02*
X-138765757Y34028229D01*
X-138765757Y34028229D02*
X-138718138Y33980610D01*
X-138718138Y33980610D02*
X-138670519Y33885372D01*
X-138670519Y33885372D02*
X-138670519Y33599658D01*
X-138670519Y33599658D02*
X-138718138Y33504420D01*
X-138718138Y33504420D02*
X-138765757Y33456800D01*
X-138765757Y33456800D02*
X-138860995Y33409181D01*
X-138860995Y33409181D02*
X-139003852Y33409181D01*
X-138289566Y33456800D02*
X-138194328Y33409181D01*
X-138194328Y33409181D02*
X-138003852Y33409181D01*
X-138003852Y33409181D02*
X-137908614Y33456800D01*
X-137908614Y33456800D02*
X-137860995Y33552039D01*
X-137860995Y33552039D02*
X-137860995Y33599658D01*
X-137860995Y33599658D02*
X-137908614Y33694896D01*
X-137908614Y33694896D02*
X-138003852Y33742515D01*
X-138003852Y33742515D02*
X-138146709Y33742515D01*
X-138146709Y33742515D02*
X-138241947Y33790134D01*
X-138241947Y33790134D02*
X-138289566Y33885372D01*
X-138289566Y33885372D02*
X-138289566Y33932991D01*
X-138289566Y33932991D02*
X-138241947Y34028229D01*
X-138241947Y34028229D02*
X-138146709Y34075848D01*
X-138146709Y34075848D02*
X-138003852Y34075848D01*
X-138003852Y34075848D02*
X-137908614Y34028229D01*
X-137432423Y33409181D02*
X-137432423Y34075848D01*
X-137432423Y33980610D02*
X-137384804Y34028229D01*
X-137384804Y34028229D02*
X-137289566Y34075848D01*
X-137289566Y34075848D02*
X-137146709Y34075848D01*
X-137146709Y34075848D02*
X-137051471Y34028229D01*
X-137051471Y34028229D02*
X-137003852Y33932991D01*
X-137003852Y33932991D02*
X-137003852Y33409181D01*
X-137003852Y33932991D02*
X-136956233Y34028229D01*
X-136956233Y34028229D02*
X-136860995Y34075848D01*
X-136860995Y34075848D02*
X-136718138Y34075848D01*
X-136718138Y34075848D02*
X-136622899Y34028229D01*
X-136622899Y34028229D02*
X-136575280Y33932991D01*
X-136575280Y33932991D02*
X-136575280Y33409181D01*
X-136099090Y33409181D02*
X-136099090Y34075848D01*
X-136099090Y34409181D02*
X-136146709Y34361562D01*
X-136146709Y34361562D02*
X-136099090Y34313943D01*
X-136099090Y34313943D02*
X-136051471Y34361562D01*
X-136051471Y34361562D02*
X-136099090Y34409181D01*
X-136099090Y34409181D02*
X-136099090Y34313943D01*
X-135194329Y33456800D02*
X-135289567Y33409181D01*
X-135289567Y33409181D02*
X-135480043Y33409181D01*
X-135480043Y33409181D02*
X-135575281Y33456800D01*
X-135575281Y33456800D02*
X-135622900Y33504420D01*
X-135622900Y33504420D02*
X-135670519Y33599658D01*
X-135670519Y33599658D02*
X-135670519Y33885372D01*
X-135670519Y33885372D02*
X-135622900Y33980610D01*
X-135622900Y33980610D02*
X-135575281Y34028229D01*
X-135575281Y34028229D02*
X-135480043Y34075848D01*
X-135480043Y34075848D02*
X-135289567Y34075848D01*
X-135289567Y34075848D02*
X-135194329Y34028229D01*
X-134813376Y33456800D02*
X-134670519Y33409181D01*
X-134670519Y33409181D02*
X-134432424Y33409181D01*
X-134432424Y33409181D02*
X-134337186Y33456800D01*
X-134337186Y33456800D02*
X-134289567Y33504420D01*
X-134289567Y33504420D02*
X-134241948Y33599658D01*
X-134241948Y33599658D02*
X-134241948Y33694896D01*
X-134241948Y33694896D02*
X-134289567Y33790134D01*
X-134289567Y33790134D02*
X-134337186Y33837753D01*
X-134337186Y33837753D02*
X-134432424Y33885372D01*
X-134432424Y33885372D02*
X-134622900Y33932991D01*
X-134622900Y33932991D02*
X-134718138Y33980610D01*
X-134718138Y33980610D02*
X-134765757Y34028229D01*
X-134765757Y34028229D02*
X-134813376Y34123467D01*
X-134813376Y34123467D02*
X-134813376Y34218705D01*
X-134813376Y34218705D02*
X-134765757Y34313943D01*
X-134765757Y34313943D02*
X-134718138Y34361562D01*
X-134718138Y34361562D02*
X-134622900Y34409181D01*
X-134622900Y34409181D02*
X-134384805Y34409181D01*
X-134384805Y34409181D02*
X-134241948Y34361562D01*
X-133384805Y33409181D02*
X-133384805Y33932991D01*
X-133384805Y33932991D02*
X-133432424Y34028229D01*
X-133432424Y34028229D02*
X-133527662Y34075848D01*
X-133527662Y34075848D02*
X-133718138Y34075848D01*
X-133718138Y34075848D02*
X-133813376Y34028229D01*
X-133384805Y33456800D02*
X-133480043Y33409181D01*
X-133480043Y33409181D02*
X-133718138Y33409181D01*
X-133718138Y33409181D02*
X-133813376Y33456800D01*
X-133813376Y33456800D02*
X-133860995Y33552039D01*
X-133860995Y33552039D02*
X-133860995Y33647277D01*
X-133860995Y33647277D02*
X-133813376Y33742515D01*
X-133813376Y33742515D02*
X-133718138Y33790134D01*
X-133718138Y33790134D02*
X-133480043Y33790134D01*
X-133480043Y33790134D02*
X-133384805Y33837753D01*
X-132908614Y33409181D02*
X-132908614Y34075848D01*
X-132908614Y34409181D02*
X-132956233Y34361562D01*
X-132956233Y34361562D02*
X-132908614Y34313943D01*
X-132908614Y34313943D02*
X-132860995Y34361562D01*
X-132860995Y34361562D02*
X-132908614Y34409181D01*
X-132908614Y34409181D02*
X-132908614Y34313943D01*
X-132289567Y33409181D02*
X-132384805Y33456800D01*
X-132384805Y33456800D02*
X-132432424Y33552039D01*
X-132432424Y33552039D02*
X-132432424Y34409181D01*
X-129718137Y34075848D02*
X-129480042Y33409181D01*
X-129480042Y33409181D02*
X-129241947Y34075848D01*
X-128860994Y33790134D02*
X-128099089Y33790134D01*
X-127432423Y34409181D02*
X-127337185Y34409181D01*
X-127337185Y34409181D02*
X-127241947Y34361562D01*
X-127241947Y34361562D02*
X-127194328Y34313943D01*
X-127194328Y34313943D02*
X-127146709Y34218705D01*
X-127146709Y34218705D02*
X-127099090Y34028229D01*
X-127099090Y34028229D02*
X-127099090Y33790134D01*
X-127099090Y33790134D02*
X-127146709Y33599658D01*
X-127146709Y33599658D02*
X-127194328Y33504420D01*
X-127194328Y33504420D02*
X-127241947Y33456800D01*
X-127241947Y33456800D02*
X-127337185Y33409181D01*
X-127337185Y33409181D02*
X-127432423Y33409181D01*
X-127432423Y33409181D02*
X-127527661Y33456800D01*
X-127527661Y33456800D02*
X-127575280Y33504420D01*
X-127575280Y33504420D02*
X-127622899Y33599658D01*
X-127622899Y33599658D02*
X-127670518Y33790134D01*
X-127670518Y33790134D02*
X-127670518Y34028229D01*
X-127670518Y34028229D02*
X-127622899Y34218705D01*
X-127622899Y34218705D02*
X-127575280Y34313943D01*
X-127575280Y34313943D02*
X-127527661Y34361562D01*
X-127527661Y34361562D02*
X-127432423Y34409181D01*
X-126718137Y34313943D02*
X-126670518Y34361562D01*
X-126670518Y34361562D02*
X-126575280Y34409181D01*
X-126575280Y34409181D02*
X-126337185Y34409181D01*
X-126337185Y34409181D02*
X-126241947Y34361562D01*
X-126241947Y34361562D02*
X-126194328Y34313943D01*
X-126194328Y34313943D02*
X-126146709Y34218705D01*
X-126146709Y34218705D02*
X-126146709Y34123467D01*
X-126146709Y34123467D02*
X-126194328Y33980610D01*
X-126194328Y33980610D02*
X-126765756Y33409181D01*
X-126765756Y33409181D02*
X-126146709Y33409181D01*
X-139575281Y31884420D02*
X-139622900Y31836800D01*
X-139622900Y31836800D02*
X-139765757Y31789181D01*
X-139765757Y31789181D02*
X-139860995Y31789181D01*
X-139860995Y31789181D02*
X-140003852Y31836800D01*
X-140003852Y31836800D02*
X-140099090Y31932039D01*
X-140099090Y31932039D02*
X-140146709Y32027277D01*
X-140146709Y32027277D02*
X-140194328Y32217753D01*
X-140194328Y32217753D02*
X-140194328Y32360610D01*
X-140194328Y32360610D02*
X-140146709Y32551086D01*
X-140146709Y32551086D02*
X-140099090Y32646324D01*
X-140099090Y32646324D02*
X-140003852Y32741562D01*
X-140003852Y32741562D02*
X-139860995Y32789181D01*
X-139860995Y32789181D02*
X-139765757Y32789181D01*
X-139765757Y32789181D02*
X-139622900Y32741562D01*
X-139622900Y32741562D02*
X-139575281Y32693943D01*
X-139146709Y31884420D02*
X-139099090Y31836800D01*
X-139099090Y31836800D02*
X-139146709Y31789181D01*
X-139146709Y31789181D02*
X-139194328Y31836800D01*
X-139194328Y31836800D02*
X-139146709Y31884420D01*
X-139146709Y31884420D02*
X-139146709Y31789181D01*
X-138337186Y32312991D02*
X-138670519Y32312991D01*
X-138670519Y31789181D02*
X-138670519Y32789181D01*
X-138670519Y32789181D02*
X-138194329Y32789181D01*
X-137813376Y31789181D02*
X-137813376Y32455848D01*
X-137813376Y32265372D02*
X-137765757Y32360610D01*
X-137765757Y32360610D02*
X-137718138Y32408229D01*
X-137718138Y32408229D02*
X-137622900Y32455848D01*
X-137622900Y32455848D02*
X-137527662Y32455848D01*
X-137051471Y31789181D02*
X-137146709Y31836800D01*
X-137146709Y31836800D02*
X-137194328Y31884420D01*
X-137194328Y31884420D02*
X-137241947Y31979658D01*
X-137241947Y31979658D02*
X-137241947Y32265372D01*
X-137241947Y32265372D02*
X-137194328Y32360610D01*
X-137194328Y32360610D02*
X-137146709Y32408229D01*
X-137146709Y32408229D02*
X-137051471Y32455848D01*
X-137051471Y32455848D02*
X-136908614Y32455848D01*
X-136908614Y32455848D02*
X-136813376Y32408229D01*
X-136813376Y32408229D02*
X-136765757Y32360610D01*
X-136765757Y32360610D02*
X-136718138Y32265372D01*
X-136718138Y32265372D02*
X-136718138Y31979658D01*
X-136718138Y31979658D02*
X-136765757Y31884420D01*
X-136765757Y31884420D02*
X-136813376Y31836800D01*
X-136813376Y31836800D02*
X-136908614Y31789181D01*
X-136908614Y31789181D02*
X-137051471Y31789181D01*
X-136289566Y31789181D02*
X-136289566Y32455848D01*
X-136289566Y32360610D02*
X-136241947Y32408229D01*
X-136241947Y32408229D02*
X-136146709Y32455848D01*
X-136146709Y32455848D02*
X-136003852Y32455848D01*
X-136003852Y32455848D02*
X-135908614Y32408229D01*
X-135908614Y32408229D02*
X-135860995Y32312991D01*
X-135860995Y32312991D02*
X-135860995Y31789181D01*
X-135860995Y32312991D02*
X-135813376Y32408229D01*
X-135813376Y32408229D02*
X-135718138Y32455848D01*
X-135718138Y32455848D02*
X-135575281Y32455848D01*
X-135575281Y32455848D02*
X-135480042Y32408229D01*
X-135480042Y32408229D02*
X-135432423Y32312991D01*
X-135432423Y32312991D02*
X-135432423Y31789181D01*
X-134575281Y31836800D02*
X-134670519Y31789181D01*
X-134670519Y31789181D02*
X-134860995Y31789181D01*
X-134860995Y31789181D02*
X-134956233Y31836800D01*
X-134956233Y31836800D02*
X-135003852Y31932039D01*
X-135003852Y31932039D02*
X-135003852Y32312991D01*
X-135003852Y32312991D02*
X-134956233Y32408229D01*
X-134956233Y32408229D02*
X-134860995Y32455848D01*
X-134860995Y32455848D02*
X-134670519Y32455848D01*
X-134670519Y32455848D02*
X-134575281Y32408229D01*
X-134575281Y32408229D02*
X-134527662Y32312991D01*
X-134527662Y32312991D02*
X-134527662Y32217753D01*
X-134527662Y32217753D02*
X-135003852Y32122515D01*
X-134099090Y32455848D02*
X-134099090Y31789181D01*
X-134099090Y32360610D02*
X-134051471Y32408229D01*
X-134051471Y32408229D02*
X-133956233Y32455848D01*
X-133956233Y32455848D02*
X-133813376Y32455848D01*
X-133813376Y32455848D02*
X-133718138Y32408229D01*
X-133718138Y32408229D02*
X-133670519Y32312991D01*
X-133670519Y32312991D02*
X-133670519Y31789181D01*
X-133337185Y32455848D02*
X-132956233Y32455848D01*
X-133194328Y32789181D02*
X-133194328Y31932039D01*
X-133194328Y31932039D02*
X-133146709Y31836800D01*
X-133146709Y31836800D02*
X-133051471Y31789181D01*
X-133051471Y31789181D02*
X-132956233Y31789181D01*
X-132622899Y31789181D02*
X-132622899Y32455848D01*
X-132622899Y32789181D02*
X-132670518Y32741562D01*
X-132670518Y32741562D02*
X-132622899Y32693943D01*
X-132622899Y32693943D02*
X-132575280Y32741562D01*
X-132575280Y32741562D02*
X-132622899Y32789181D01*
X-132622899Y32789181D02*
X-132622899Y32693943D01*
X-132146709Y32455848D02*
X-132146709Y31789181D01*
X-132146709Y32360610D02*
X-132099090Y32408229D01*
X-132099090Y32408229D02*
X-132003852Y32455848D01*
X-132003852Y32455848D02*
X-131860995Y32455848D01*
X-131860995Y32455848D02*
X-131765757Y32408229D01*
X-131765757Y32408229D02*
X-131718138Y32312991D01*
X-131718138Y32312991D02*
X-131718138Y31789181D01*
X-130289566Y32789181D02*
X-130194328Y32789181D01*
X-130194328Y32789181D02*
X-130099090Y32741562D01*
X-130099090Y32741562D02*
X-130051471Y32693943D01*
X-130051471Y32693943D02*
X-130003852Y32598705D01*
X-130003852Y32598705D02*
X-129956233Y32408229D01*
X-129956233Y32408229D02*
X-129956233Y32170134D01*
X-129956233Y32170134D02*
X-130003852Y31979658D01*
X-130003852Y31979658D02*
X-130051471Y31884420D01*
X-130051471Y31884420D02*
X-130099090Y31836800D01*
X-130099090Y31836800D02*
X-130194328Y31789181D01*
X-130194328Y31789181D02*
X-130289566Y31789181D01*
X-130289566Y31789181D02*
X-130384804Y31836800D01*
X-130384804Y31836800D02*
X-130432423Y31884420D01*
X-130432423Y31884420D02*
X-130480042Y31979658D01*
X-130480042Y31979658D02*
X-130527661Y32170134D01*
X-130527661Y32170134D02*
X-130527661Y32408229D01*
X-130527661Y32408229D02*
X-130480042Y32598705D01*
X-130480042Y32598705D02*
X-130432423Y32693943D01*
X-130432423Y32693943D02*
X-130384804Y32741562D01*
X-130384804Y32741562D02*
X-130289566Y32789181D01*
X-129622899Y32789181D02*
X-129003852Y32789181D01*
X-129003852Y32789181D02*
X-129337185Y32408229D01*
X-129337185Y32408229D02*
X-129194328Y32408229D01*
X-129194328Y32408229D02*
X-129099090Y32360610D01*
X-129099090Y32360610D02*
X-129051471Y32312991D01*
X-129051471Y32312991D02*
X-129003852Y32217753D01*
X-129003852Y32217753D02*
X-129003852Y31979658D01*
X-129003852Y31979658D02*
X-129051471Y31884420D01*
X-129051471Y31884420D02*
X-129099090Y31836800D01*
X-129099090Y31836800D02*
X-129194328Y31789181D01*
X-129194328Y31789181D02*
X-129480042Y31789181D01*
X-129480042Y31789181D02*
X-129575280Y31836800D01*
X-129575280Y31836800D02*
X-129622899Y31884420D01*
X-128575280Y32170134D02*
X-127813375Y32170134D01*
X-127384804Y32693943D02*
X-127337185Y32741562D01*
X-127337185Y32741562D02*
X-127241947Y32789181D01*
X-127241947Y32789181D02*
X-127003852Y32789181D01*
X-127003852Y32789181D02*
X-126908614Y32741562D01*
X-126908614Y32741562D02*
X-126860995Y32693943D01*
X-126860995Y32693943D02*
X-126813376Y32598705D01*
X-126813376Y32598705D02*
X-126813376Y32503467D01*
X-126813376Y32503467D02*
X-126860995Y32360610D01*
X-126860995Y32360610D02*
X-127432423Y31789181D01*
X-127432423Y31789181D02*
X-126813376Y31789181D01*
X-126194328Y32789181D02*
X-126099090Y32789181D01*
X-126099090Y32789181D02*
X-126003852Y32741562D01*
X-126003852Y32741562D02*
X-125956233Y32693943D01*
X-125956233Y32693943D02*
X-125908614Y32598705D01*
X-125908614Y32598705D02*
X-125860995Y32408229D01*
X-125860995Y32408229D02*
X-125860995Y32170134D01*
X-125860995Y32170134D02*
X-125908614Y31979658D01*
X-125908614Y31979658D02*
X-125956233Y31884420D01*
X-125956233Y31884420D02*
X-126003852Y31836800D01*
X-126003852Y31836800D02*
X-126099090Y31789181D01*
X-126099090Y31789181D02*
X-126194328Y31789181D01*
X-126194328Y31789181D02*
X-126289566Y31836800D01*
X-126289566Y31836800D02*
X-126337185Y31884420D01*
X-126337185Y31884420D02*
X-126384804Y31979658D01*
X-126384804Y31979658D02*
X-126432423Y32170134D01*
X-126432423Y32170134D02*
X-126432423Y32408229D01*
X-126432423Y32408229D02*
X-126384804Y32598705D01*
X-126384804Y32598705D02*
X-126337185Y32693943D01*
X-126337185Y32693943D02*
X-126289566Y32741562D01*
X-126289566Y32741562D02*
X-126194328Y32789181D01*
X-125480042Y32693943D02*
X-125432423Y32741562D01*
X-125432423Y32741562D02*
X-125337185Y32789181D01*
X-125337185Y32789181D02*
X-125099090Y32789181D01*
X-125099090Y32789181D02*
X-125003852Y32741562D01*
X-125003852Y32741562D02*
X-124956233Y32693943D01*
X-124956233Y32693943D02*
X-124908614Y32598705D01*
X-124908614Y32598705D02*
X-124908614Y32503467D01*
X-124908614Y32503467D02*
X-124956233Y32360610D01*
X-124956233Y32360610D02*
X-125527661Y31789181D01*
X-125527661Y31789181D02*
X-124908614Y31789181D01*
X-124575280Y32789181D02*
X-123956233Y32789181D01*
X-123956233Y32789181D02*
X-124289566Y32408229D01*
X-124289566Y32408229D02*
X-124146709Y32408229D01*
X-124146709Y32408229D02*
X-124051471Y32360610D01*
X-124051471Y32360610D02*
X-124003852Y32312991D01*
X-124003852Y32312991D02*
X-123956233Y32217753D01*
X-123956233Y32217753D02*
X-123956233Y31979658D01*
X-123956233Y31979658D02*
X-124003852Y31884420D01*
X-124003852Y31884420D02*
X-124051471Y31836800D01*
X-124051471Y31836800D02*
X-124146709Y31789181D01*
X-124146709Y31789181D02*
X-124432423Y31789181D01*
X-124432423Y31789181D02*
X-124527661Y31836800D01*
X-124527661Y31836800D02*
X-124575280Y31884420D01*
D12*
X-130810096Y84285162D02*
X-130905334Y84332781D01*
X-130905334Y84332781D02*
X-131048191Y84332781D01*
X-131048191Y84332781D02*
X-131191048Y84285162D01*
X-131191048Y84285162D02*
X-131286286Y84189924D01*
X-131286286Y84189924D02*
X-131333905Y84094686D01*
X-131333905Y84094686D02*
X-131381524Y83904210D01*
X-131381524Y83904210D02*
X-131381524Y83761353D01*
X-131381524Y83761353D02*
X-131333905Y83570877D01*
X-131333905Y83570877D02*
X-131286286Y83475639D01*
X-131286286Y83475639D02*
X-131191048Y83380400D01*
X-131191048Y83380400D02*
X-131048191Y83332781D01*
X-131048191Y83332781D02*
X-130952953Y83332781D01*
X-130952953Y83332781D02*
X-130810096Y83380400D01*
X-130810096Y83380400D02*
X-130762477Y83428020D01*
X-130762477Y83428020D02*
X-130762477Y83761353D01*
X-130762477Y83761353D02*
X-130952953Y83761353D01*
X-130333905Y83332781D02*
X-130333905Y84332781D01*
X-130333905Y84332781D02*
X-129762477Y83332781D01*
X-129762477Y83332781D02*
X-129762477Y84332781D01*
X-129286286Y83332781D02*
X-129286286Y84332781D01*
X-129286286Y84332781D02*
X-129048191Y84332781D01*
X-129048191Y84332781D02*
X-128905334Y84285162D01*
X-128905334Y84285162D02*
X-128810096Y84189924D01*
X-128810096Y84189924D02*
X-128762477Y84094686D01*
X-128762477Y84094686D02*
X-128714858Y83904210D01*
X-128714858Y83904210D02*
X-128714858Y83761353D01*
X-128714858Y83761353D02*
X-128762477Y83570877D01*
X-128762477Y83570877D02*
X-128810096Y83475639D01*
X-128810096Y83475639D02*
X-128905334Y83380400D01*
X-128905334Y83380400D02*
X-129048191Y83332781D01*
X-129048191Y83332781D02*
X-129286286Y83332781D01*
D10*
X-47779477Y11332095D02*
X-47827096Y11284475D01*
X-47827096Y11284475D02*
X-47969953Y11236856D01*
X-47969953Y11236856D02*
X-48065191Y11236856D01*
X-48065191Y11236856D02*
X-48208048Y11284475D01*
X-48208048Y11284475D02*
X-48303286Y11379714D01*
X-48303286Y11379714D02*
X-48350905Y11474952D01*
X-48350905Y11474952D02*
X-48398524Y11665428D01*
X-48398524Y11665428D02*
X-48398524Y11808285D01*
X-48398524Y11808285D02*
X-48350905Y11998761D01*
X-48350905Y11998761D02*
X-48303286Y12093999D01*
X-48303286Y12093999D02*
X-48208048Y12189237D01*
X-48208048Y12189237D02*
X-48065191Y12236856D01*
X-48065191Y12236856D02*
X-47969953Y12236856D01*
X-47969953Y12236856D02*
X-47827096Y12189237D01*
X-47827096Y12189237D02*
X-47779477Y12141618D01*
X-47208048Y11236856D02*
X-47303286Y11284475D01*
X-47303286Y11284475D02*
X-47350905Y11332095D01*
X-47350905Y11332095D02*
X-47398524Y11427333D01*
X-47398524Y11427333D02*
X-47398524Y11713047D01*
X-47398524Y11713047D02*
X-47350905Y11808285D01*
X-47350905Y11808285D02*
X-47303286Y11855904D01*
X-47303286Y11855904D02*
X-47208048Y11903523D01*
X-47208048Y11903523D02*
X-47065191Y11903523D01*
X-47065191Y11903523D02*
X-46969953Y11855904D01*
X-46969953Y11855904D02*
X-46922334Y11808285D01*
X-46922334Y11808285D02*
X-46874715Y11713047D01*
X-46874715Y11713047D02*
X-46874715Y11427333D01*
X-46874715Y11427333D02*
X-46922334Y11332095D01*
X-46922334Y11332095D02*
X-46969953Y11284475D01*
X-46969953Y11284475D02*
X-47065191Y11236856D01*
X-47065191Y11236856D02*
X-47208048Y11236856D01*
X-46493762Y11284475D02*
X-46398524Y11236856D01*
X-46398524Y11236856D02*
X-46208048Y11236856D01*
X-46208048Y11236856D02*
X-46112810Y11284475D01*
X-46112810Y11284475D02*
X-46065191Y11379714D01*
X-46065191Y11379714D02*
X-46065191Y11427333D01*
X-46065191Y11427333D02*
X-46112810Y11522571D01*
X-46112810Y11522571D02*
X-46208048Y11570190D01*
X-46208048Y11570190D02*
X-46350905Y11570190D01*
X-46350905Y11570190D02*
X-46446143Y11617809D01*
X-46446143Y11617809D02*
X-46493762Y11713047D01*
X-46493762Y11713047D02*
X-46493762Y11760666D01*
X-46493762Y11760666D02*
X-46446143Y11855904D01*
X-46446143Y11855904D02*
X-46350905Y11903523D01*
X-46350905Y11903523D02*
X-46208048Y11903523D01*
X-46208048Y11903523D02*
X-46112810Y11855904D01*
X-45636619Y11236856D02*
X-45636619Y11903523D01*
X-45636619Y11808285D02*
X-45589000Y11855904D01*
X-45589000Y11855904D02*
X-45493762Y11903523D01*
X-45493762Y11903523D02*
X-45350905Y11903523D01*
X-45350905Y11903523D02*
X-45255667Y11855904D01*
X-45255667Y11855904D02*
X-45208048Y11760666D01*
X-45208048Y11760666D02*
X-45208048Y11236856D01*
X-45208048Y11760666D02*
X-45160429Y11855904D01*
X-45160429Y11855904D02*
X-45065191Y11903523D01*
X-45065191Y11903523D02*
X-44922334Y11903523D01*
X-44922334Y11903523D02*
X-44827095Y11855904D01*
X-44827095Y11855904D02*
X-44779476Y11760666D01*
X-44779476Y11760666D02*
X-44779476Y11236856D01*
X-44303286Y11236856D02*
X-44303286Y11903523D01*
X-44303286Y12236856D02*
X-44350905Y12189237D01*
X-44350905Y12189237D02*
X-44303286Y12141618D01*
X-44303286Y12141618D02*
X-44255667Y12189237D01*
X-44255667Y12189237D02*
X-44303286Y12236856D01*
X-44303286Y12236856D02*
X-44303286Y12141618D01*
X-43398525Y11284475D02*
X-43493763Y11236856D01*
X-43493763Y11236856D02*
X-43684239Y11236856D01*
X-43684239Y11236856D02*
X-43779477Y11284475D01*
X-43779477Y11284475D02*
X-43827096Y11332095D01*
X-43827096Y11332095D02*
X-43874715Y11427333D01*
X-43874715Y11427333D02*
X-43874715Y11713047D01*
X-43874715Y11713047D02*
X-43827096Y11808285D01*
X-43827096Y11808285D02*
X-43779477Y11855904D01*
X-43779477Y11855904D02*
X-43684239Y11903523D01*
X-43684239Y11903523D02*
X-43493763Y11903523D01*
X-43493763Y11903523D02*
X-43398525Y11855904D01*
X-43017572Y11284475D02*
X-42874715Y11236856D01*
X-42874715Y11236856D02*
X-42636620Y11236856D01*
X-42636620Y11236856D02*
X-42541382Y11284475D01*
X-42541382Y11284475D02*
X-42493763Y11332095D01*
X-42493763Y11332095D02*
X-42446144Y11427333D01*
X-42446144Y11427333D02*
X-42446144Y11522571D01*
X-42446144Y11522571D02*
X-42493763Y11617809D01*
X-42493763Y11617809D02*
X-42541382Y11665428D01*
X-42541382Y11665428D02*
X-42636620Y11713047D01*
X-42636620Y11713047D02*
X-42827096Y11760666D01*
X-42827096Y11760666D02*
X-42922334Y11808285D01*
X-42922334Y11808285D02*
X-42969953Y11855904D01*
X-42969953Y11855904D02*
X-43017572Y11951142D01*
X-43017572Y11951142D02*
X-43017572Y12046380D01*
X-43017572Y12046380D02*
X-42969953Y12141618D01*
X-42969953Y12141618D02*
X-42922334Y12189237D01*
X-42922334Y12189237D02*
X-42827096Y12236856D01*
X-42827096Y12236856D02*
X-42589001Y12236856D01*
X-42589001Y12236856D02*
X-42446144Y12189237D01*
X-41589001Y11236856D02*
X-41589001Y11760666D01*
X-41589001Y11760666D02*
X-41636620Y11855904D01*
X-41636620Y11855904D02*
X-41731858Y11903523D01*
X-41731858Y11903523D02*
X-41922334Y11903523D01*
X-41922334Y11903523D02*
X-42017572Y11855904D01*
X-41589001Y11284475D02*
X-41684239Y11236856D01*
X-41684239Y11236856D02*
X-41922334Y11236856D01*
X-41922334Y11236856D02*
X-42017572Y11284475D01*
X-42017572Y11284475D02*
X-42065191Y11379714D01*
X-42065191Y11379714D02*
X-42065191Y11474952D01*
X-42065191Y11474952D02*
X-42017572Y11570190D01*
X-42017572Y11570190D02*
X-41922334Y11617809D01*
X-41922334Y11617809D02*
X-41684239Y11617809D01*
X-41684239Y11617809D02*
X-41589001Y11665428D01*
X-41112810Y11236856D02*
X-41112810Y11903523D01*
X-41112810Y12236856D02*
X-41160429Y12189237D01*
X-41160429Y12189237D02*
X-41112810Y12141618D01*
X-41112810Y12141618D02*
X-41065191Y12189237D01*
X-41065191Y12189237D02*
X-41112810Y12236856D01*
X-41112810Y12236856D02*
X-41112810Y12141618D01*
X-40493763Y11236856D02*
X-40589001Y11284475D01*
X-40589001Y11284475D02*
X-40636620Y11379714D01*
X-40636620Y11379714D02*
X-40636620Y12236856D01*
X-37922333Y11903523D02*
X-37684238Y11236856D01*
X-37684238Y11236856D02*
X-37446143Y11903523D01*
X-37065190Y11617809D02*
X-36303285Y11617809D01*
X-35636619Y12236856D02*
X-35541381Y12236856D01*
X-35541381Y12236856D02*
X-35446143Y12189237D01*
X-35446143Y12189237D02*
X-35398524Y12141618D01*
X-35398524Y12141618D02*
X-35350905Y12046380D01*
X-35350905Y12046380D02*
X-35303286Y11855904D01*
X-35303286Y11855904D02*
X-35303286Y11617809D01*
X-35303286Y11617809D02*
X-35350905Y11427333D01*
X-35350905Y11427333D02*
X-35398524Y11332095D01*
X-35398524Y11332095D02*
X-35446143Y11284475D01*
X-35446143Y11284475D02*
X-35541381Y11236856D01*
X-35541381Y11236856D02*
X-35636619Y11236856D01*
X-35636619Y11236856D02*
X-35731857Y11284475D01*
X-35731857Y11284475D02*
X-35779476Y11332095D01*
X-35779476Y11332095D02*
X-35827095Y11427333D01*
X-35827095Y11427333D02*
X-35874714Y11617809D01*
X-35874714Y11617809D02*
X-35874714Y11855904D01*
X-35874714Y11855904D02*
X-35827095Y12046380D01*
X-35827095Y12046380D02*
X-35779476Y12141618D01*
X-35779476Y12141618D02*
X-35731857Y12189237D01*
X-35731857Y12189237D02*
X-35636619Y12236856D01*
X-34922333Y12141618D02*
X-34874714Y12189237D01*
X-34874714Y12189237D02*
X-34779476Y12236856D01*
X-34779476Y12236856D02*
X-34541381Y12236856D01*
X-34541381Y12236856D02*
X-34446143Y12189237D01*
X-34446143Y12189237D02*
X-34398524Y12141618D01*
X-34398524Y12141618D02*
X-34350905Y12046380D01*
X-34350905Y12046380D02*
X-34350905Y11951142D01*
X-34350905Y11951142D02*
X-34398524Y11808285D01*
X-34398524Y11808285D02*
X-34969952Y11236856D01*
X-34969952Y11236856D02*
X-34350905Y11236856D01*
X-47779477Y9712095D02*
X-47827096Y9664475D01*
X-47827096Y9664475D02*
X-47969953Y9616856D01*
X-47969953Y9616856D02*
X-48065191Y9616856D01*
X-48065191Y9616856D02*
X-48208048Y9664475D01*
X-48208048Y9664475D02*
X-48303286Y9759714D01*
X-48303286Y9759714D02*
X-48350905Y9854952D01*
X-48350905Y9854952D02*
X-48398524Y10045428D01*
X-48398524Y10045428D02*
X-48398524Y10188285D01*
X-48398524Y10188285D02*
X-48350905Y10378761D01*
X-48350905Y10378761D02*
X-48303286Y10473999D01*
X-48303286Y10473999D02*
X-48208048Y10569237D01*
X-48208048Y10569237D02*
X-48065191Y10616856D01*
X-48065191Y10616856D02*
X-47969953Y10616856D01*
X-47969953Y10616856D02*
X-47827096Y10569237D01*
X-47827096Y10569237D02*
X-47779477Y10521618D01*
X-47350905Y9712095D02*
X-47303286Y9664475D01*
X-47303286Y9664475D02*
X-47350905Y9616856D01*
X-47350905Y9616856D02*
X-47398524Y9664475D01*
X-47398524Y9664475D02*
X-47350905Y9712095D01*
X-47350905Y9712095D02*
X-47350905Y9616856D01*
X-46541382Y10140666D02*
X-46874715Y10140666D01*
X-46874715Y9616856D02*
X-46874715Y10616856D01*
X-46874715Y10616856D02*
X-46398525Y10616856D01*
X-46017572Y9616856D02*
X-46017572Y10283523D01*
X-46017572Y10093047D02*
X-45969953Y10188285D01*
X-45969953Y10188285D02*
X-45922334Y10235904D01*
X-45922334Y10235904D02*
X-45827096Y10283523D01*
X-45827096Y10283523D02*
X-45731858Y10283523D01*
X-45255667Y9616856D02*
X-45350905Y9664475D01*
X-45350905Y9664475D02*
X-45398524Y9712095D01*
X-45398524Y9712095D02*
X-45446143Y9807333D01*
X-45446143Y9807333D02*
X-45446143Y10093047D01*
X-45446143Y10093047D02*
X-45398524Y10188285D01*
X-45398524Y10188285D02*
X-45350905Y10235904D01*
X-45350905Y10235904D02*
X-45255667Y10283523D01*
X-45255667Y10283523D02*
X-45112810Y10283523D01*
X-45112810Y10283523D02*
X-45017572Y10235904D01*
X-45017572Y10235904D02*
X-44969953Y10188285D01*
X-44969953Y10188285D02*
X-44922334Y10093047D01*
X-44922334Y10093047D02*
X-44922334Y9807333D01*
X-44922334Y9807333D02*
X-44969953Y9712095D01*
X-44969953Y9712095D02*
X-45017572Y9664475D01*
X-45017572Y9664475D02*
X-45112810Y9616856D01*
X-45112810Y9616856D02*
X-45255667Y9616856D01*
X-44493762Y9616856D02*
X-44493762Y10283523D01*
X-44493762Y10188285D02*
X-44446143Y10235904D01*
X-44446143Y10235904D02*
X-44350905Y10283523D01*
X-44350905Y10283523D02*
X-44208048Y10283523D01*
X-44208048Y10283523D02*
X-44112810Y10235904D01*
X-44112810Y10235904D02*
X-44065191Y10140666D01*
X-44065191Y10140666D02*
X-44065191Y9616856D01*
X-44065191Y10140666D02*
X-44017572Y10235904D01*
X-44017572Y10235904D02*
X-43922334Y10283523D01*
X-43922334Y10283523D02*
X-43779477Y10283523D01*
X-43779477Y10283523D02*
X-43684238Y10235904D01*
X-43684238Y10235904D02*
X-43636619Y10140666D01*
X-43636619Y10140666D02*
X-43636619Y9616856D01*
X-42779477Y9664475D02*
X-42874715Y9616856D01*
X-42874715Y9616856D02*
X-43065191Y9616856D01*
X-43065191Y9616856D02*
X-43160429Y9664475D01*
X-43160429Y9664475D02*
X-43208048Y9759714D01*
X-43208048Y9759714D02*
X-43208048Y10140666D01*
X-43208048Y10140666D02*
X-43160429Y10235904D01*
X-43160429Y10235904D02*
X-43065191Y10283523D01*
X-43065191Y10283523D02*
X-42874715Y10283523D01*
X-42874715Y10283523D02*
X-42779477Y10235904D01*
X-42779477Y10235904D02*
X-42731858Y10140666D01*
X-42731858Y10140666D02*
X-42731858Y10045428D01*
X-42731858Y10045428D02*
X-43208048Y9950190D01*
X-42303286Y10283523D02*
X-42303286Y9616856D01*
X-42303286Y10188285D02*
X-42255667Y10235904D01*
X-42255667Y10235904D02*
X-42160429Y10283523D01*
X-42160429Y10283523D02*
X-42017572Y10283523D01*
X-42017572Y10283523D02*
X-41922334Y10235904D01*
X-41922334Y10235904D02*
X-41874715Y10140666D01*
X-41874715Y10140666D02*
X-41874715Y9616856D01*
X-41541381Y10283523D02*
X-41160429Y10283523D01*
X-41398524Y10616856D02*
X-41398524Y9759714D01*
X-41398524Y9759714D02*
X-41350905Y9664475D01*
X-41350905Y9664475D02*
X-41255667Y9616856D01*
X-41255667Y9616856D02*
X-41160429Y9616856D01*
X-40827095Y9616856D02*
X-40827095Y10283523D01*
X-40827095Y10616856D02*
X-40874714Y10569237D01*
X-40874714Y10569237D02*
X-40827095Y10521618D01*
X-40827095Y10521618D02*
X-40779476Y10569237D01*
X-40779476Y10569237D02*
X-40827095Y10616856D01*
X-40827095Y10616856D02*
X-40827095Y10521618D01*
X-40350905Y10283523D02*
X-40350905Y9616856D01*
X-40350905Y10188285D02*
X-40303286Y10235904D01*
X-40303286Y10235904D02*
X-40208048Y10283523D01*
X-40208048Y10283523D02*
X-40065191Y10283523D01*
X-40065191Y10283523D02*
X-39969953Y10235904D01*
X-39969953Y10235904D02*
X-39922334Y10140666D01*
X-39922334Y10140666D02*
X-39922334Y9616856D01*
X-38493762Y10616856D02*
X-38398524Y10616856D01*
X-38398524Y10616856D02*
X-38303286Y10569237D01*
X-38303286Y10569237D02*
X-38255667Y10521618D01*
X-38255667Y10521618D02*
X-38208048Y10426380D01*
X-38208048Y10426380D02*
X-38160429Y10235904D01*
X-38160429Y10235904D02*
X-38160429Y9997809D01*
X-38160429Y9997809D02*
X-38208048Y9807333D01*
X-38208048Y9807333D02*
X-38255667Y9712095D01*
X-38255667Y9712095D02*
X-38303286Y9664475D01*
X-38303286Y9664475D02*
X-38398524Y9616856D01*
X-38398524Y9616856D02*
X-38493762Y9616856D01*
X-38493762Y9616856D02*
X-38589000Y9664475D01*
X-38589000Y9664475D02*
X-38636619Y9712095D01*
X-38636619Y9712095D02*
X-38684238Y9807333D01*
X-38684238Y9807333D02*
X-38731857Y9997809D01*
X-38731857Y9997809D02*
X-38731857Y10235904D01*
X-38731857Y10235904D02*
X-38684238Y10426380D01*
X-38684238Y10426380D02*
X-38636619Y10521618D01*
X-38636619Y10521618D02*
X-38589000Y10569237D01*
X-38589000Y10569237D02*
X-38493762Y10616856D01*
X-37827095Y10616856D02*
X-37208048Y10616856D01*
X-37208048Y10616856D02*
X-37541381Y10235904D01*
X-37541381Y10235904D02*
X-37398524Y10235904D01*
X-37398524Y10235904D02*
X-37303286Y10188285D01*
X-37303286Y10188285D02*
X-37255667Y10140666D01*
X-37255667Y10140666D02*
X-37208048Y10045428D01*
X-37208048Y10045428D02*
X-37208048Y9807333D01*
X-37208048Y9807333D02*
X-37255667Y9712095D01*
X-37255667Y9712095D02*
X-37303286Y9664475D01*
X-37303286Y9664475D02*
X-37398524Y9616856D01*
X-37398524Y9616856D02*
X-37684238Y9616856D01*
X-37684238Y9616856D02*
X-37779476Y9664475D01*
X-37779476Y9664475D02*
X-37827095Y9712095D01*
X-36779476Y9997809D02*
X-36017571Y9997809D01*
X-35589000Y10521618D02*
X-35541381Y10569237D01*
X-35541381Y10569237D02*
X-35446143Y10616856D01*
X-35446143Y10616856D02*
X-35208048Y10616856D01*
X-35208048Y10616856D02*
X-35112810Y10569237D01*
X-35112810Y10569237D02*
X-35065191Y10521618D01*
X-35065191Y10521618D02*
X-35017572Y10426380D01*
X-35017572Y10426380D02*
X-35017572Y10331142D01*
X-35017572Y10331142D02*
X-35065191Y10188285D01*
X-35065191Y10188285D02*
X-35636619Y9616856D01*
X-35636619Y9616856D02*
X-35017572Y9616856D01*
X-34398524Y10616856D02*
X-34303286Y10616856D01*
X-34303286Y10616856D02*
X-34208048Y10569237D01*
X-34208048Y10569237D02*
X-34160429Y10521618D01*
X-34160429Y10521618D02*
X-34112810Y10426380D01*
X-34112810Y10426380D02*
X-34065191Y10235904D01*
X-34065191Y10235904D02*
X-34065191Y9997809D01*
X-34065191Y9997809D02*
X-34112810Y9807333D01*
X-34112810Y9807333D02*
X-34160429Y9712095D01*
X-34160429Y9712095D02*
X-34208048Y9664475D01*
X-34208048Y9664475D02*
X-34303286Y9616856D01*
X-34303286Y9616856D02*
X-34398524Y9616856D01*
X-34398524Y9616856D02*
X-34493762Y9664475D01*
X-34493762Y9664475D02*
X-34541381Y9712095D01*
X-34541381Y9712095D02*
X-34589000Y9807333D01*
X-34589000Y9807333D02*
X-34636619Y9997809D01*
X-34636619Y9997809D02*
X-34636619Y10235904D01*
X-34636619Y10235904D02*
X-34589000Y10426380D01*
X-34589000Y10426380D02*
X-34541381Y10521618D01*
X-34541381Y10521618D02*
X-34493762Y10569237D01*
X-34493762Y10569237D02*
X-34398524Y10616856D01*
X-33684238Y10521618D02*
X-33636619Y10569237D01*
X-33636619Y10569237D02*
X-33541381Y10616856D01*
X-33541381Y10616856D02*
X-33303286Y10616856D01*
X-33303286Y10616856D02*
X-33208048Y10569237D01*
X-33208048Y10569237D02*
X-33160429Y10521618D01*
X-33160429Y10521618D02*
X-33112810Y10426380D01*
X-33112810Y10426380D02*
X-33112810Y10331142D01*
X-33112810Y10331142D02*
X-33160429Y10188285D01*
X-33160429Y10188285D02*
X-33731857Y9616856D01*
X-33731857Y9616856D02*
X-33112810Y9616856D01*
X-32779476Y10616856D02*
X-32160429Y10616856D01*
X-32160429Y10616856D02*
X-32493762Y10235904D01*
X-32493762Y10235904D02*
X-32350905Y10235904D01*
X-32350905Y10235904D02*
X-32255667Y10188285D01*
X-32255667Y10188285D02*
X-32208048Y10140666D01*
X-32208048Y10140666D02*
X-32160429Y10045428D01*
X-32160429Y10045428D02*
X-32160429Y9807333D01*
X-32160429Y9807333D02*
X-32208048Y9712095D01*
X-32208048Y9712095D02*
X-32255667Y9664475D01*
X-32255667Y9664475D02*
X-32350905Y9616856D01*
X-32350905Y9616856D02*
X-32636619Y9616856D01*
X-32636619Y9616856D02*
X-32731857Y9664475D01*
X-32731857Y9664475D02*
X-32779476Y9712095D01*
D12*
X-128868233Y81494581D02*
X-128677757Y81494581D01*
X-128677757Y81494581D02*
X-128582519Y81446962D01*
X-128582519Y81446962D02*
X-128487281Y81351724D01*
X-128487281Y81351724D02*
X-128439662Y81161248D01*
X-128439662Y81161248D02*
X-128439662Y80827915D01*
X-128439662Y80827915D02*
X-128487281Y80637439D01*
X-128487281Y80637439D02*
X-128582519Y80542200D01*
X-128582519Y80542200D02*
X-128677757Y80494581D01*
X-128677757Y80494581D02*
X-128868233Y80494581D01*
X-128868233Y80494581D02*
X-128963471Y80542200D01*
X-128963471Y80542200D02*
X-129058709Y80637439D01*
X-129058709Y80637439D02*
X-129106328Y80827915D01*
X-129106328Y80827915D02*
X-129106328Y81161248D01*
X-129106328Y81161248D02*
X-129058709Y81351724D01*
X-129058709Y81351724D02*
X-128963471Y81446962D01*
X-128963471Y81446962D02*
X-128868233Y81494581D01*
X-128011090Y81494581D02*
X-128011090Y80685058D01*
X-128011090Y80685058D02*
X-127963471Y80589820D01*
X-127963471Y80589820D02*
X-127915852Y80542200D01*
X-127915852Y80542200D02*
X-127820614Y80494581D01*
X-127820614Y80494581D02*
X-127630138Y80494581D01*
X-127630138Y80494581D02*
X-127534900Y80542200D01*
X-127534900Y80542200D02*
X-127487281Y80589820D01*
X-127487281Y80589820D02*
X-127439662Y80685058D01*
X-127439662Y80685058D02*
X-127439662Y81494581D01*
X-127106328Y81494581D02*
X-126534900Y81494581D01*
X-126820614Y80494581D02*
X-126820614Y81494581D01*
D10*
%TO.C,H3*%
X-104191309Y71238581D02*
X-104191309Y72238581D01*
X-104191309Y71762391D02*
X-103619881Y71762391D01*
X-103619881Y71238581D02*
X-103619881Y72238581D01*
X-103238928Y72238581D02*
X-102619881Y72238581D01*
X-102619881Y72238581D02*
X-102953214Y71857629D01*
X-102953214Y71857629D02*
X-102810357Y71857629D01*
X-102810357Y71857629D02*
X-102715119Y71810010D01*
X-102715119Y71810010D02*
X-102667500Y71762391D01*
X-102667500Y71762391D02*
X-102619881Y71667153D01*
X-102619881Y71667153D02*
X-102619881Y71429058D01*
X-102619881Y71429058D02*
X-102667500Y71333820D01*
X-102667500Y71333820D02*
X-102715119Y71286200D01*
X-102715119Y71286200D02*
X-102810357Y71238581D01*
X-102810357Y71238581D02*
X-103096071Y71238581D01*
X-103096071Y71238581D02*
X-103191309Y71286200D01*
X-103191309Y71286200D02*
X-103238928Y71333820D01*
%TO.C,J1*%
X-121959338Y89545581D02*
X-121959338Y88831296D01*
X-121959338Y88831296D02*
X-122006957Y88688439D01*
X-122006957Y88688439D02*
X-122102195Y88593200D01*
X-122102195Y88593200D02*
X-122245052Y88545581D01*
X-122245052Y88545581D02*
X-122340290Y88545581D01*
X-120959338Y88545581D02*
X-121530766Y88545581D01*
X-121245052Y88545581D02*
X-121245052Y89545581D01*
X-121245052Y89545581D02*
X-121340290Y89402724D01*
X-121340290Y89402724D02*
X-121435528Y89307486D01*
X-121435528Y89307486D02*
X-121530766Y89259867D01*
%TO.C,R33*%
X-35824381Y100544418D02*
X-36300572Y100211085D01*
X-35824381Y99972990D02*
X-36824381Y99972990D01*
X-36824381Y99972990D02*
X-36824381Y100353942D01*
X-36824381Y100353942D02*
X-36776762Y100449180D01*
X-36776762Y100449180D02*
X-36729143Y100496799D01*
X-36729143Y100496799D02*
X-36633905Y100544418D01*
X-36633905Y100544418D02*
X-36491048Y100544418D01*
X-36491048Y100544418D02*
X-36395810Y100496799D01*
X-36395810Y100496799D02*
X-36348191Y100449180D01*
X-36348191Y100449180D02*
X-36300572Y100353942D01*
X-36300572Y100353942D02*
X-36300572Y99972990D01*
X-36824381Y100877752D02*
X-36824381Y101496799D01*
X-36824381Y101496799D02*
X-36443429Y101163466D01*
X-36443429Y101163466D02*
X-36443429Y101306323D01*
X-36443429Y101306323D02*
X-36395810Y101401561D01*
X-36395810Y101401561D02*
X-36348191Y101449180D01*
X-36348191Y101449180D02*
X-36252953Y101496799D01*
X-36252953Y101496799D02*
X-36014858Y101496799D01*
X-36014858Y101496799D02*
X-35919620Y101449180D01*
X-35919620Y101449180D02*
X-35872000Y101401561D01*
X-35872000Y101401561D02*
X-35824381Y101306323D01*
X-35824381Y101306323D02*
X-35824381Y101020609D01*
X-35824381Y101020609D02*
X-35872000Y100925371D01*
X-35872000Y100925371D02*
X-35919620Y100877752D01*
X-36824381Y101830133D02*
X-36824381Y102449180D01*
X-36824381Y102449180D02*
X-36443429Y102115847D01*
X-36443429Y102115847D02*
X-36443429Y102258704D01*
X-36443429Y102258704D02*
X-36395810Y102353942D01*
X-36395810Y102353942D02*
X-36348191Y102401561D01*
X-36348191Y102401561D02*
X-36252953Y102449180D01*
X-36252953Y102449180D02*
X-36014858Y102449180D01*
X-36014858Y102449180D02*
X-35919620Y102401561D01*
X-35919620Y102401561D02*
X-35872000Y102353942D01*
X-35872000Y102353942D02*
X-35824381Y102258704D01*
X-35824381Y102258704D02*
X-35824381Y101972990D01*
X-35824381Y101972990D02*
X-35872000Y101877752D01*
X-35872000Y101877752D02*
X-35919620Y101830133D01*
%TO.C,J3*%
X-131472538Y29841981D02*
X-131472538Y29127696D01*
X-131472538Y29127696D02*
X-131520157Y28984839D01*
X-131520157Y28984839D02*
X-131615395Y28889600D01*
X-131615395Y28889600D02*
X-131758252Y28841981D01*
X-131758252Y28841981D02*
X-131853490Y28841981D01*
X-131091585Y29841981D02*
X-130472538Y29841981D01*
X-130472538Y29841981D02*
X-130805871Y29461029D01*
X-130805871Y29461029D02*
X-130663014Y29461029D01*
X-130663014Y29461029D02*
X-130567776Y29413410D01*
X-130567776Y29413410D02*
X-130520157Y29365791D01*
X-130520157Y29365791D02*
X-130472538Y29270553D01*
X-130472538Y29270553D02*
X-130472538Y29032458D01*
X-130472538Y29032458D02*
X-130520157Y28937220D01*
X-130520157Y28937220D02*
X-130567776Y28889600D01*
X-130567776Y28889600D02*
X-130663014Y28841981D01*
X-130663014Y28841981D02*
X-130948728Y28841981D01*
X-130948728Y28841981D02*
X-131043966Y28889600D01*
X-131043966Y28889600D02*
X-131091585Y28937220D01*
%TO.C,H8*%
X-71043705Y66923581D02*
X-71043705Y67923581D01*
X-71043705Y67447391D02*
X-70472277Y67447391D01*
X-70472277Y66923581D02*
X-70472277Y67923581D01*
X-69853229Y67495010D02*
X-69948467Y67542629D01*
X-69948467Y67542629D02*
X-69996086Y67590248D01*
X-69996086Y67590248D02*
X-70043705Y67685486D01*
X-70043705Y67685486D02*
X-70043705Y67733105D01*
X-70043705Y67733105D02*
X-69996086Y67828343D01*
X-69996086Y67828343D02*
X-69948467Y67875962D01*
X-69948467Y67875962D02*
X-69853229Y67923581D01*
X-69853229Y67923581D02*
X-69662753Y67923581D01*
X-69662753Y67923581D02*
X-69567515Y67875962D01*
X-69567515Y67875962D02*
X-69519896Y67828343D01*
X-69519896Y67828343D02*
X-69472277Y67733105D01*
X-69472277Y67733105D02*
X-69472277Y67685486D01*
X-69472277Y67685486D02*
X-69519896Y67590248D01*
X-69519896Y67590248D02*
X-69567515Y67542629D01*
X-69567515Y67542629D02*
X-69662753Y67495010D01*
X-69662753Y67495010D02*
X-69853229Y67495010D01*
X-69853229Y67495010D02*
X-69948467Y67447391D01*
X-69948467Y67447391D02*
X-69996086Y67399772D01*
X-69996086Y67399772D02*
X-70043705Y67304534D01*
X-70043705Y67304534D02*
X-70043705Y67114058D01*
X-70043705Y67114058D02*
X-69996086Y67018820D01*
X-69996086Y67018820D02*
X-69948467Y66971200D01*
X-69948467Y66971200D02*
X-69853229Y66923581D01*
X-69853229Y66923581D02*
X-69662753Y66923581D01*
X-69662753Y66923581D02*
X-69567515Y66971200D01*
X-69567515Y66971200D02*
X-69519896Y67018820D01*
X-69519896Y67018820D02*
X-69472277Y67114058D01*
X-69472277Y67114058D02*
X-69472277Y67304534D01*
X-69472277Y67304534D02*
X-69519896Y67399772D01*
X-69519896Y67399772D02*
X-69567515Y67447391D01*
X-69567515Y67447391D02*
X-69662753Y67495010D01*
%TO.C,J2*%
X-145581750Y55248046D02*
X-145581750Y54532877D01*
X-145581750Y54532877D02*
X-145629427Y54389843D01*
X-145629427Y54389843D02*
X-145724783Y54294487D01*
X-145724783Y54294487D02*
X-145867817Y54246810D01*
X-145867817Y54246810D02*
X-145963173Y54246810D01*
X-145152649Y55152690D02*
X-145104971Y55200368D01*
X-145104971Y55200368D02*
X-145009615Y55248046D01*
X-145009615Y55248046D02*
X-144771226Y55248046D01*
X-144771226Y55248046D02*
X-144675870Y55200368D01*
X-144675870Y55200368D02*
X-144628192Y55152690D01*
X-144628192Y55152690D02*
X-144580514Y55057334D01*
X-144580514Y55057334D02*
X-144580514Y54961978D01*
X-144580514Y54961978D02*
X-144628192Y54818944D01*
X-144628192Y54818944D02*
X-145200327Y54246810D01*
X-145200327Y54246810D02*
X-144580514Y54246810D01*
%TO.C,TP8*%
X-9498905Y7349856D02*
X-8927477Y7349856D01*
X-9213191Y6349856D02*
X-9213191Y7349856D01*
X-8594143Y6349856D02*
X-8594143Y7349856D01*
X-8594143Y7349856D02*
X-8213191Y7349856D01*
X-8213191Y7349856D02*
X-8117953Y7302237D01*
X-8117953Y7302237D02*
X-8070334Y7254618D01*
X-8070334Y7254618D02*
X-8022715Y7159380D01*
X-8022715Y7159380D02*
X-8022715Y7016523D01*
X-8022715Y7016523D02*
X-8070334Y6921285D01*
X-8070334Y6921285D02*
X-8117953Y6873666D01*
X-8117953Y6873666D02*
X-8213191Y6826047D01*
X-8213191Y6826047D02*
X-8594143Y6826047D01*
X-7451286Y6921285D02*
X-7546524Y6968904D01*
X-7546524Y6968904D02*
X-7594143Y7016523D01*
X-7594143Y7016523D02*
X-7641762Y7111761D01*
X-7641762Y7111761D02*
X-7641762Y7159380D01*
X-7641762Y7159380D02*
X-7594143Y7254618D01*
X-7594143Y7254618D02*
X-7546524Y7302237D01*
X-7546524Y7302237D02*
X-7451286Y7349856D01*
X-7451286Y7349856D02*
X-7260810Y7349856D01*
X-7260810Y7349856D02*
X-7165572Y7302237D01*
X-7165572Y7302237D02*
X-7117953Y7254618D01*
X-7117953Y7254618D02*
X-7070334Y7159380D01*
X-7070334Y7159380D02*
X-7070334Y7111761D01*
X-7070334Y7111761D02*
X-7117953Y7016523D01*
X-7117953Y7016523D02*
X-7165572Y6968904D01*
X-7165572Y6968904D02*
X-7260810Y6921285D01*
X-7260810Y6921285D02*
X-7451286Y6921285D01*
X-7451286Y6921285D02*
X-7546524Y6873666D01*
X-7546524Y6873666D02*
X-7594143Y6826047D01*
X-7594143Y6826047D02*
X-7641762Y6730809D01*
X-7641762Y6730809D02*
X-7641762Y6540333D01*
X-7641762Y6540333D02*
X-7594143Y6445095D01*
X-7594143Y6445095D02*
X-7546524Y6397475D01*
X-7546524Y6397475D02*
X-7451286Y6349856D01*
X-7451286Y6349856D02*
X-7260810Y6349856D01*
X-7260810Y6349856D02*
X-7165572Y6397475D01*
X-7165572Y6397475D02*
X-7117953Y6445095D01*
X-7117953Y6445095D02*
X-7070334Y6540333D01*
X-7070334Y6540333D02*
X-7070334Y6730809D01*
X-7070334Y6730809D02*
X-7117953Y6826047D01*
X-7117953Y6826047D02*
X-7165572Y6873666D01*
X-7165572Y6873666D02*
X-7260810Y6921285D01*
%TO.C,H12*%
X-68238095Y6842656D02*
X-68238095Y7842656D01*
X-68238095Y7366466D02*
X-67666667Y7366466D01*
X-67666667Y6842656D02*
X-67666667Y7842656D01*
X-66666667Y6842656D02*
X-67238095Y6842656D01*
X-66952381Y6842656D02*
X-66952381Y7842656D01*
X-66952381Y7842656D02*
X-67047619Y7699799D01*
X-67047619Y7699799D02*
X-67142857Y7604561D01*
X-67142857Y7604561D02*
X-67238095Y7556942D01*
X-66285714Y7747418D02*
X-66238095Y7795037D01*
X-66238095Y7795037D02*
X-66142857Y7842656D01*
X-66142857Y7842656D02*
X-65904762Y7842656D01*
X-65904762Y7842656D02*
X-65809524Y7795037D01*
X-65809524Y7795037D02*
X-65761905Y7747418D01*
X-65761905Y7747418D02*
X-65714286Y7652180D01*
X-65714286Y7652180D02*
X-65714286Y7556942D01*
X-65714286Y7556942D02*
X-65761905Y7414085D01*
X-65761905Y7414085D02*
X-66333333Y6842656D01*
X-66333333Y6842656D02*
X-65714286Y6842656D01*
%TO.C,Cn1*%
X-117825452Y48458020D02*
X-117873071Y48410400D01*
X-117873071Y48410400D02*
X-118015928Y48362781D01*
X-118015928Y48362781D02*
X-118111166Y48362781D01*
X-118111166Y48362781D02*
X-118254023Y48410400D01*
X-118254023Y48410400D02*
X-118349261Y48505639D01*
X-118349261Y48505639D02*
X-118396880Y48600877D01*
X-118396880Y48600877D02*
X-118444499Y48791353D01*
X-118444499Y48791353D02*
X-118444499Y48934210D01*
X-118444499Y48934210D02*
X-118396880Y49124686D01*
X-118396880Y49124686D02*
X-118349261Y49219924D01*
X-118349261Y49219924D02*
X-118254023Y49315162D01*
X-118254023Y49315162D02*
X-118111166Y49362781D01*
X-118111166Y49362781D02*
X-118015928Y49362781D01*
X-118015928Y49362781D02*
X-117873071Y49315162D01*
X-117873071Y49315162D02*
X-117825452Y49267543D01*
X-117396880Y49029448D02*
X-117396880Y48362781D01*
X-117396880Y48934210D02*
X-117349261Y48981829D01*
X-117349261Y48981829D02*
X-117254023Y49029448D01*
X-117254023Y49029448D02*
X-117111166Y49029448D01*
X-117111166Y49029448D02*
X-117015928Y48981829D01*
X-117015928Y48981829D02*
X-116968309Y48886591D01*
X-116968309Y48886591D02*
X-116968309Y48362781D01*
X-115968309Y48362781D02*
X-116539737Y48362781D01*
X-116254023Y48362781D02*
X-116254023Y49362781D01*
X-116254023Y49362781D02*
X-116349261Y49219924D01*
X-116349261Y49219924D02*
X-116444499Y49124686D01*
X-116444499Y49124686D02*
X-116539737Y49077067D01*
%TO.C,H7*%
X-67761905Y107975656D02*
X-67761905Y108975656D01*
X-67761905Y108499466D02*
X-67190477Y108499466D01*
X-67190477Y107975656D02*
X-67190477Y108975656D01*
X-66809524Y108975656D02*
X-66142858Y108975656D01*
X-66142858Y108975656D02*
X-66571429Y107975656D01*
%TO.C,R29*%
X-68791058Y87294381D02*
X-69124391Y87770572D01*
X-69362486Y87294381D02*
X-69362486Y88294381D01*
X-69362486Y88294381D02*
X-68981534Y88294381D01*
X-68981534Y88294381D02*
X-68886296Y88246762D01*
X-68886296Y88246762D02*
X-68838677Y88199143D01*
X-68838677Y88199143D02*
X-68791058Y88103905D01*
X-68791058Y88103905D02*
X-68791058Y87961048D01*
X-68791058Y87961048D02*
X-68838677Y87865810D01*
X-68838677Y87865810D02*
X-68886296Y87818191D01*
X-68886296Y87818191D02*
X-68981534Y87770572D01*
X-68981534Y87770572D02*
X-69362486Y87770572D01*
X-68410105Y88199143D02*
X-68362486Y88246762D01*
X-68362486Y88246762D02*
X-68267248Y88294381D01*
X-68267248Y88294381D02*
X-68029153Y88294381D01*
X-68029153Y88294381D02*
X-67933915Y88246762D01*
X-67933915Y88246762D02*
X-67886296Y88199143D01*
X-67886296Y88199143D02*
X-67838677Y88103905D01*
X-67838677Y88103905D02*
X-67838677Y88008667D01*
X-67838677Y88008667D02*
X-67886296Y87865810D01*
X-67886296Y87865810D02*
X-68457724Y87294381D01*
X-68457724Y87294381D02*
X-67838677Y87294381D01*
X-67362486Y87294381D02*
X-67172010Y87294381D01*
X-67172010Y87294381D02*
X-67076772Y87342000D01*
X-67076772Y87342000D02*
X-67029153Y87389620D01*
X-67029153Y87389620D02*
X-66933915Y87532477D01*
X-66933915Y87532477D02*
X-66886296Y87722953D01*
X-66886296Y87722953D02*
X-66886296Y88103905D01*
X-66886296Y88103905D02*
X-66933915Y88199143D01*
X-66933915Y88199143D02*
X-66981534Y88246762D01*
X-66981534Y88246762D02*
X-67076772Y88294381D01*
X-67076772Y88294381D02*
X-67267248Y88294381D01*
X-67267248Y88294381D02*
X-67362486Y88246762D01*
X-67362486Y88246762D02*
X-67410105Y88199143D01*
X-67410105Y88199143D02*
X-67457724Y88103905D01*
X-67457724Y88103905D02*
X-67457724Y87865810D01*
X-67457724Y87865810D02*
X-67410105Y87770572D01*
X-67410105Y87770572D02*
X-67362486Y87722953D01*
X-67362486Y87722953D02*
X-67267248Y87675334D01*
X-67267248Y87675334D02*
X-67076772Y87675334D01*
X-67076772Y87675334D02*
X-66981534Y87722953D01*
X-66981534Y87722953D02*
X-66933915Y87770572D01*
X-66933915Y87770572D02*
X-66886296Y87865810D01*
%TO.C,B1*%
X-127841195Y94800639D02*
X-127793576Y94943496D01*
X-127793576Y94943496D02*
X-127745957Y94991115D01*
X-127745957Y94991115D02*
X-127650719Y95038734D01*
X-127650719Y95038734D02*
X-127507862Y95038734D01*
X-127507862Y95038734D02*
X-127412624Y94991115D01*
X-127412624Y94991115D02*
X-127365004Y94943496D01*
X-127365004Y94943496D02*
X-127317385Y94848258D01*
X-127317385Y94848258D02*
X-127317385Y94467306D01*
X-127317385Y94467306D02*
X-128317385Y94467306D01*
X-128317385Y94467306D02*
X-128317385Y94800639D01*
X-128317385Y94800639D02*
X-128269766Y94895877D01*
X-128269766Y94895877D02*
X-128222147Y94943496D01*
X-128222147Y94943496D02*
X-128126909Y94991115D01*
X-128126909Y94991115D02*
X-128031671Y94991115D01*
X-128031671Y94991115D02*
X-127936433Y94943496D01*
X-127936433Y94943496D02*
X-127888814Y94895877D01*
X-127888814Y94895877D02*
X-127841195Y94800639D01*
X-127841195Y94800639D02*
X-127841195Y94467306D01*
X-127317385Y95991115D02*
X-127317385Y95419687D01*
X-127317385Y95705401D02*
X-128317385Y95705401D01*
X-128317385Y95705401D02*
X-128174528Y95610163D01*
X-128174528Y95610163D02*
X-128079290Y95514925D01*
X-128079290Y95514925D02*
X-128031671Y95419687D01*
%TO.C,H4*%
X-102246909Y100811781D02*
X-102246909Y101811781D01*
X-102246909Y101335591D02*
X-101675481Y101335591D01*
X-101675481Y100811781D02*
X-101675481Y101811781D01*
X-100770719Y101478448D02*
X-100770719Y100811781D01*
X-101008814Y101859400D02*
X-101246909Y101145115D01*
X-101246909Y101145115D02*
X-100627862Y101145115D01*
%TO.C,U11*%
X-49879095Y71244656D02*
X-49879095Y70435133D01*
X-49879095Y70435133D02*
X-49831476Y70339895D01*
X-49831476Y70339895D02*
X-49783857Y70292275D01*
X-49783857Y70292275D02*
X-49688619Y70244656D01*
X-49688619Y70244656D02*
X-49498143Y70244656D01*
X-49498143Y70244656D02*
X-49402905Y70292275D01*
X-49402905Y70292275D02*
X-49355286Y70339895D01*
X-49355286Y70339895D02*
X-49307667Y70435133D01*
X-49307667Y70435133D02*
X-49307667Y71244656D01*
X-48307667Y70244656D02*
X-48879095Y70244656D01*
X-48593381Y70244656D02*
X-48593381Y71244656D01*
X-48593381Y71244656D02*
X-48688619Y71101799D01*
X-48688619Y71101799D02*
X-48783857Y71006561D01*
X-48783857Y71006561D02*
X-48879095Y70958942D01*
X-47355286Y70244656D02*
X-47926714Y70244656D01*
X-47641000Y70244656D02*
X-47641000Y71244656D01*
X-47641000Y71244656D02*
X-47736238Y71101799D01*
X-47736238Y71101799D02*
X-47831476Y71006561D01*
X-47831476Y71006561D02*
X-47926714Y70958942D01*
%TO.C,C26*%
X-37599859Y86947895D02*
X-37647478Y86900275D01*
X-37647478Y86900275D02*
X-37790335Y86852656D01*
X-37790335Y86852656D02*
X-37885573Y86852656D01*
X-37885573Y86852656D02*
X-38028430Y86900275D01*
X-38028430Y86900275D02*
X-38123668Y86995514D01*
X-38123668Y86995514D02*
X-38171287Y87090752D01*
X-38171287Y87090752D02*
X-38218906Y87281228D01*
X-38218906Y87281228D02*
X-38218906Y87424085D01*
X-38218906Y87424085D02*
X-38171287Y87614561D01*
X-38171287Y87614561D02*
X-38123668Y87709799D01*
X-38123668Y87709799D02*
X-38028430Y87805037D01*
X-38028430Y87805037D02*
X-37885573Y87852656D01*
X-37885573Y87852656D02*
X-37790335Y87852656D01*
X-37790335Y87852656D02*
X-37647478Y87805037D01*
X-37647478Y87805037D02*
X-37599859Y87757418D01*
X-37218906Y87757418D02*
X-37171287Y87805037D01*
X-37171287Y87805037D02*
X-37076049Y87852656D01*
X-37076049Y87852656D02*
X-36837954Y87852656D01*
X-36837954Y87852656D02*
X-36742716Y87805037D01*
X-36742716Y87805037D02*
X-36695097Y87757418D01*
X-36695097Y87757418D02*
X-36647478Y87662180D01*
X-36647478Y87662180D02*
X-36647478Y87566942D01*
X-36647478Y87566942D02*
X-36695097Y87424085D01*
X-36695097Y87424085D02*
X-37266525Y86852656D01*
X-37266525Y86852656D02*
X-36647478Y86852656D01*
X-35790335Y87852656D02*
X-35980811Y87852656D01*
X-35980811Y87852656D02*
X-36076049Y87805037D01*
X-36076049Y87805037D02*
X-36123668Y87757418D01*
X-36123668Y87757418D02*
X-36218906Y87614561D01*
X-36218906Y87614561D02*
X-36266525Y87424085D01*
X-36266525Y87424085D02*
X-36266525Y87043133D01*
X-36266525Y87043133D02*
X-36218906Y86947895D01*
X-36218906Y86947895D02*
X-36171287Y86900275D01*
X-36171287Y86900275D02*
X-36076049Y86852656D01*
X-36076049Y86852656D02*
X-35885573Y86852656D01*
X-35885573Y86852656D02*
X-35790335Y86900275D01*
X-35790335Y86900275D02*
X-35742716Y86947895D01*
X-35742716Y86947895D02*
X-35695097Y87043133D01*
X-35695097Y87043133D02*
X-35695097Y87281228D01*
X-35695097Y87281228D02*
X-35742716Y87376466D01*
X-35742716Y87376466D02*
X-35790335Y87424085D01*
X-35790335Y87424085D02*
X-35885573Y87471704D01*
X-35885573Y87471704D02*
X-36076049Y87471704D01*
X-36076049Y87471704D02*
X-36171287Y87424085D01*
X-36171287Y87424085D02*
X-36218906Y87376466D01*
X-36218906Y87376466D02*
X-36266525Y87281228D01*
%TO.C,RV4*%
X-65365239Y90442656D02*
X-65698572Y90918847D01*
X-65936667Y90442656D02*
X-65936667Y91442656D01*
X-65936667Y91442656D02*
X-65555715Y91442656D01*
X-65555715Y91442656D02*
X-65460477Y91395037D01*
X-65460477Y91395037D02*
X-65412858Y91347418D01*
X-65412858Y91347418D02*
X-65365239Y91252180D01*
X-65365239Y91252180D02*
X-65365239Y91109323D01*
X-65365239Y91109323D02*
X-65412858Y91014085D01*
X-65412858Y91014085D02*
X-65460477Y90966466D01*
X-65460477Y90966466D02*
X-65555715Y90918847D01*
X-65555715Y90918847D02*
X-65936667Y90918847D01*
X-65079524Y91442656D02*
X-64746191Y90442656D01*
X-64746191Y90442656D02*
X-64412858Y91442656D01*
X-63650953Y91109323D02*
X-63650953Y90442656D01*
X-63889048Y91490275D02*
X-64127143Y90775990D01*
X-64127143Y90775990D02*
X-63508096Y90775990D01*
%TO.C,U5*%
X-114463109Y80452381D02*
X-114463109Y79642858D01*
X-114463109Y79642858D02*
X-114415490Y79547620D01*
X-114415490Y79547620D02*
X-114367871Y79500000D01*
X-114367871Y79500000D02*
X-114272633Y79452381D01*
X-114272633Y79452381D02*
X-114082157Y79452381D01*
X-114082157Y79452381D02*
X-113986919Y79500000D01*
X-113986919Y79500000D02*
X-113939300Y79547620D01*
X-113939300Y79547620D02*
X-113891681Y79642858D01*
X-113891681Y79642858D02*
X-113891681Y80452381D01*
X-112939300Y80452381D02*
X-113415490Y80452381D01*
X-113415490Y80452381D02*
X-113463109Y79976191D01*
X-113463109Y79976191D02*
X-113415490Y80023810D01*
X-113415490Y80023810D02*
X-113320252Y80071429D01*
X-113320252Y80071429D02*
X-113082157Y80071429D01*
X-113082157Y80071429D02*
X-112986919Y80023810D01*
X-112986919Y80023810D02*
X-112939300Y79976191D01*
X-112939300Y79976191D02*
X-112891681Y79880953D01*
X-112891681Y79880953D02*
X-112891681Y79642858D01*
X-112891681Y79642858D02*
X-112939300Y79547620D01*
X-112939300Y79547620D02*
X-112986919Y79500000D01*
X-112986919Y79500000D02*
X-113082157Y79452381D01*
X-113082157Y79452381D02*
X-113320252Y79452381D01*
X-113320252Y79452381D02*
X-113415490Y79500000D01*
X-113415490Y79500000D02*
X-113463109Y79547620D01*
%TO.C,R36*%
X-28963858Y84312656D02*
X-29297191Y84788847D01*
X-29535286Y84312656D02*
X-29535286Y85312656D01*
X-29535286Y85312656D02*
X-29154334Y85312656D01*
X-29154334Y85312656D02*
X-29059096Y85265037D01*
X-29059096Y85265037D02*
X-29011477Y85217418D01*
X-29011477Y85217418D02*
X-28963858Y85122180D01*
X-28963858Y85122180D02*
X-28963858Y84979323D01*
X-28963858Y84979323D02*
X-29011477Y84884085D01*
X-29011477Y84884085D02*
X-29059096Y84836466D01*
X-29059096Y84836466D02*
X-29154334Y84788847D01*
X-29154334Y84788847D02*
X-29535286Y84788847D01*
X-28630524Y85312656D02*
X-28011477Y85312656D01*
X-28011477Y85312656D02*
X-28344810Y84931704D01*
X-28344810Y84931704D02*
X-28201953Y84931704D01*
X-28201953Y84931704D02*
X-28106715Y84884085D01*
X-28106715Y84884085D02*
X-28059096Y84836466D01*
X-28059096Y84836466D02*
X-28011477Y84741228D01*
X-28011477Y84741228D02*
X-28011477Y84503133D01*
X-28011477Y84503133D02*
X-28059096Y84407895D01*
X-28059096Y84407895D02*
X-28106715Y84360275D01*
X-28106715Y84360275D02*
X-28201953Y84312656D01*
X-28201953Y84312656D02*
X-28487667Y84312656D01*
X-28487667Y84312656D02*
X-28582905Y84360275D01*
X-28582905Y84360275D02*
X-28630524Y84407895D01*
X-27154334Y85312656D02*
X-27344810Y85312656D01*
X-27344810Y85312656D02*
X-27440048Y85265037D01*
X-27440048Y85265037D02*
X-27487667Y85217418D01*
X-27487667Y85217418D02*
X-27582905Y85074561D01*
X-27582905Y85074561D02*
X-27630524Y84884085D01*
X-27630524Y84884085D02*
X-27630524Y84503133D01*
X-27630524Y84503133D02*
X-27582905Y84407895D01*
X-27582905Y84407895D02*
X-27535286Y84360275D01*
X-27535286Y84360275D02*
X-27440048Y84312656D01*
X-27440048Y84312656D02*
X-27249572Y84312656D01*
X-27249572Y84312656D02*
X-27154334Y84360275D01*
X-27154334Y84360275D02*
X-27106715Y84407895D01*
X-27106715Y84407895D02*
X-27059096Y84503133D01*
X-27059096Y84503133D02*
X-27059096Y84741228D01*
X-27059096Y84741228D02*
X-27106715Y84836466D01*
X-27106715Y84836466D02*
X-27154334Y84884085D01*
X-27154334Y84884085D02*
X-27249572Y84931704D01*
X-27249572Y84931704D02*
X-27440048Y84931704D01*
X-27440048Y84931704D02*
X-27535286Y84884085D01*
X-27535286Y84884085D02*
X-27582905Y84836466D01*
X-27582905Y84836466D02*
X-27630524Y84741228D01*
%TO.C,C21*%
X-42206858Y90804895D02*
X-42254477Y90757275D01*
X-42254477Y90757275D02*
X-42397334Y90709656D01*
X-42397334Y90709656D02*
X-42492572Y90709656D01*
X-42492572Y90709656D02*
X-42635429Y90757275D01*
X-42635429Y90757275D02*
X-42730667Y90852514D01*
X-42730667Y90852514D02*
X-42778286Y90947752D01*
X-42778286Y90947752D02*
X-42825905Y91138228D01*
X-42825905Y91138228D02*
X-42825905Y91281085D01*
X-42825905Y91281085D02*
X-42778286Y91471561D01*
X-42778286Y91471561D02*
X-42730667Y91566799D01*
X-42730667Y91566799D02*
X-42635429Y91662037D01*
X-42635429Y91662037D02*
X-42492572Y91709656D01*
X-42492572Y91709656D02*
X-42397334Y91709656D01*
X-42397334Y91709656D02*
X-42254477Y91662037D01*
X-42254477Y91662037D02*
X-42206858Y91614418D01*
X-41825905Y91614418D02*
X-41778286Y91662037D01*
X-41778286Y91662037D02*
X-41683048Y91709656D01*
X-41683048Y91709656D02*
X-41444953Y91709656D01*
X-41444953Y91709656D02*
X-41349715Y91662037D01*
X-41349715Y91662037D02*
X-41302096Y91614418D01*
X-41302096Y91614418D02*
X-41254477Y91519180D01*
X-41254477Y91519180D02*
X-41254477Y91423942D01*
X-41254477Y91423942D02*
X-41302096Y91281085D01*
X-41302096Y91281085D02*
X-41873524Y90709656D01*
X-41873524Y90709656D02*
X-41254477Y90709656D01*
X-40302096Y90709656D02*
X-40873524Y90709656D01*
X-40587810Y90709656D02*
X-40587810Y91709656D01*
X-40587810Y91709656D02*
X-40683048Y91566799D01*
X-40683048Y91566799D02*
X-40778286Y91471561D01*
X-40778286Y91471561D02*
X-40873524Y91423942D01*
%TO.C,TP3*%
X-99101709Y42468181D02*
X-98530281Y42468181D01*
X-98815995Y41468181D02*
X-98815995Y42468181D01*
X-98196947Y41468181D02*
X-98196947Y42468181D01*
X-98196947Y42468181D02*
X-97815995Y42468181D01*
X-97815995Y42468181D02*
X-97720757Y42420562D01*
X-97720757Y42420562D02*
X-97673138Y42372943D01*
X-97673138Y42372943D02*
X-97625519Y42277705D01*
X-97625519Y42277705D02*
X-97625519Y42134848D01*
X-97625519Y42134848D02*
X-97673138Y42039610D01*
X-97673138Y42039610D02*
X-97720757Y41991991D01*
X-97720757Y41991991D02*
X-97815995Y41944372D01*
X-97815995Y41944372D02*
X-98196947Y41944372D01*
X-97292185Y42468181D02*
X-96673138Y42468181D01*
X-96673138Y42468181D02*
X-97006471Y42087229D01*
X-97006471Y42087229D02*
X-96863614Y42087229D01*
X-96863614Y42087229D02*
X-96768376Y42039610D01*
X-96768376Y42039610D02*
X-96720757Y41991991D01*
X-96720757Y41991991D02*
X-96673138Y41896753D01*
X-96673138Y41896753D02*
X-96673138Y41658658D01*
X-96673138Y41658658D02*
X-96720757Y41563420D01*
X-96720757Y41563420D02*
X-96768376Y41515800D01*
X-96768376Y41515800D02*
X-96863614Y41468181D01*
X-96863614Y41468181D02*
X-97149328Y41468181D01*
X-97149328Y41468181D02*
X-97244566Y41515800D01*
X-97244566Y41515800D02*
X-97292185Y41563420D01*
%TO.C,R32*%
X-57224381Y66508418D02*
X-57700572Y66175085D01*
X-57224381Y65936990D02*
X-58224381Y65936990D01*
X-58224381Y65936990D02*
X-58224381Y66317942D01*
X-58224381Y66317942D02*
X-58176762Y66413180D01*
X-58176762Y66413180D02*
X-58129143Y66460799D01*
X-58129143Y66460799D02*
X-58033905Y66508418D01*
X-58033905Y66508418D02*
X-57891048Y66508418D01*
X-57891048Y66508418D02*
X-57795810Y66460799D01*
X-57795810Y66460799D02*
X-57748191Y66413180D01*
X-57748191Y66413180D02*
X-57700572Y66317942D01*
X-57700572Y66317942D02*
X-57700572Y65936990D01*
X-58224381Y66841752D02*
X-58224381Y67460799D01*
X-58224381Y67460799D02*
X-57843429Y67127466D01*
X-57843429Y67127466D02*
X-57843429Y67270323D01*
X-57843429Y67270323D02*
X-57795810Y67365561D01*
X-57795810Y67365561D02*
X-57748191Y67413180D01*
X-57748191Y67413180D02*
X-57652953Y67460799D01*
X-57652953Y67460799D02*
X-57414858Y67460799D01*
X-57414858Y67460799D02*
X-57319620Y67413180D01*
X-57319620Y67413180D02*
X-57272000Y67365561D01*
X-57272000Y67365561D02*
X-57224381Y67270323D01*
X-57224381Y67270323D02*
X-57224381Y66984609D01*
X-57224381Y66984609D02*
X-57272000Y66889371D01*
X-57272000Y66889371D02*
X-57319620Y66841752D01*
X-58129143Y67841752D02*
X-58176762Y67889371D01*
X-58176762Y67889371D02*
X-58224381Y67984609D01*
X-58224381Y67984609D02*
X-58224381Y68222704D01*
X-58224381Y68222704D02*
X-58176762Y68317942D01*
X-58176762Y68317942D02*
X-58129143Y68365561D01*
X-58129143Y68365561D02*
X-58033905Y68413180D01*
X-58033905Y68413180D02*
X-57938667Y68413180D01*
X-57938667Y68413180D02*
X-57795810Y68365561D01*
X-57795810Y68365561D02*
X-57224381Y67794133D01*
X-57224381Y67794133D02*
X-57224381Y68413180D01*
%TO.C,J6*%
X-118698538Y42936381D02*
X-118698538Y42222096D01*
X-118698538Y42222096D02*
X-118746157Y42079239D01*
X-118746157Y42079239D02*
X-118841395Y41984000D01*
X-118841395Y41984000D02*
X-118984252Y41936381D01*
X-118984252Y41936381D02*
X-119079490Y41936381D01*
X-117793776Y42936381D02*
X-117984252Y42936381D01*
X-117984252Y42936381D02*
X-118079490Y42888762D01*
X-118079490Y42888762D02*
X-118127109Y42841143D01*
X-118127109Y42841143D02*
X-118222347Y42698286D01*
X-118222347Y42698286D02*
X-118269966Y42507810D01*
X-118269966Y42507810D02*
X-118269966Y42126858D01*
X-118269966Y42126858D02*
X-118222347Y42031620D01*
X-118222347Y42031620D02*
X-118174728Y41984000D01*
X-118174728Y41984000D02*
X-118079490Y41936381D01*
X-118079490Y41936381D02*
X-117889014Y41936381D01*
X-117889014Y41936381D02*
X-117793776Y41984000D01*
X-117793776Y41984000D02*
X-117746157Y42031620D01*
X-117746157Y42031620D02*
X-117698538Y42126858D01*
X-117698538Y42126858D02*
X-117698538Y42364953D01*
X-117698538Y42364953D02*
X-117746157Y42460191D01*
X-117746157Y42460191D02*
X-117793776Y42507810D01*
X-117793776Y42507810D02*
X-117889014Y42555429D01*
X-117889014Y42555429D02*
X-118079490Y42555429D01*
X-118079490Y42555429D02*
X-118174728Y42507810D01*
X-118174728Y42507810D02*
X-118222347Y42460191D01*
X-118222347Y42460191D02*
X-118269966Y42364953D01*
%TO.C,H6*%
X-84191309Y108238581D02*
X-84191309Y109238581D01*
X-84191309Y108762391D02*
X-83619881Y108762391D01*
X-83619881Y108238581D02*
X-83619881Y109238581D01*
X-82715119Y109238581D02*
X-82905595Y109238581D01*
X-82905595Y109238581D02*
X-83000833Y109190962D01*
X-83000833Y109190962D02*
X-83048452Y109143343D01*
X-83048452Y109143343D02*
X-83143690Y109000486D01*
X-83143690Y109000486D02*
X-83191309Y108810010D01*
X-83191309Y108810010D02*
X-83191309Y108429058D01*
X-83191309Y108429058D02*
X-83143690Y108333820D01*
X-83143690Y108333820D02*
X-83096071Y108286200D01*
X-83096071Y108286200D02*
X-83000833Y108238581D01*
X-83000833Y108238581D02*
X-82810357Y108238581D01*
X-82810357Y108238581D02*
X-82715119Y108286200D01*
X-82715119Y108286200D02*
X-82667500Y108333820D01*
X-82667500Y108333820D02*
X-82619881Y108429058D01*
X-82619881Y108429058D02*
X-82619881Y108667153D01*
X-82619881Y108667153D02*
X-82667500Y108762391D01*
X-82667500Y108762391D02*
X-82715119Y108810010D01*
X-82715119Y108810010D02*
X-82810357Y108857629D01*
X-82810357Y108857629D02*
X-83000833Y108857629D01*
X-83000833Y108857629D02*
X-83096071Y108810010D01*
X-83096071Y108810010D02*
X-83143690Y108762391D01*
X-83143690Y108762391D02*
X-83191309Y108667153D01*
%TO.C,U9*%
X-53720905Y105280656D02*
X-53720905Y104471133D01*
X-53720905Y104471133D02*
X-53673286Y104375895D01*
X-53673286Y104375895D02*
X-53625667Y104328275D01*
X-53625667Y104328275D02*
X-53530429Y104280656D01*
X-53530429Y104280656D02*
X-53339953Y104280656D01*
X-53339953Y104280656D02*
X-53244715Y104328275D01*
X-53244715Y104328275D02*
X-53197096Y104375895D01*
X-53197096Y104375895D02*
X-53149477Y104471133D01*
X-53149477Y104471133D02*
X-53149477Y105280656D01*
X-52625667Y104280656D02*
X-52435191Y104280656D01*
X-52435191Y104280656D02*
X-52339953Y104328275D01*
X-52339953Y104328275D02*
X-52292334Y104375895D01*
X-52292334Y104375895D02*
X-52197096Y104518752D01*
X-52197096Y104518752D02*
X-52149477Y104709228D01*
X-52149477Y104709228D02*
X-52149477Y105090180D01*
X-52149477Y105090180D02*
X-52197096Y105185418D01*
X-52197096Y105185418D02*
X-52244715Y105233037D01*
X-52244715Y105233037D02*
X-52339953Y105280656D01*
X-52339953Y105280656D02*
X-52530429Y105280656D01*
X-52530429Y105280656D02*
X-52625667Y105233037D01*
X-52625667Y105233037D02*
X-52673286Y105185418D01*
X-52673286Y105185418D02*
X-52720905Y105090180D01*
X-52720905Y105090180D02*
X-52720905Y104852085D01*
X-52720905Y104852085D02*
X-52673286Y104756847D01*
X-52673286Y104756847D02*
X-52625667Y104709228D01*
X-52625667Y104709228D02*
X-52530429Y104661609D01*
X-52530429Y104661609D02*
X-52339953Y104661609D01*
X-52339953Y104661609D02*
X-52244715Y104709228D01*
X-52244715Y104709228D02*
X-52197096Y104756847D01*
X-52197096Y104756847D02*
X-52149477Y104852085D01*
%TO.C,H2*%
X-84191309Y86238581D02*
X-84191309Y87238581D01*
X-84191309Y86762391D02*
X-83619881Y86762391D01*
X-83619881Y86238581D02*
X-83619881Y87238581D01*
X-83191309Y87143343D02*
X-83143690Y87190962D01*
X-83143690Y87190962D02*
X-83048452Y87238581D01*
X-83048452Y87238581D02*
X-82810357Y87238581D01*
X-82810357Y87238581D02*
X-82715119Y87190962D01*
X-82715119Y87190962D02*
X-82667500Y87143343D01*
X-82667500Y87143343D02*
X-82619881Y87048105D01*
X-82619881Y87048105D02*
X-82619881Y86952867D01*
X-82619881Y86952867D02*
X-82667500Y86810010D01*
X-82667500Y86810010D02*
X-83238928Y86238581D01*
X-83238928Y86238581D02*
X-82619881Y86238581D01*
%TO.C,H10*%
X-39973095Y6842656D02*
X-39973095Y7842656D01*
X-39973095Y7366466D02*
X-39401667Y7366466D01*
X-39401667Y6842656D02*
X-39401667Y7842656D01*
X-38401667Y6842656D02*
X-38973095Y6842656D01*
X-38687381Y6842656D02*
X-38687381Y7842656D01*
X-38687381Y7842656D02*
X-38782619Y7699799D01*
X-38782619Y7699799D02*
X-38877857Y7604561D01*
X-38877857Y7604561D02*
X-38973095Y7556942D01*
X-37782619Y7842656D02*
X-37687381Y7842656D01*
X-37687381Y7842656D02*
X-37592143Y7795037D01*
X-37592143Y7795037D02*
X-37544524Y7747418D01*
X-37544524Y7747418D02*
X-37496905Y7652180D01*
X-37496905Y7652180D02*
X-37449286Y7461704D01*
X-37449286Y7461704D02*
X-37449286Y7223609D01*
X-37449286Y7223609D02*
X-37496905Y7033133D01*
X-37496905Y7033133D02*
X-37544524Y6937895D01*
X-37544524Y6937895D02*
X-37592143Y6890275D01*
X-37592143Y6890275D02*
X-37687381Y6842656D01*
X-37687381Y6842656D02*
X-37782619Y6842656D01*
X-37782619Y6842656D02*
X-37877857Y6890275D01*
X-37877857Y6890275D02*
X-37925476Y6937895D01*
X-37925476Y6937895D02*
X-37973095Y7033133D01*
X-37973095Y7033133D02*
X-38020714Y7223609D01*
X-38020714Y7223609D02*
X-38020714Y7461704D01*
X-38020714Y7461704D02*
X-37973095Y7652180D01*
X-37973095Y7652180D02*
X-37925476Y7747418D01*
X-37925476Y7747418D02*
X-37877857Y7795037D01*
X-37877857Y7795037D02*
X-37782619Y7842656D01*
%TO.C,C23*%
X-45727858Y94723895D02*
X-45775477Y94676275D01*
X-45775477Y94676275D02*
X-45918334Y94628656D01*
X-45918334Y94628656D02*
X-46013572Y94628656D01*
X-46013572Y94628656D02*
X-46156429Y94676275D01*
X-46156429Y94676275D02*
X-46251667Y94771514D01*
X-46251667Y94771514D02*
X-46299286Y94866752D01*
X-46299286Y94866752D02*
X-46346905Y95057228D01*
X-46346905Y95057228D02*
X-46346905Y95200085D01*
X-46346905Y95200085D02*
X-46299286Y95390561D01*
X-46299286Y95390561D02*
X-46251667Y95485799D01*
X-46251667Y95485799D02*
X-46156429Y95581037D01*
X-46156429Y95581037D02*
X-46013572Y95628656D01*
X-46013572Y95628656D02*
X-45918334Y95628656D01*
X-45918334Y95628656D02*
X-45775477Y95581037D01*
X-45775477Y95581037D02*
X-45727858Y95533418D01*
X-45346905Y95533418D02*
X-45299286Y95581037D01*
X-45299286Y95581037D02*
X-45204048Y95628656D01*
X-45204048Y95628656D02*
X-44965953Y95628656D01*
X-44965953Y95628656D02*
X-44870715Y95581037D01*
X-44870715Y95581037D02*
X-44823096Y95533418D01*
X-44823096Y95533418D02*
X-44775477Y95438180D01*
X-44775477Y95438180D02*
X-44775477Y95342942D01*
X-44775477Y95342942D02*
X-44823096Y95200085D01*
X-44823096Y95200085D02*
X-45394524Y94628656D01*
X-45394524Y94628656D02*
X-44775477Y94628656D01*
X-44442143Y95628656D02*
X-43823096Y95628656D01*
X-43823096Y95628656D02*
X-44156429Y95247704D01*
X-44156429Y95247704D02*
X-44013572Y95247704D01*
X-44013572Y95247704D02*
X-43918334Y95200085D01*
X-43918334Y95200085D02*
X-43870715Y95152466D01*
X-43870715Y95152466D02*
X-43823096Y95057228D01*
X-43823096Y95057228D02*
X-43823096Y94819133D01*
X-43823096Y94819133D02*
X-43870715Y94723895D01*
X-43870715Y94723895D02*
X-43918334Y94676275D01*
X-43918334Y94676275D02*
X-44013572Y94628656D01*
X-44013572Y94628656D02*
X-44299286Y94628656D01*
X-44299286Y94628656D02*
X-44394524Y94676275D01*
X-44394524Y94676275D02*
X-44442143Y94723895D01*
D13*
%TO.C,J15*%
X-12000895Y41028749D02*
X-12000895Y40121606D01*
X-12000895Y40121606D02*
X-12061372Y39940178D01*
X-12061372Y39940178D02*
X-12182324Y39819225D01*
X-12182324Y39819225D02*
X-12363753Y39758749D01*
X-12363753Y39758749D02*
X-12484705Y39758749D01*
X-10730895Y39758749D02*
X-11456610Y39758749D01*
X-11093753Y39758749D02*
X-11093753Y41028749D01*
X-11093753Y41028749D02*
X-11214705Y40847321D01*
X-11214705Y40847321D02*
X-11335657Y40726368D01*
X-11335657Y40726368D02*
X-11456610Y40665892D01*
X-9581848Y41028749D02*
X-10186610Y41028749D01*
X-10186610Y41028749D02*
X-10247086Y40423987D01*
X-10247086Y40423987D02*
X-10186610Y40484464D01*
X-10186610Y40484464D02*
X-10065657Y40544940D01*
X-10065657Y40544940D02*
X-9763276Y40544940D01*
X-9763276Y40544940D02*
X-9642324Y40484464D01*
X-9642324Y40484464D02*
X-9581848Y40423987D01*
X-9581848Y40423987D02*
X-9521371Y40303035D01*
X-9521371Y40303035D02*
X-9521371Y40000654D01*
X-9521371Y40000654D02*
X-9581848Y39879702D01*
X-9581848Y39879702D02*
X-9642324Y39819225D01*
X-9642324Y39819225D02*
X-9763276Y39758749D01*
X-9763276Y39758749D02*
X-10065657Y39758749D01*
X-10065657Y39758749D02*
X-10186610Y39819225D01*
X-10186610Y39819225D02*
X-10247086Y39879702D01*
D10*
%TO.C,R31*%
X-70022381Y92543418D02*
X-70498572Y92210085D01*
X-70022381Y91971990D02*
X-71022381Y91971990D01*
X-71022381Y91971990D02*
X-71022381Y92352942D01*
X-71022381Y92352942D02*
X-70974762Y92448180D01*
X-70974762Y92448180D02*
X-70927143Y92495799D01*
X-70927143Y92495799D02*
X-70831905Y92543418D01*
X-70831905Y92543418D02*
X-70689048Y92543418D01*
X-70689048Y92543418D02*
X-70593810Y92495799D01*
X-70593810Y92495799D02*
X-70546191Y92448180D01*
X-70546191Y92448180D02*
X-70498572Y92352942D01*
X-70498572Y92352942D02*
X-70498572Y91971990D01*
X-71022381Y92876752D02*
X-71022381Y93495799D01*
X-71022381Y93495799D02*
X-70641429Y93162466D01*
X-70641429Y93162466D02*
X-70641429Y93305323D01*
X-70641429Y93305323D02*
X-70593810Y93400561D01*
X-70593810Y93400561D02*
X-70546191Y93448180D01*
X-70546191Y93448180D02*
X-70450953Y93495799D01*
X-70450953Y93495799D02*
X-70212858Y93495799D01*
X-70212858Y93495799D02*
X-70117620Y93448180D01*
X-70117620Y93448180D02*
X-70070000Y93400561D01*
X-70070000Y93400561D02*
X-70022381Y93305323D01*
X-70022381Y93305323D02*
X-70022381Y93019609D01*
X-70022381Y93019609D02*
X-70070000Y92924371D01*
X-70070000Y92924371D02*
X-70117620Y92876752D01*
X-70022381Y94448180D02*
X-70022381Y93876752D01*
X-70022381Y94162466D02*
X-71022381Y94162466D01*
X-71022381Y94162466D02*
X-70879524Y94067228D01*
X-70879524Y94067228D02*
X-70784286Y93971990D01*
X-70784286Y93971990D02*
X-70736667Y93876752D01*
%TO.C,R34*%
X-35833981Y103846418D02*
X-36310172Y103513085D01*
X-35833981Y103274990D02*
X-36833981Y103274990D01*
X-36833981Y103274990D02*
X-36833981Y103655942D01*
X-36833981Y103655942D02*
X-36786362Y103751180D01*
X-36786362Y103751180D02*
X-36738743Y103798799D01*
X-36738743Y103798799D02*
X-36643505Y103846418D01*
X-36643505Y103846418D02*
X-36500648Y103846418D01*
X-36500648Y103846418D02*
X-36405410Y103798799D01*
X-36405410Y103798799D02*
X-36357791Y103751180D01*
X-36357791Y103751180D02*
X-36310172Y103655942D01*
X-36310172Y103655942D02*
X-36310172Y103274990D01*
X-36833981Y104179752D02*
X-36833981Y104798799D01*
X-36833981Y104798799D02*
X-36453029Y104465466D01*
X-36453029Y104465466D02*
X-36453029Y104608323D01*
X-36453029Y104608323D02*
X-36405410Y104703561D01*
X-36405410Y104703561D02*
X-36357791Y104751180D01*
X-36357791Y104751180D02*
X-36262553Y104798799D01*
X-36262553Y104798799D02*
X-36024458Y104798799D01*
X-36024458Y104798799D02*
X-35929220Y104751180D01*
X-35929220Y104751180D02*
X-35881600Y104703561D01*
X-35881600Y104703561D02*
X-35833981Y104608323D01*
X-35833981Y104608323D02*
X-35833981Y104322609D01*
X-35833981Y104322609D02*
X-35881600Y104227371D01*
X-35881600Y104227371D02*
X-35929220Y104179752D01*
X-36500648Y105655942D02*
X-35833981Y105655942D01*
X-36881600Y105417847D02*
X-36167315Y105179752D01*
X-36167315Y105179752D02*
X-36167315Y105798799D01*
%TO.C,C20*%
X-70117620Y96988418D02*
X-70070000Y96940799D01*
X-70070000Y96940799D02*
X-70022381Y96797942D01*
X-70022381Y96797942D02*
X-70022381Y96702704D01*
X-70022381Y96702704D02*
X-70070000Y96559847D01*
X-70070000Y96559847D02*
X-70165239Y96464609D01*
X-70165239Y96464609D02*
X-70260477Y96416990D01*
X-70260477Y96416990D02*
X-70450953Y96369371D01*
X-70450953Y96369371D02*
X-70593810Y96369371D01*
X-70593810Y96369371D02*
X-70784286Y96416990D01*
X-70784286Y96416990D02*
X-70879524Y96464609D01*
X-70879524Y96464609D02*
X-70974762Y96559847D01*
X-70974762Y96559847D02*
X-71022381Y96702704D01*
X-71022381Y96702704D02*
X-71022381Y96797942D01*
X-71022381Y96797942D02*
X-70974762Y96940799D01*
X-70974762Y96940799D02*
X-70927143Y96988418D01*
X-70927143Y97369371D02*
X-70974762Y97416990D01*
X-70974762Y97416990D02*
X-71022381Y97512228D01*
X-71022381Y97512228D02*
X-71022381Y97750323D01*
X-71022381Y97750323D02*
X-70974762Y97845561D01*
X-70974762Y97845561D02*
X-70927143Y97893180D01*
X-70927143Y97893180D02*
X-70831905Y97940799D01*
X-70831905Y97940799D02*
X-70736667Y97940799D01*
X-70736667Y97940799D02*
X-70593810Y97893180D01*
X-70593810Y97893180D02*
X-70022381Y97321752D01*
X-70022381Y97321752D02*
X-70022381Y97940799D01*
X-71022381Y98559847D02*
X-71022381Y98655085D01*
X-71022381Y98655085D02*
X-70974762Y98750323D01*
X-70974762Y98750323D02*
X-70927143Y98797942D01*
X-70927143Y98797942D02*
X-70831905Y98845561D01*
X-70831905Y98845561D02*
X-70641429Y98893180D01*
X-70641429Y98893180D02*
X-70403334Y98893180D01*
X-70403334Y98893180D02*
X-70212858Y98845561D01*
X-70212858Y98845561D02*
X-70117620Y98797942D01*
X-70117620Y98797942D02*
X-70070000Y98750323D01*
X-70070000Y98750323D02*
X-70022381Y98655085D01*
X-70022381Y98655085D02*
X-70022381Y98559847D01*
X-70022381Y98559847D02*
X-70070000Y98464609D01*
X-70070000Y98464609D02*
X-70117620Y98416990D01*
X-70117620Y98416990D02*
X-70212858Y98369371D01*
X-70212858Y98369371D02*
X-70403334Y98321752D01*
X-70403334Y98321752D02*
X-70641429Y98321752D01*
X-70641429Y98321752D02*
X-70831905Y98369371D01*
X-70831905Y98369371D02*
X-70927143Y98416990D01*
X-70927143Y98416990D02*
X-70974762Y98464609D01*
X-70974762Y98464609D02*
X-71022381Y98559847D01*
%TO.C,RV2*%
X-104937443Y37096981D02*
X-105270776Y37573172D01*
X-105508871Y37096981D02*
X-105508871Y38096981D01*
X-105508871Y38096981D02*
X-105127919Y38096981D01*
X-105127919Y38096981D02*
X-105032681Y38049362D01*
X-105032681Y38049362D02*
X-104985062Y38001743D01*
X-104985062Y38001743D02*
X-104937443Y37906505D01*
X-104937443Y37906505D02*
X-104937443Y37763648D01*
X-104937443Y37763648D02*
X-104985062Y37668410D01*
X-104985062Y37668410D02*
X-105032681Y37620791D01*
X-105032681Y37620791D02*
X-105127919Y37573172D01*
X-105127919Y37573172D02*
X-105508871Y37573172D01*
X-104651728Y38096981D02*
X-104318395Y37096981D01*
X-104318395Y37096981D02*
X-103985062Y38096981D01*
X-103699347Y38001743D02*
X-103651728Y38049362D01*
X-103651728Y38049362D02*
X-103556490Y38096981D01*
X-103556490Y38096981D02*
X-103318395Y38096981D01*
X-103318395Y38096981D02*
X-103223157Y38049362D01*
X-103223157Y38049362D02*
X-103175538Y38001743D01*
X-103175538Y38001743D02*
X-103127919Y37906505D01*
X-103127919Y37906505D02*
X-103127919Y37811267D01*
X-103127919Y37811267D02*
X-103175538Y37668410D01*
X-103175538Y37668410D02*
X-103746966Y37096981D01*
X-103746966Y37096981D02*
X-103127919Y37096981D01*
%TO.C,U6*%
X-84661185Y30523896D02*
X-83851662Y30523896D01*
X-83851662Y30523896D02*
X-83756424Y30571515D01*
X-83756424Y30571515D02*
X-83708804Y30619134D01*
X-83708804Y30619134D02*
X-83661185Y30714372D01*
X-83661185Y30714372D02*
X-83661185Y30904848D01*
X-83661185Y30904848D02*
X-83708804Y31000086D01*
X-83708804Y31000086D02*
X-83756424Y31047705D01*
X-83756424Y31047705D02*
X-83851662Y31095324D01*
X-83851662Y31095324D02*
X-84661185Y31095324D01*
X-84661185Y32000086D02*
X-84661185Y31809610D01*
X-84661185Y31809610D02*
X-84613566Y31714372D01*
X-84613566Y31714372D02*
X-84565947Y31666753D01*
X-84565947Y31666753D02*
X-84423090Y31571515D01*
X-84423090Y31571515D02*
X-84232614Y31523896D01*
X-84232614Y31523896D02*
X-83851662Y31523896D01*
X-83851662Y31523896D02*
X-83756424Y31571515D01*
X-83756424Y31571515D02*
X-83708804Y31619134D01*
X-83708804Y31619134D02*
X-83661185Y31714372D01*
X-83661185Y31714372D02*
X-83661185Y31904848D01*
X-83661185Y31904848D02*
X-83708804Y32000086D01*
X-83708804Y32000086D02*
X-83756424Y32047705D01*
X-83756424Y32047705D02*
X-83851662Y32095324D01*
X-83851662Y32095324D02*
X-84089757Y32095324D01*
X-84089757Y32095324D02*
X-84184995Y32047705D01*
X-84184995Y32047705D02*
X-84232614Y32000086D01*
X-84232614Y32000086D02*
X-84280233Y31904848D01*
X-84280233Y31904848D02*
X-84280233Y31714372D01*
X-84280233Y31714372D02*
X-84232614Y31619134D01*
X-84232614Y31619134D02*
X-84184995Y31571515D01*
X-84184995Y31571515D02*
X-84089757Y31523896D01*
X-86976566Y30523705D02*
X-87024185Y30428467D01*
X-87024185Y30428467D02*
X-87024185Y30285610D01*
X-87024185Y30285610D02*
X-86976566Y30142753D01*
X-86976566Y30142753D02*
X-86881328Y30047515D01*
X-86881328Y30047515D02*
X-86786090Y29999896D01*
X-86786090Y29999896D02*
X-86595614Y29952277D01*
X-86595614Y29952277D02*
X-86452757Y29952277D01*
X-86452757Y29952277D02*
X-86262281Y29999896D01*
X-86262281Y29999896D02*
X-86167043Y30047515D01*
X-86167043Y30047515D02*
X-86071804Y30142753D01*
X-86071804Y30142753D02*
X-86024185Y30285610D01*
X-86024185Y30285610D02*
X-86024185Y30380848D01*
X-86024185Y30380848D02*
X-86071804Y30523705D01*
X-86071804Y30523705D02*
X-86119424Y30571324D01*
X-86119424Y30571324D02*
X-86452757Y30571324D01*
X-86452757Y30571324D02*
X-86452757Y30380848D01*
X-86024185Y30999896D02*
X-87024185Y30999896D01*
X-87024185Y30999896D02*
X-87024185Y31380848D01*
X-87024185Y31380848D02*
X-86976566Y31476086D01*
X-86976566Y31476086D02*
X-86928947Y31523705D01*
X-86928947Y31523705D02*
X-86833709Y31571324D01*
X-86833709Y31571324D02*
X-86690852Y31571324D01*
X-86690852Y31571324D02*
X-86595614Y31523705D01*
X-86595614Y31523705D02*
X-86547995Y31476086D01*
X-86547995Y31476086D02*
X-86500376Y31380848D01*
X-86500376Y31380848D02*
X-86500376Y30999896D01*
X-86071804Y31952277D02*
X-86024185Y32095134D01*
X-86024185Y32095134D02*
X-86024185Y32333229D01*
X-86024185Y32333229D02*
X-86071804Y32428467D01*
X-86071804Y32428467D02*
X-86119424Y32476086D01*
X-86119424Y32476086D02*
X-86214662Y32523705D01*
X-86214662Y32523705D02*
X-86309900Y32523705D01*
X-86309900Y32523705D02*
X-86405138Y32476086D01*
X-86405138Y32476086D02*
X-86452757Y32428467D01*
X-86452757Y32428467D02*
X-86500376Y32333229D01*
X-86500376Y32333229D02*
X-86547995Y32142753D01*
X-86547995Y32142753D02*
X-86595614Y32047515D01*
X-86595614Y32047515D02*
X-86643233Y31999896D01*
X-86643233Y31999896D02*
X-86738471Y31952277D01*
X-86738471Y31952277D02*
X-86833709Y31952277D01*
X-86833709Y31952277D02*
X-86928947Y31999896D01*
X-86928947Y31999896D02*
X-86976566Y32047515D01*
X-86976566Y32047515D02*
X-87024185Y32142753D01*
X-87024185Y32142753D02*
X-87024185Y32380848D01*
X-87024185Y32380848D02*
X-86976566Y32523705D01*
%TO.C,J5*%
X-137748538Y42936381D02*
X-137748538Y42222096D01*
X-137748538Y42222096D02*
X-137796157Y42079239D01*
X-137796157Y42079239D02*
X-137891395Y41984000D01*
X-137891395Y41984000D02*
X-138034252Y41936381D01*
X-138034252Y41936381D02*
X-138129490Y41936381D01*
X-136796157Y42936381D02*
X-137272347Y42936381D01*
X-137272347Y42936381D02*
X-137319966Y42460191D01*
X-137319966Y42460191D02*
X-137272347Y42507810D01*
X-137272347Y42507810D02*
X-137177109Y42555429D01*
X-137177109Y42555429D02*
X-136939014Y42555429D01*
X-136939014Y42555429D02*
X-136843776Y42507810D01*
X-136843776Y42507810D02*
X-136796157Y42460191D01*
X-136796157Y42460191D02*
X-136748538Y42364953D01*
X-136748538Y42364953D02*
X-136748538Y42126858D01*
X-136748538Y42126858D02*
X-136796157Y42031620D01*
X-136796157Y42031620D02*
X-136843776Y41984000D01*
X-136843776Y41984000D02*
X-136939014Y41936381D01*
X-136939014Y41936381D02*
X-137177109Y41936381D01*
X-137177109Y41936381D02*
X-137272347Y41984000D01*
X-137272347Y41984000D02*
X-137319966Y42031620D01*
%TO.C,RV1*%
X-94989585Y28633162D02*
X-95465776Y28299829D01*
X-94989585Y28061734D02*
X-95989585Y28061734D01*
X-95989585Y28061734D02*
X-95989585Y28442686D01*
X-95989585Y28442686D02*
X-95941966Y28537924D01*
X-95941966Y28537924D02*
X-95894347Y28585543D01*
X-95894347Y28585543D02*
X-95799109Y28633162D01*
X-95799109Y28633162D02*
X-95656252Y28633162D01*
X-95656252Y28633162D02*
X-95561014Y28585543D01*
X-95561014Y28585543D02*
X-95513395Y28537924D01*
X-95513395Y28537924D02*
X-95465776Y28442686D01*
X-95465776Y28442686D02*
X-95465776Y28061734D01*
X-95989585Y28918877D02*
X-94989585Y29252210D01*
X-94989585Y29252210D02*
X-95989585Y29585543D01*
X-94989585Y30442686D02*
X-94989585Y29871258D01*
X-94989585Y30156972D02*
X-95989585Y30156972D01*
X-95989585Y30156972D02*
X-95846728Y30061734D01*
X-95846728Y30061734D02*
X-95751490Y29966496D01*
X-95751490Y29966496D02*
X-95703871Y29871258D01*
%TO.C,J14*%
X-45501381Y45584952D02*
X-44787096Y45584952D01*
X-44787096Y45584952D02*
X-44644239Y45537333D01*
X-44644239Y45537333D02*
X-44549000Y45442095D01*
X-44549000Y45442095D02*
X-44501381Y45299238D01*
X-44501381Y45299238D02*
X-44501381Y45204000D01*
X-44501381Y46584952D02*
X-44501381Y46013524D01*
X-44501381Y46299238D02*
X-45501381Y46299238D01*
X-45501381Y46299238D02*
X-45358524Y46204000D01*
X-45358524Y46204000D02*
X-45263286Y46108762D01*
X-45263286Y46108762D02*
X-45215667Y46013524D01*
X-45168048Y47442095D02*
X-44501381Y47442095D01*
X-45549000Y47204000D02*
X-44834715Y46965905D01*
X-44834715Y46965905D02*
X-44834715Y47584952D01*
%TO.C,H14*%
X-39973095Y107975656D02*
X-39973095Y108975656D01*
X-39973095Y108499466D02*
X-39401667Y108499466D01*
X-39401667Y107975656D02*
X-39401667Y108975656D01*
X-38401667Y107975656D02*
X-38973095Y107975656D01*
X-38687381Y107975656D02*
X-38687381Y108975656D01*
X-38687381Y108975656D02*
X-38782619Y108832799D01*
X-38782619Y108832799D02*
X-38877857Y108737561D01*
X-38877857Y108737561D02*
X-38973095Y108689942D01*
X-37544524Y108642323D02*
X-37544524Y107975656D01*
X-37782619Y109023275D02*
X-38020714Y108308990D01*
X-38020714Y108308990D02*
X-37401667Y108308990D01*
%TO.C,C24*%
X-37507858Y90659895D02*
X-37555477Y90612275D01*
X-37555477Y90612275D02*
X-37698334Y90564656D01*
X-37698334Y90564656D02*
X-37793572Y90564656D01*
X-37793572Y90564656D02*
X-37936429Y90612275D01*
X-37936429Y90612275D02*
X-38031667Y90707514D01*
X-38031667Y90707514D02*
X-38079286Y90802752D01*
X-38079286Y90802752D02*
X-38126905Y90993228D01*
X-38126905Y90993228D02*
X-38126905Y91136085D01*
X-38126905Y91136085D02*
X-38079286Y91326561D01*
X-38079286Y91326561D02*
X-38031667Y91421799D01*
X-38031667Y91421799D02*
X-37936429Y91517037D01*
X-37936429Y91517037D02*
X-37793572Y91564656D01*
X-37793572Y91564656D02*
X-37698334Y91564656D01*
X-37698334Y91564656D02*
X-37555477Y91517037D01*
X-37555477Y91517037D02*
X-37507858Y91469418D01*
X-37126905Y91469418D02*
X-37079286Y91517037D01*
X-37079286Y91517037D02*
X-36984048Y91564656D01*
X-36984048Y91564656D02*
X-36745953Y91564656D01*
X-36745953Y91564656D02*
X-36650715Y91517037D01*
X-36650715Y91517037D02*
X-36603096Y91469418D01*
X-36603096Y91469418D02*
X-36555477Y91374180D01*
X-36555477Y91374180D02*
X-36555477Y91278942D01*
X-36555477Y91278942D02*
X-36603096Y91136085D01*
X-36603096Y91136085D02*
X-37174524Y90564656D01*
X-37174524Y90564656D02*
X-36555477Y90564656D01*
X-35698334Y91231323D02*
X-35698334Y90564656D01*
X-35936429Y91612275D02*
X-36174524Y90897990D01*
X-36174524Y90897990D02*
X-35555477Y90897990D01*
%TO.C,J4*%
X-111635550Y27785246D02*
X-111635550Y27070077D01*
X-111635550Y27070077D02*
X-111683227Y26927043D01*
X-111683227Y26927043D02*
X-111778583Y26831687D01*
X-111778583Y26831687D02*
X-111921617Y26784010D01*
X-111921617Y26784010D02*
X-112016973Y26784010D01*
X-110729670Y27451500D02*
X-110729670Y26784010D01*
X-110968059Y27832923D02*
X-111206449Y27117755D01*
X-111206449Y27117755D02*
X-110586636Y27117755D01*
%TO.C,TP7*%
X-30740381Y61571371D02*
X-30740381Y62142799D01*
X-29740381Y61857085D02*
X-30740381Y61857085D01*
X-29740381Y62476133D02*
X-30740381Y62476133D01*
X-30740381Y62476133D02*
X-30740381Y62857085D01*
X-30740381Y62857085D02*
X-30692762Y62952323D01*
X-30692762Y62952323D02*
X-30645143Y62999942D01*
X-30645143Y62999942D02*
X-30549905Y63047561D01*
X-30549905Y63047561D02*
X-30407048Y63047561D01*
X-30407048Y63047561D02*
X-30311810Y62999942D01*
X-30311810Y62999942D02*
X-30264191Y62952323D01*
X-30264191Y62952323D02*
X-30216572Y62857085D01*
X-30216572Y62857085D02*
X-30216572Y62476133D01*
X-30740381Y63380895D02*
X-30740381Y64047561D01*
X-30740381Y64047561D02*
X-29740381Y63618990D01*
%TO.C,TP4*%
X-20626381Y66651371D02*
X-20626381Y67222799D01*
X-19626381Y66937085D02*
X-20626381Y66937085D01*
X-19626381Y67556133D02*
X-20626381Y67556133D01*
X-20626381Y67556133D02*
X-20626381Y67937085D01*
X-20626381Y67937085D02*
X-20578762Y68032323D01*
X-20578762Y68032323D02*
X-20531143Y68079942D01*
X-20531143Y68079942D02*
X-20435905Y68127561D01*
X-20435905Y68127561D02*
X-20293048Y68127561D01*
X-20293048Y68127561D02*
X-20197810Y68079942D01*
X-20197810Y68079942D02*
X-20150191Y68032323D01*
X-20150191Y68032323D02*
X-20102572Y67937085D01*
X-20102572Y67937085D02*
X-20102572Y67556133D01*
X-20293048Y68984704D02*
X-19626381Y68984704D01*
X-20674000Y68746609D02*
X-19959715Y68508514D01*
X-19959715Y68508514D02*
X-19959715Y69127561D01*
%TO.C,H5*%
X-144191309Y108238581D02*
X-144191309Y109238581D01*
X-144191309Y108762391D02*
X-143619881Y108762391D01*
X-143619881Y108238581D02*
X-143619881Y109238581D01*
X-142667500Y109238581D02*
X-143143690Y109238581D01*
X-143143690Y109238581D02*
X-143191309Y108762391D01*
X-143191309Y108762391D02*
X-143143690Y108810010D01*
X-143143690Y108810010D02*
X-143048452Y108857629D01*
X-143048452Y108857629D02*
X-142810357Y108857629D01*
X-142810357Y108857629D02*
X-142715119Y108810010D01*
X-142715119Y108810010D02*
X-142667500Y108762391D01*
X-142667500Y108762391D02*
X-142619881Y108667153D01*
X-142619881Y108667153D02*
X-142619881Y108429058D01*
X-142619881Y108429058D02*
X-142667500Y108333820D01*
X-142667500Y108333820D02*
X-142715119Y108286200D01*
X-142715119Y108286200D02*
X-142810357Y108238581D01*
X-142810357Y108238581D02*
X-143048452Y108238581D01*
X-143048452Y108238581D02*
X-143143690Y108286200D01*
X-143143690Y108286200D02*
X-143191309Y108333820D01*
%TO.C,J7*%
X-106211338Y49159581D02*
X-106211338Y48445296D01*
X-106211338Y48445296D02*
X-106258957Y48302439D01*
X-106258957Y48302439D02*
X-106354195Y48207200D01*
X-106354195Y48207200D02*
X-106497052Y48159581D01*
X-106497052Y48159581D02*
X-106592290Y48159581D01*
X-105830385Y49159581D02*
X-105163719Y49159581D01*
X-105163719Y49159581D02*
X-105592290Y48159581D01*
%TO.C,R30*%
X-65539858Y102150656D02*
X-65873191Y102626847D01*
X-66111286Y102150656D02*
X-66111286Y103150656D01*
X-66111286Y103150656D02*
X-65730334Y103150656D01*
X-65730334Y103150656D02*
X-65635096Y103103037D01*
X-65635096Y103103037D02*
X-65587477Y103055418D01*
X-65587477Y103055418D02*
X-65539858Y102960180D01*
X-65539858Y102960180D02*
X-65539858Y102817323D01*
X-65539858Y102817323D02*
X-65587477Y102722085D01*
X-65587477Y102722085D02*
X-65635096Y102674466D01*
X-65635096Y102674466D02*
X-65730334Y102626847D01*
X-65730334Y102626847D02*
X-66111286Y102626847D01*
X-65206524Y103150656D02*
X-64587477Y103150656D01*
X-64587477Y103150656D02*
X-64920810Y102769704D01*
X-64920810Y102769704D02*
X-64777953Y102769704D01*
X-64777953Y102769704D02*
X-64682715Y102722085D01*
X-64682715Y102722085D02*
X-64635096Y102674466D01*
X-64635096Y102674466D02*
X-64587477Y102579228D01*
X-64587477Y102579228D02*
X-64587477Y102341133D01*
X-64587477Y102341133D02*
X-64635096Y102245895D01*
X-64635096Y102245895D02*
X-64682715Y102198275D01*
X-64682715Y102198275D02*
X-64777953Y102150656D01*
X-64777953Y102150656D02*
X-65063667Y102150656D01*
X-65063667Y102150656D02*
X-65158905Y102198275D01*
X-65158905Y102198275D02*
X-65206524Y102245895D01*
X-63968429Y103150656D02*
X-63873191Y103150656D01*
X-63873191Y103150656D02*
X-63777953Y103103037D01*
X-63777953Y103103037D02*
X-63730334Y103055418D01*
X-63730334Y103055418D02*
X-63682715Y102960180D01*
X-63682715Y102960180D02*
X-63635096Y102769704D01*
X-63635096Y102769704D02*
X-63635096Y102531609D01*
X-63635096Y102531609D02*
X-63682715Y102341133D01*
X-63682715Y102341133D02*
X-63730334Y102245895D01*
X-63730334Y102245895D02*
X-63777953Y102198275D01*
X-63777953Y102198275D02*
X-63873191Y102150656D01*
X-63873191Y102150656D02*
X-63968429Y102150656D01*
X-63968429Y102150656D02*
X-64063667Y102198275D01*
X-64063667Y102198275D02*
X-64111286Y102245895D01*
X-64111286Y102245895D02*
X-64158905Y102341133D01*
X-64158905Y102341133D02*
X-64206524Y102531609D01*
X-64206524Y102531609D02*
X-64206524Y102769704D01*
X-64206524Y102769704D02*
X-64158905Y102960180D01*
X-64158905Y102960180D02*
X-64111286Y103055418D01*
X-64111286Y103055418D02*
X-64063667Y103103037D01*
X-64063667Y103103037D02*
X-63968429Y103150656D01*
%TO.C,TP2*%
X-117681185Y30354096D02*
X-117681185Y30925524D01*
X-116681185Y30639810D02*
X-117681185Y30639810D01*
X-116681185Y31258858D02*
X-117681185Y31258858D01*
X-117681185Y31258858D02*
X-117681185Y31639810D01*
X-117681185Y31639810D02*
X-117633566Y31735048D01*
X-117633566Y31735048D02*
X-117585947Y31782667D01*
X-117585947Y31782667D02*
X-117490709Y31830286D01*
X-117490709Y31830286D02*
X-117347852Y31830286D01*
X-117347852Y31830286D02*
X-117252614Y31782667D01*
X-117252614Y31782667D02*
X-117204995Y31735048D01*
X-117204995Y31735048D02*
X-117157376Y31639810D01*
X-117157376Y31639810D02*
X-117157376Y31258858D01*
X-117585947Y32211239D02*
X-117633566Y32258858D01*
X-117633566Y32258858D02*
X-117681185Y32354096D01*
X-117681185Y32354096D02*
X-117681185Y32592191D01*
X-117681185Y32592191D02*
X-117633566Y32687429D01*
X-117633566Y32687429D02*
X-117585947Y32735048D01*
X-117585947Y32735048D02*
X-117490709Y32782667D01*
X-117490709Y32782667D02*
X-117395471Y32782667D01*
X-117395471Y32782667D02*
X-117252614Y32735048D01*
X-117252614Y32735048D02*
X-116681185Y32163620D01*
X-116681185Y32163620D02*
X-116681185Y32782667D01*
%TO.C,U10*%
X-70707095Y77340656D02*
X-70707095Y76531133D01*
X-70707095Y76531133D02*
X-70659476Y76435895D01*
X-70659476Y76435895D02*
X-70611857Y76388275D01*
X-70611857Y76388275D02*
X-70516619Y76340656D01*
X-70516619Y76340656D02*
X-70326143Y76340656D01*
X-70326143Y76340656D02*
X-70230905Y76388275D01*
X-70230905Y76388275D02*
X-70183286Y76435895D01*
X-70183286Y76435895D02*
X-70135667Y76531133D01*
X-70135667Y76531133D02*
X-70135667Y77340656D01*
X-69135667Y76340656D02*
X-69707095Y76340656D01*
X-69421381Y76340656D02*
X-69421381Y77340656D01*
X-69421381Y77340656D02*
X-69516619Y77197799D01*
X-69516619Y77197799D02*
X-69611857Y77102561D01*
X-69611857Y77102561D02*
X-69707095Y77054942D01*
X-68516619Y77340656D02*
X-68421381Y77340656D01*
X-68421381Y77340656D02*
X-68326143Y77293037D01*
X-68326143Y77293037D02*
X-68278524Y77245418D01*
X-68278524Y77245418D02*
X-68230905Y77150180D01*
X-68230905Y77150180D02*
X-68183286Y76959704D01*
X-68183286Y76959704D02*
X-68183286Y76721609D01*
X-68183286Y76721609D02*
X-68230905Y76531133D01*
X-68230905Y76531133D02*
X-68278524Y76435895D01*
X-68278524Y76435895D02*
X-68326143Y76388275D01*
X-68326143Y76388275D02*
X-68421381Y76340656D01*
X-68421381Y76340656D02*
X-68516619Y76340656D01*
X-68516619Y76340656D02*
X-68611857Y76388275D01*
X-68611857Y76388275D02*
X-68659476Y76435895D01*
X-68659476Y76435895D02*
X-68707095Y76531133D01*
X-68707095Y76531133D02*
X-68754714Y76721609D01*
X-68754714Y76721609D02*
X-68754714Y76959704D01*
X-68754714Y76959704D02*
X-68707095Y77150180D01*
X-68707095Y77150180D02*
X-68659476Y77245418D01*
X-68659476Y77245418D02*
X-68611857Y77293037D01*
X-68611857Y77293037D02*
X-68516619Y77340656D01*
%TO.C,R35*%
X-28963858Y91932656D02*
X-29297191Y92408847D01*
X-29535286Y91932656D02*
X-29535286Y92932656D01*
X-29535286Y92932656D02*
X-29154334Y92932656D01*
X-29154334Y92932656D02*
X-29059096Y92885037D01*
X-29059096Y92885037D02*
X-29011477Y92837418D01*
X-29011477Y92837418D02*
X-28963858Y92742180D01*
X-28963858Y92742180D02*
X-28963858Y92599323D01*
X-28963858Y92599323D02*
X-29011477Y92504085D01*
X-29011477Y92504085D02*
X-29059096Y92456466D01*
X-29059096Y92456466D02*
X-29154334Y92408847D01*
X-29154334Y92408847D02*
X-29535286Y92408847D01*
X-28630524Y92932656D02*
X-28011477Y92932656D01*
X-28011477Y92932656D02*
X-28344810Y92551704D01*
X-28344810Y92551704D02*
X-28201953Y92551704D01*
X-28201953Y92551704D02*
X-28106715Y92504085D01*
X-28106715Y92504085D02*
X-28059096Y92456466D01*
X-28059096Y92456466D02*
X-28011477Y92361228D01*
X-28011477Y92361228D02*
X-28011477Y92123133D01*
X-28011477Y92123133D02*
X-28059096Y92027895D01*
X-28059096Y92027895D02*
X-28106715Y91980275D01*
X-28106715Y91980275D02*
X-28201953Y91932656D01*
X-28201953Y91932656D02*
X-28487667Y91932656D01*
X-28487667Y91932656D02*
X-28582905Y91980275D01*
X-28582905Y91980275D02*
X-28630524Y92027895D01*
X-27106715Y92932656D02*
X-27582905Y92932656D01*
X-27582905Y92932656D02*
X-27630524Y92456466D01*
X-27630524Y92456466D02*
X-27582905Y92504085D01*
X-27582905Y92504085D02*
X-27487667Y92551704D01*
X-27487667Y92551704D02*
X-27249572Y92551704D01*
X-27249572Y92551704D02*
X-27154334Y92504085D01*
X-27154334Y92504085D02*
X-27106715Y92456466D01*
X-27106715Y92456466D02*
X-27059096Y92361228D01*
X-27059096Y92361228D02*
X-27059096Y92123133D01*
X-27059096Y92123133D02*
X-27106715Y92027895D01*
X-27106715Y92027895D02*
X-27154334Y91980275D01*
X-27154334Y91980275D02*
X-27249572Y91932656D01*
X-27249572Y91932656D02*
X-27487667Y91932656D01*
X-27487667Y91932656D02*
X-27582905Y91980275D01*
X-27582905Y91980275D02*
X-27630524Y92027895D01*
%TO.C,C25*%
X-37507858Y95993895D02*
X-37555477Y95946275D01*
X-37555477Y95946275D02*
X-37698334Y95898656D01*
X-37698334Y95898656D02*
X-37793572Y95898656D01*
X-37793572Y95898656D02*
X-37936429Y95946275D01*
X-37936429Y95946275D02*
X-38031667Y96041514D01*
X-38031667Y96041514D02*
X-38079286Y96136752D01*
X-38079286Y96136752D02*
X-38126905Y96327228D01*
X-38126905Y96327228D02*
X-38126905Y96470085D01*
X-38126905Y96470085D02*
X-38079286Y96660561D01*
X-38079286Y96660561D02*
X-38031667Y96755799D01*
X-38031667Y96755799D02*
X-37936429Y96851037D01*
X-37936429Y96851037D02*
X-37793572Y96898656D01*
X-37793572Y96898656D02*
X-37698334Y96898656D01*
X-37698334Y96898656D02*
X-37555477Y96851037D01*
X-37555477Y96851037D02*
X-37507858Y96803418D01*
X-37126905Y96803418D02*
X-37079286Y96851037D01*
X-37079286Y96851037D02*
X-36984048Y96898656D01*
X-36984048Y96898656D02*
X-36745953Y96898656D01*
X-36745953Y96898656D02*
X-36650715Y96851037D01*
X-36650715Y96851037D02*
X-36603096Y96803418D01*
X-36603096Y96803418D02*
X-36555477Y96708180D01*
X-36555477Y96708180D02*
X-36555477Y96612942D01*
X-36555477Y96612942D02*
X-36603096Y96470085D01*
X-36603096Y96470085D02*
X-37174524Y95898656D01*
X-37174524Y95898656D02*
X-36555477Y95898656D01*
X-35650715Y96898656D02*
X-36126905Y96898656D01*
X-36126905Y96898656D02*
X-36174524Y96422466D01*
X-36174524Y96422466D02*
X-36126905Y96470085D01*
X-36126905Y96470085D02*
X-36031667Y96517704D01*
X-36031667Y96517704D02*
X-35793572Y96517704D01*
X-35793572Y96517704D02*
X-35698334Y96470085D01*
X-35698334Y96470085D02*
X-35650715Y96422466D01*
X-35650715Y96422466D02*
X-35603096Y96327228D01*
X-35603096Y96327228D02*
X-35603096Y96089133D01*
X-35603096Y96089133D02*
X-35650715Y95993895D01*
X-35650715Y95993895D02*
X-35698334Y95946275D01*
X-35698334Y95946275D02*
X-35793572Y95898656D01*
X-35793572Y95898656D02*
X-36031667Y95898656D01*
X-36031667Y95898656D02*
X-36126905Y95946275D01*
X-36126905Y95946275D02*
X-36174524Y95993895D01*
%TO.C,TP5*%
X-30740381Y66651371D02*
X-30740381Y67222799D01*
X-29740381Y66937085D02*
X-30740381Y66937085D01*
X-29740381Y67556133D02*
X-30740381Y67556133D01*
X-30740381Y67556133D02*
X-30740381Y67937085D01*
X-30740381Y67937085D02*
X-30692762Y68032323D01*
X-30692762Y68032323D02*
X-30645143Y68079942D01*
X-30645143Y68079942D02*
X-30549905Y68127561D01*
X-30549905Y68127561D02*
X-30407048Y68127561D01*
X-30407048Y68127561D02*
X-30311810Y68079942D01*
X-30311810Y68079942D02*
X-30264191Y68032323D01*
X-30264191Y68032323D02*
X-30216572Y67937085D01*
X-30216572Y67937085D02*
X-30216572Y67556133D01*
X-30740381Y69032323D02*
X-30740381Y68556133D01*
X-30740381Y68556133D02*
X-30264191Y68508514D01*
X-30264191Y68508514D02*
X-30311810Y68556133D01*
X-30311810Y68556133D02*
X-30359429Y68651371D01*
X-30359429Y68651371D02*
X-30359429Y68889466D01*
X-30359429Y68889466D02*
X-30311810Y68984704D01*
X-30311810Y68984704D02*
X-30264191Y69032323D01*
X-30264191Y69032323D02*
X-30168953Y69079942D01*
X-30168953Y69079942D02*
X-29930858Y69079942D01*
X-29930858Y69079942D02*
X-29835620Y69032323D01*
X-29835620Y69032323D02*
X-29788000Y68984704D01*
X-29788000Y68984704D02*
X-29740381Y68889466D01*
X-29740381Y68889466D02*
X-29740381Y68651371D01*
X-29740381Y68651371D02*
X-29788000Y68556133D01*
X-29788000Y68556133D02*
X-29835620Y68508514D01*
%TO.C,M2*%
X-9826524Y55131656D02*
X-9826524Y56131656D01*
X-9826524Y56131656D02*
X-9493191Y55417371D01*
X-9493191Y55417371D02*
X-9159858Y56131656D01*
X-9159858Y56131656D02*
X-9159858Y55131656D01*
X-8731286Y56036418D02*
X-8683667Y56084037D01*
X-8683667Y56084037D02*
X-8588429Y56131656D01*
X-8588429Y56131656D02*
X-8350334Y56131656D01*
X-8350334Y56131656D02*
X-8255096Y56084037D01*
X-8255096Y56084037D02*
X-8207477Y56036418D01*
X-8207477Y56036418D02*
X-8159858Y55941180D01*
X-8159858Y55941180D02*
X-8159858Y55845942D01*
X-8159858Y55845942D02*
X-8207477Y55703085D01*
X-8207477Y55703085D02*
X-8778905Y55131656D01*
X-8778905Y55131656D02*
X-8159858Y55131656D01*
%TO.C,H9*%
X-42875105Y66745781D02*
X-42875105Y67745781D01*
X-42875105Y67269591D02*
X-42303677Y67269591D01*
X-42303677Y66745781D02*
X-42303677Y67745781D01*
X-41779867Y66745781D02*
X-41589391Y66745781D01*
X-41589391Y66745781D02*
X-41494153Y66793400D01*
X-41494153Y66793400D02*
X-41446534Y66841020D01*
X-41446534Y66841020D02*
X-41351296Y66983877D01*
X-41351296Y66983877D02*
X-41303677Y67174353D01*
X-41303677Y67174353D02*
X-41303677Y67555305D01*
X-41303677Y67555305D02*
X-41351296Y67650543D01*
X-41351296Y67650543D02*
X-41398915Y67698162D01*
X-41398915Y67698162D02*
X-41494153Y67745781D01*
X-41494153Y67745781D02*
X-41684629Y67745781D01*
X-41684629Y67745781D02*
X-41779867Y67698162D01*
X-41779867Y67698162D02*
X-41827486Y67650543D01*
X-41827486Y67650543D02*
X-41875105Y67555305D01*
X-41875105Y67555305D02*
X-41875105Y67317210D01*
X-41875105Y67317210D02*
X-41827486Y67221972D01*
X-41827486Y67221972D02*
X-41779867Y67174353D01*
X-41779867Y67174353D02*
X-41684629Y67126734D01*
X-41684629Y67126734D02*
X-41494153Y67126734D01*
X-41494153Y67126734D02*
X-41398915Y67174353D01*
X-41398915Y67174353D02*
X-41351296Y67221972D01*
X-41351296Y67221972D02*
X-41303677Y67317210D01*
%TO.C,C19*%
X-60536058Y87897620D02*
X-60583677Y87850000D01*
X-60583677Y87850000D02*
X-60726534Y87802381D01*
X-60726534Y87802381D02*
X-60821772Y87802381D01*
X-60821772Y87802381D02*
X-60964629Y87850000D01*
X-60964629Y87850000D02*
X-61059867Y87945239D01*
X-61059867Y87945239D02*
X-61107486Y88040477D01*
X-61107486Y88040477D02*
X-61155105Y88230953D01*
X-61155105Y88230953D02*
X-61155105Y88373810D01*
X-61155105Y88373810D02*
X-61107486Y88564286D01*
X-61107486Y88564286D02*
X-61059867Y88659524D01*
X-61059867Y88659524D02*
X-60964629Y88754762D01*
X-60964629Y88754762D02*
X-60821772Y88802381D01*
X-60821772Y88802381D02*
X-60726534Y88802381D01*
X-60726534Y88802381D02*
X-60583677Y88754762D01*
X-60583677Y88754762D02*
X-60536058Y88707143D01*
X-59583677Y87802381D02*
X-60155105Y87802381D01*
X-59869391Y87802381D02*
X-59869391Y88802381D01*
X-59869391Y88802381D02*
X-59964629Y88659524D01*
X-59964629Y88659524D02*
X-60059867Y88564286D01*
X-60059867Y88564286D02*
X-60155105Y88516667D01*
X-59107486Y87802381D02*
X-58917010Y87802381D01*
X-58917010Y87802381D02*
X-58821772Y87850000D01*
X-58821772Y87850000D02*
X-58774153Y87897620D01*
X-58774153Y87897620D02*
X-58678915Y88040477D01*
X-58678915Y88040477D02*
X-58631296Y88230953D01*
X-58631296Y88230953D02*
X-58631296Y88611905D01*
X-58631296Y88611905D02*
X-58678915Y88707143D01*
X-58678915Y88707143D02*
X-58726534Y88754762D01*
X-58726534Y88754762D02*
X-58821772Y88802381D01*
X-58821772Y88802381D02*
X-59012248Y88802381D01*
X-59012248Y88802381D02*
X-59107486Y88754762D01*
X-59107486Y88754762D02*
X-59155105Y88707143D01*
X-59155105Y88707143D02*
X-59202724Y88611905D01*
X-59202724Y88611905D02*
X-59202724Y88373810D01*
X-59202724Y88373810D02*
X-59155105Y88278572D01*
X-59155105Y88278572D02*
X-59107486Y88230953D01*
X-59107486Y88230953D02*
X-59012248Y88183334D01*
X-59012248Y88183334D02*
X-58821772Y88183334D01*
X-58821772Y88183334D02*
X-58726534Y88230953D01*
X-58726534Y88230953D02*
X-58678915Y88278572D01*
X-58678915Y88278572D02*
X-58631296Y88373810D01*
%TO.C,TP1*%
X-109400785Y34621296D02*
X-109400785Y35192724D01*
X-108400785Y34907010D02*
X-109400785Y34907010D01*
X-108400785Y35526058D02*
X-109400785Y35526058D01*
X-109400785Y35526058D02*
X-109400785Y35907010D01*
X-109400785Y35907010D02*
X-109353166Y36002248D01*
X-109353166Y36002248D02*
X-109305547Y36049867D01*
X-109305547Y36049867D02*
X-109210309Y36097486D01*
X-109210309Y36097486D02*
X-109067452Y36097486D01*
X-109067452Y36097486D02*
X-108972214Y36049867D01*
X-108972214Y36049867D02*
X-108924595Y36002248D01*
X-108924595Y36002248D02*
X-108876976Y35907010D01*
X-108876976Y35907010D02*
X-108876976Y35526058D01*
X-108400785Y37049867D02*
X-108400785Y36478439D01*
X-108400785Y36764153D02*
X-109400785Y36764153D01*
X-109400785Y36764153D02*
X-109257928Y36668915D01*
X-109257928Y36668915D02*
X-109162690Y36573677D01*
X-109162690Y36573677D02*
X-109115071Y36478439D01*
%TO.C,R38*%
X-28963858Y74152656D02*
X-29297191Y74628847D01*
X-29535286Y74152656D02*
X-29535286Y75152656D01*
X-29535286Y75152656D02*
X-29154334Y75152656D01*
X-29154334Y75152656D02*
X-29059096Y75105037D01*
X-29059096Y75105037D02*
X-29011477Y75057418D01*
X-29011477Y75057418D02*
X-28963858Y74962180D01*
X-28963858Y74962180D02*
X-28963858Y74819323D01*
X-28963858Y74819323D02*
X-29011477Y74724085D01*
X-29011477Y74724085D02*
X-29059096Y74676466D01*
X-29059096Y74676466D02*
X-29154334Y74628847D01*
X-29154334Y74628847D02*
X-29535286Y74628847D01*
X-28630524Y75152656D02*
X-28011477Y75152656D01*
X-28011477Y75152656D02*
X-28344810Y74771704D01*
X-28344810Y74771704D02*
X-28201953Y74771704D01*
X-28201953Y74771704D02*
X-28106715Y74724085D01*
X-28106715Y74724085D02*
X-28059096Y74676466D01*
X-28059096Y74676466D02*
X-28011477Y74581228D01*
X-28011477Y74581228D02*
X-28011477Y74343133D01*
X-28011477Y74343133D02*
X-28059096Y74247895D01*
X-28059096Y74247895D02*
X-28106715Y74200275D01*
X-28106715Y74200275D02*
X-28201953Y74152656D01*
X-28201953Y74152656D02*
X-28487667Y74152656D01*
X-28487667Y74152656D02*
X-28582905Y74200275D01*
X-28582905Y74200275D02*
X-28630524Y74247895D01*
X-27440048Y74724085D02*
X-27535286Y74771704D01*
X-27535286Y74771704D02*
X-27582905Y74819323D01*
X-27582905Y74819323D02*
X-27630524Y74914561D01*
X-27630524Y74914561D02*
X-27630524Y74962180D01*
X-27630524Y74962180D02*
X-27582905Y75057418D01*
X-27582905Y75057418D02*
X-27535286Y75105037D01*
X-27535286Y75105037D02*
X-27440048Y75152656D01*
X-27440048Y75152656D02*
X-27249572Y75152656D01*
X-27249572Y75152656D02*
X-27154334Y75105037D01*
X-27154334Y75105037D02*
X-27106715Y75057418D01*
X-27106715Y75057418D02*
X-27059096Y74962180D01*
X-27059096Y74962180D02*
X-27059096Y74914561D01*
X-27059096Y74914561D02*
X-27106715Y74819323D01*
X-27106715Y74819323D02*
X-27154334Y74771704D01*
X-27154334Y74771704D02*
X-27249572Y74724085D01*
X-27249572Y74724085D02*
X-27440048Y74724085D01*
X-27440048Y74724085D02*
X-27535286Y74676466D01*
X-27535286Y74676466D02*
X-27582905Y74628847D01*
X-27582905Y74628847D02*
X-27630524Y74533609D01*
X-27630524Y74533609D02*
X-27630524Y74343133D01*
X-27630524Y74343133D02*
X-27582905Y74247895D01*
X-27582905Y74247895D02*
X-27535286Y74200275D01*
X-27535286Y74200275D02*
X-27440048Y74152656D01*
X-27440048Y74152656D02*
X-27249572Y74152656D01*
X-27249572Y74152656D02*
X-27154334Y74200275D01*
X-27154334Y74200275D02*
X-27106715Y74247895D01*
X-27106715Y74247895D02*
X-27059096Y74343133D01*
X-27059096Y74343133D02*
X-27059096Y74533609D01*
X-27059096Y74533609D02*
X-27106715Y74628847D01*
X-27106715Y74628847D02*
X-27154334Y74676466D01*
X-27154334Y74676466D02*
X-27249572Y74724085D01*
%TO.C,R37*%
X-9980381Y63968419D02*
X-10456572Y63635086D01*
X-9980381Y63396991D02*
X-10980381Y63396991D01*
X-10980381Y63396991D02*
X-10980381Y63777943D01*
X-10980381Y63777943D02*
X-10932762Y63873181D01*
X-10932762Y63873181D02*
X-10885143Y63920800D01*
X-10885143Y63920800D02*
X-10789905Y63968419D01*
X-10789905Y63968419D02*
X-10647048Y63968419D01*
X-10647048Y63968419D02*
X-10551810Y63920800D01*
X-10551810Y63920800D02*
X-10504191Y63873181D01*
X-10504191Y63873181D02*
X-10456572Y63777943D01*
X-10456572Y63777943D02*
X-10456572Y63396991D01*
X-10980381Y64301753D02*
X-10980381Y64920800D01*
X-10980381Y64920800D02*
X-10599429Y64587467D01*
X-10599429Y64587467D02*
X-10599429Y64730324D01*
X-10599429Y64730324D02*
X-10551810Y64825562D01*
X-10551810Y64825562D02*
X-10504191Y64873181D01*
X-10504191Y64873181D02*
X-10408953Y64920800D01*
X-10408953Y64920800D02*
X-10170858Y64920800D01*
X-10170858Y64920800D02*
X-10075620Y64873181D01*
X-10075620Y64873181D02*
X-10028000Y64825562D01*
X-10028000Y64825562D02*
X-9980381Y64730324D01*
X-9980381Y64730324D02*
X-9980381Y64444610D01*
X-9980381Y64444610D02*
X-10028000Y64349372D01*
X-10028000Y64349372D02*
X-10075620Y64301753D01*
X-10980381Y65254134D02*
X-10980381Y65920800D01*
X-10980381Y65920800D02*
X-9980381Y65492229D01*
%TO.C,H11*%
X-68238095Y44975656D02*
X-68238095Y45975656D01*
X-68238095Y45499466D02*
X-67666667Y45499466D01*
X-67666667Y44975656D02*
X-67666667Y45975656D01*
X-66666667Y44975656D02*
X-67238095Y44975656D01*
X-66952381Y44975656D02*
X-66952381Y45975656D01*
X-66952381Y45975656D02*
X-67047619Y45832799D01*
X-67047619Y45832799D02*
X-67142857Y45737561D01*
X-67142857Y45737561D02*
X-67238095Y45689942D01*
X-65714286Y44975656D02*
X-66285714Y44975656D01*
X-66000000Y44975656D02*
X-66000000Y45975656D01*
X-66000000Y45975656D02*
X-66095238Y45832799D01*
X-66095238Y45832799D02*
X-66190476Y45737561D01*
X-66190476Y45737561D02*
X-66285714Y45689942D01*
%TO.C,H13*%
X-39973095Y44975656D02*
X-39973095Y45975656D01*
X-39973095Y45499466D02*
X-39401667Y45499466D01*
X-39401667Y44975656D02*
X-39401667Y45975656D01*
X-38401667Y44975656D02*
X-38973095Y44975656D01*
X-38687381Y44975656D02*
X-38687381Y45975656D01*
X-38687381Y45975656D02*
X-38782619Y45832799D01*
X-38782619Y45832799D02*
X-38877857Y45737561D01*
X-38877857Y45737561D02*
X-38973095Y45689942D01*
X-38068333Y45975656D02*
X-37449286Y45975656D01*
X-37449286Y45975656D02*
X-37782619Y45594704D01*
X-37782619Y45594704D02*
X-37639762Y45594704D01*
X-37639762Y45594704D02*
X-37544524Y45547085D01*
X-37544524Y45547085D02*
X-37496905Y45499466D01*
X-37496905Y45499466D02*
X-37449286Y45404228D01*
X-37449286Y45404228D02*
X-37449286Y45166133D01*
X-37449286Y45166133D02*
X-37496905Y45070895D01*
X-37496905Y45070895D02*
X-37544524Y45023275D01*
X-37544524Y45023275D02*
X-37639762Y44975656D01*
X-37639762Y44975656D02*
X-37925476Y44975656D01*
X-37925476Y44975656D02*
X-38020714Y45023275D01*
X-38020714Y45023275D02*
X-38068333Y45070895D01*
%TO.C,TP6*%
X-26422381Y61571371D02*
X-26422381Y62142799D01*
X-25422381Y61857085D02*
X-26422381Y61857085D01*
X-25422381Y62476133D02*
X-26422381Y62476133D01*
X-26422381Y62476133D02*
X-26422381Y62857085D01*
X-26422381Y62857085D02*
X-26374762Y62952323D01*
X-26374762Y62952323D02*
X-26327143Y62999942D01*
X-26327143Y62999942D02*
X-26231905Y63047561D01*
X-26231905Y63047561D02*
X-26089048Y63047561D01*
X-26089048Y63047561D02*
X-25993810Y62999942D01*
X-25993810Y62999942D02*
X-25946191Y62952323D01*
X-25946191Y62952323D02*
X-25898572Y62857085D01*
X-25898572Y62857085D02*
X-25898572Y62476133D01*
X-26422381Y63904704D02*
X-26422381Y63714228D01*
X-26422381Y63714228D02*
X-26374762Y63618990D01*
X-26374762Y63618990D02*
X-26327143Y63571371D01*
X-26327143Y63571371D02*
X-26184286Y63476133D01*
X-26184286Y63476133D02*
X-25993810Y63428514D01*
X-25993810Y63428514D02*
X-25612858Y63428514D01*
X-25612858Y63428514D02*
X-25517620Y63476133D01*
X-25517620Y63476133D02*
X-25470000Y63523752D01*
X-25470000Y63523752D02*
X-25422381Y63618990D01*
X-25422381Y63618990D02*
X-25422381Y63809466D01*
X-25422381Y63809466D02*
X-25470000Y63904704D01*
X-25470000Y63904704D02*
X-25517620Y63952323D01*
X-25517620Y63952323D02*
X-25612858Y63999942D01*
X-25612858Y63999942D02*
X-25850953Y63999942D01*
X-25850953Y63999942D02*
X-25946191Y63952323D01*
X-25946191Y63952323D02*
X-25993810Y63904704D01*
X-25993810Y63904704D02*
X-26041429Y63809466D01*
X-26041429Y63809466D02*
X-26041429Y63618990D01*
X-26041429Y63618990D02*
X-25993810Y63523752D01*
X-25993810Y63523752D02*
X-25946191Y63476133D01*
X-25946191Y63476133D02*
X-25850953Y63428514D01*
%TO.C,R28*%
X-60214381Y66508418D02*
X-60690572Y66175085D01*
X-60214381Y65936990D02*
X-61214381Y65936990D01*
X-61214381Y65936990D02*
X-61214381Y66317942D01*
X-61214381Y66317942D02*
X-61166762Y66413180D01*
X-61166762Y66413180D02*
X-61119143Y66460799D01*
X-61119143Y66460799D02*
X-61023905Y66508418D01*
X-61023905Y66508418D02*
X-60881048Y66508418D01*
X-60881048Y66508418D02*
X-60785810Y66460799D01*
X-60785810Y66460799D02*
X-60738191Y66413180D01*
X-60738191Y66413180D02*
X-60690572Y66317942D01*
X-60690572Y66317942D02*
X-60690572Y65936990D01*
X-61119143Y66889371D02*
X-61166762Y66936990D01*
X-61166762Y66936990D02*
X-61214381Y67032228D01*
X-61214381Y67032228D02*
X-61214381Y67270323D01*
X-61214381Y67270323D02*
X-61166762Y67365561D01*
X-61166762Y67365561D02*
X-61119143Y67413180D01*
X-61119143Y67413180D02*
X-61023905Y67460799D01*
X-61023905Y67460799D02*
X-60928667Y67460799D01*
X-60928667Y67460799D02*
X-60785810Y67413180D01*
X-60785810Y67413180D02*
X-60214381Y66841752D01*
X-60214381Y66841752D02*
X-60214381Y67460799D01*
X-60785810Y68032228D02*
X-60833429Y67936990D01*
X-60833429Y67936990D02*
X-60881048Y67889371D01*
X-60881048Y67889371D02*
X-60976286Y67841752D01*
X-60976286Y67841752D02*
X-61023905Y67841752D01*
X-61023905Y67841752D02*
X-61119143Y67889371D01*
X-61119143Y67889371D02*
X-61166762Y67936990D01*
X-61166762Y67936990D02*
X-61214381Y68032228D01*
X-61214381Y68032228D02*
X-61214381Y68222704D01*
X-61214381Y68222704D02*
X-61166762Y68317942D01*
X-61166762Y68317942D02*
X-61119143Y68365561D01*
X-61119143Y68365561D02*
X-61023905Y68413180D01*
X-61023905Y68413180D02*
X-60976286Y68413180D01*
X-60976286Y68413180D02*
X-60881048Y68365561D01*
X-60881048Y68365561D02*
X-60833429Y68317942D01*
X-60833429Y68317942D02*
X-60785810Y68222704D01*
X-60785810Y68222704D02*
X-60785810Y68032228D01*
X-60785810Y68032228D02*
X-60738191Y67936990D01*
X-60738191Y67936990D02*
X-60690572Y67889371D01*
X-60690572Y67889371D02*
X-60595334Y67841752D01*
X-60595334Y67841752D02*
X-60404858Y67841752D01*
X-60404858Y67841752D02*
X-60309620Y67889371D01*
X-60309620Y67889371D02*
X-60262000Y67936990D01*
X-60262000Y67936990D02*
X-60214381Y68032228D01*
X-60214381Y68032228D02*
X-60214381Y68222704D01*
X-60214381Y68222704D02*
X-60262000Y68317942D01*
X-60262000Y68317942D02*
X-60309620Y68365561D01*
X-60309620Y68365561D02*
X-60404858Y68413180D01*
X-60404858Y68413180D02*
X-60595334Y68413180D01*
X-60595334Y68413180D02*
X-60690572Y68365561D01*
X-60690572Y68365561D02*
X-60738191Y68317942D01*
X-60738191Y68317942D02*
X-60785810Y68222704D01*
%TO.C,H1*%
X-143937309Y64386581D02*
X-143937309Y65386581D01*
X-143937309Y64910391D02*
X-143365881Y64910391D01*
X-143365881Y64386581D02*
X-143365881Y65386581D01*
X-142365881Y64386581D02*
X-142937309Y64386581D01*
X-142651595Y64386581D02*
X-142651595Y65386581D01*
X-142651595Y65386581D02*
X-142746833Y65243724D01*
X-142746833Y65243724D02*
X-142842071Y65148486D01*
X-142842071Y65148486D02*
X-142937309Y65100867D01*
%TO.C,M1*%
X-39653524Y21993856D02*
X-39653524Y22993856D01*
X-39653524Y22993856D02*
X-39320191Y22279571D01*
X-39320191Y22279571D02*
X-38986858Y22993856D01*
X-38986858Y22993856D02*
X-38986858Y21993856D01*
X-37986858Y21993856D02*
X-38558286Y21993856D01*
X-38272572Y21993856D02*
X-38272572Y22993856D01*
X-38272572Y22993856D02*
X-38367810Y22850999D01*
X-38367810Y22850999D02*
X-38463048Y22755761D01*
X-38463048Y22755761D02*
X-38558286Y22708142D01*
%TO.C,J12*%
X-21474381Y10597952D02*
X-20760096Y10597952D01*
X-20760096Y10597952D02*
X-20617239Y10550333D01*
X-20617239Y10550333D02*
X-20522000Y10455095D01*
X-20522000Y10455095D02*
X-20474381Y10312238D01*
X-20474381Y10312238D02*
X-20474381Y10217000D01*
X-20474381Y11597952D02*
X-20474381Y11026524D01*
X-20474381Y11312238D02*
X-21474381Y11312238D01*
X-21474381Y11312238D02*
X-21331524Y11217000D01*
X-21331524Y11217000D02*
X-21236286Y11121762D01*
X-21236286Y11121762D02*
X-21188667Y11026524D01*
X-21379143Y11978905D02*
X-21426762Y12026524D01*
X-21426762Y12026524D02*
X-21474381Y12121762D01*
X-21474381Y12121762D02*
X-21474381Y12359857D01*
X-21474381Y12359857D02*
X-21426762Y12455095D01*
X-21426762Y12455095D02*
X-21379143Y12502714D01*
X-21379143Y12502714D02*
X-21283905Y12550333D01*
X-21283905Y12550333D02*
X-21188667Y12550333D01*
X-21188667Y12550333D02*
X-21045810Y12502714D01*
X-21045810Y12502714D02*
X-20474381Y11931286D01*
X-20474381Y11931286D02*
X-20474381Y12550333D01*
D14*
%TO.C,J1*%
X-126038204Y87663200D02*
X-126038204Y79923200D01*
X-126038204Y87663200D02*
X-123438204Y87663200D01*
X-126038204Y79923200D02*
X-120838204Y79923200D01*
X-123438204Y87663200D02*
X-123438204Y85063200D01*
X-123438204Y85063200D02*
X-120838204Y85063200D01*
X-122168204Y87663200D02*
X-120838204Y87663200D01*
X-120838204Y87663200D02*
X-120838204Y86333200D01*
X-120838204Y85063200D02*
X-120838204Y79923200D01*
%TO.C,R33*%
X-35152000Y101198023D02*
X-35152000Y101720527D01*
X-33682000Y101198023D02*
X-33682000Y101720527D01*
%TO.C,J3*%
X-146750204Y27877000D02*
X-115780204Y27877000D01*
X-146750204Y17397000D02*
X-146750204Y27877000D01*
X-125975204Y28771338D02*
X-125475204Y28771338D01*
X-125725204Y28338325D02*
X-125975204Y28771338D01*
X-125475204Y28771338D02*
X-125725204Y28338325D01*
X-115780204Y27877000D02*
X-115780204Y17397000D01*
D15*
%TO.C,J2*%
X-138341404Y52178200D02*
X-138341404Y48241200D01*
X-138341404Y48241200D02*
X-138341404Y47098200D01*
X-138341404Y48241200D02*
X-133769404Y48241200D01*
X-138314404Y51035200D02*
X-133769404Y51035200D01*
X-133769404Y52178200D02*
X-133261404Y52178200D01*
X-133769404Y51035200D02*
X-133769404Y52178200D01*
X-133769404Y48241200D02*
X-133769404Y51035200D01*
X-133769404Y47225200D02*
X-133769404Y48241200D01*
X-133261404Y52178200D02*
X-133261404Y47225200D01*
X-133261404Y52178200D02*
X-132753404Y52178200D01*
X-133261404Y47225200D02*
X-133769404Y47225200D01*
X-132753404Y52178200D02*
X-132753404Y47225200D01*
X-132753404Y52178200D02*
X-132245404Y52178200D01*
X-132753404Y47225200D02*
X-133261404Y47225200D01*
X-132245404Y52178200D02*
X-132245404Y47225200D01*
X-132245404Y52178200D02*
X-131737404Y52178200D01*
X-132245404Y47225200D02*
X-132753404Y47225200D01*
X-131737404Y52178200D02*
X-131737404Y47225200D01*
X-131737404Y52178200D02*
X-131229404Y52178200D01*
X-131737404Y47225200D02*
X-132245404Y47225200D01*
X-131229404Y52178200D02*
X-131229404Y47225200D01*
X-131229404Y52178200D02*
X-130721404Y52178200D01*
X-131229404Y47225200D02*
X-131737404Y47225200D01*
X-130721404Y52178200D02*
X-130721404Y47225200D01*
X-130721404Y47225200D02*
X-131229404Y47225200D01*
D14*
%TO.C,TP8*%
X-10777000Y5946475D02*
X-5697000Y5946475D01*
X-10777000Y1882475D02*
X-10777000Y5946475D01*
X-5697000Y5946475D02*
X-5697000Y1882475D01*
X-5697000Y1882475D02*
X-10777000Y1882475D01*
%TO.C,Cn1*%
X-115022004Y47606200D02*
X-115022004Y52686200D01*
X-110958004Y47606200D02*
X-115022004Y47606200D01*
X-115022004Y52686200D02*
X-110958004Y52686200D01*
X-110958004Y52686200D02*
X-110958004Y47606200D01*
%TO.C,R29*%
X-67937748Y88514275D02*
X-68460252Y88514275D01*
X-67937748Y89984275D02*
X-68460252Y89984275D01*
%TO.C,U11*%
X-51091000Y69751275D02*
X-51091000Y64551275D01*
X-51091000Y64551275D02*
X-46191000Y64551275D01*
X-49641000Y69751275D02*
X-51091000Y69751275D01*
X-46191000Y69751275D02*
X-47641000Y69751275D01*
X-46191000Y64551275D02*
X-46191000Y69751275D01*
X-49641000Y69751275D02*
G75*
G03*
X-47641000Y69751275I1000000J0D01*
G01*
%TO.C,C26*%
X-36695749Y88260275D02*
X-37218253Y88260275D01*
X-36695749Y89730275D02*
X-37218253Y89730275D01*
%TO.C,RV4*%
X-62400000Y93185275D02*
X-62400000Y97925275D01*
X-62400000Y93185275D02*
X-62731000Y93185275D01*
X-62400000Y97925275D02*
X-63530000Y97925275D01*
X-64511000Y93185275D02*
X-65030000Y93185275D01*
X-66010000Y97925275D02*
X-67140000Y97925275D01*
X-66810000Y93185275D02*
X-67140000Y93185275D01*
X-67140000Y93185275D02*
X-67140000Y97925275D01*
%TO.C,U5*%
X-111722004Y81972200D02*
X-111722004Y85572200D01*
X-116172004Y83772200D02*
G75*
G03*
X-111733526Y81933722I2600000J0D01*
G01*
X-111733526Y85610678D02*
G75*
G03*
X-116172004Y83772200I-1838478J-1838478D01*
G01*
%TO.C,R36*%
X-28059748Y85720275D02*
X-28582252Y85720275D01*
X-28059748Y87190275D02*
X-28582252Y87190275D01*
%TO.C,C21*%
X-41302748Y92117275D02*
X-41825252Y92117275D01*
X-41302748Y93587275D02*
X-41825252Y93587275D01*
%TO.C,TP3*%
X-100379804Y41064800D02*
X-95299804Y41064800D01*
X-100379804Y37000800D02*
X-100379804Y41064800D01*
X-95299804Y41064800D02*
X-95299804Y37000800D01*
X-95299804Y37000800D02*
X-100379804Y37000800D01*
%TO.C,R32*%
X-56742000Y66890023D02*
X-56742000Y67412527D01*
X-55272000Y66890023D02*
X-55272000Y67412527D01*
%TO.C,J6*%
X-126385204Y40279000D02*
X-126385204Y36279000D01*
X-126095204Y41309000D02*
X-126095204Y35289000D01*
X-126095204Y35289000D02*
X-110635204Y35289000D01*
X-125515204Y41309000D02*
X-125515204Y40709000D01*
X-125515204Y40709000D02*
X-123915204Y40709000D01*
X-124715204Y36289000D02*
X-124465204Y36819000D01*
X-124715204Y36289000D02*
X-112015204Y36289000D01*
X-124715204Y35289000D02*
X-124715204Y36289000D01*
X-124465204Y36819000D02*
X-112265204Y36819000D01*
X-124465204Y35289000D02*
X-124465204Y36289000D01*
X-123915204Y40709000D02*
X-123915204Y41309000D01*
X-122975204Y41309000D02*
X-122975204Y40709000D01*
X-122975204Y40709000D02*
X-121375204Y40709000D01*
X-121375204Y40709000D02*
X-121375204Y41309000D01*
X-120435204Y41309000D02*
X-120435204Y40709000D01*
X-120435204Y40709000D02*
X-118835204Y40709000D01*
X-118835204Y40709000D02*
X-118835204Y41309000D01*
X-117895204Y41309000D02*
X-117895204Y40709000D01*
X-117895204Y40709000D02*
X-116295204Y40709000D01*
X-116295204Y40709000D02*
X-116295204Y41309000D01*
X-115355204Y41309000D02*
X-115355204Y40709000D01*
X-115355204Y40709000D02*
X-113755204Y40709000D01*
X-113755204Y40709000D02*
X-113755204Y41309000D01*
X-112815204Y41309000D02*
X-112815204Y40709000D01*
X-112815204Y40709000D02*
X-111215204Y40709000D01*
X-112265204Y36819000D02*
X-112015204Y36289000D01*
X-112265204Y35289000D02*
X-112265204Y36289000D01*
X-112015204Y36289000D02*
X-112015204Y35289000D01*
X-111215204Y40709000D02*
X-111215204Y41309000D01*
X-110635204Y41309000D02*
X-126095204Y41309000D01*
X-110635204Y35289000D02*
X-110635204Y41309000D01*
%TO.C,U9*%
X-51181000Y102711275D02*
X-51181000Y97123275D01*
X-56261000Y102711275D02*
X-56261000Y97123275D01*
X-61401000Y99850275D02*
X-61401000Y93380275D01*
X-46101000Y96107275D02*
X-49149000Y96107275D01*
X-51943000Y96107275D02*
X-55245000Y96107275D01*
X-57785000Y96107275D02*
X-61595000Y96107275D01*
X-51181000Y90519275D02*
X-51181000Y95091275D01*
X-56261000Y90519275D02*
X-56261000Y95091275D01*
%TO.C,C23*%
X-41825252Y95873275D02*
X-41302748Y95873275D01*
X-41825252Y94403275D02*
X-41302748Y94403275D01*
%TO.C,J15*%
X-5130800Y27392275D02*
X-5130800Y47712275D01*
X-5130800Y27392275D02*
X-30530800Y27392275D01*
X-5130800Y47712275D02*
X-5130800Y27392275D01*
X-5130800Y47712275D02*
X-7670800Y47712275D01*
X-7670800Y47712275D02*
X-7670800Y50023675D01*
X-7670800Y50023675D02*
X-30530800Y50023675D01*
X-30530800Y27392275D02*
X-30530800Y50023675D01*
%TO.C,R31*%
X-68099000Y93320526D02*
X-68099000Y92798022D01*
X-69569000Y93320526D02*
X-69569000Y92798022D01*
%TO.C,R34*%
X-35152000Y103484022D02*
X-35152000Y104006526D01*
X-33682000Y103484022D02*
X-33682000Y104006526D01*
%TO.C,C20*%
X-68099000Y97892528D02*
X-68099000Y97370024D01*
X-69569000Y97892528D02*
X-69569000Y97370024D01*
%TO.C,RV2*%
X-105634204Y15559000D02*
X-102394204Y15559000D01*
X-105634204Y15559000D02*
X-105634204Y17078000D01*
X-104014204Y15559000D02*
X-104014204Y16318000D01*
X-102394204Y15559000D02*
X-102394204Y17078000D01*
X-105634204Y17078000D02*
X-102394204Y17078000D01*
X-106164204Y17079000D02*
X-101864204Y17079000D01*
X-106164204Y17079000D02*
X-106164204Y24810000D01*
X-101864204Y17079000D02*
X-101864204Y19730000D01*
X-101864204Y21269000D02*
X-101864204Y32430000D01*
X-106164204Y26349000D02*
X-106164204Y36619000D01*
X-101864204Y33969000D02*
X-101864204Y36619000D01*
X-106164204Y36619000D02*
X-101864204Y36619000D01*
%TO.C,U6*%
X-96438804Y41826800D02*
X-79678804Y41826800D01*
X-79678804Y41826800D02*
X-79678804Y19346800D01*
X-79678804Y19346800D02*
X-96438804Y19346800D01*
X-96438804Y19346800D02*
X-96438804Y41826800D01*
D12*
X-89584804Y19474800D02*
X-95553804Y19474800D01*
X-95553804Y19474800D02*
X-95553804Y9187800D01*
X-95553804Y9187800D02*
X-89584804Y9187800D01*
X-89584804Y9187800D02*
X-89584804Y19474800D01*
X-88822804Y19346800D02*
X-96442804Y19346800D01*
X-96442804Y19346800D02*
X-96442804Y17569800D01*
X-96442804Y17569800D02*
X-88822804Y17569800D01*
X-88822804Y17569800D02*
X-88822804Y19346800D01*
X-82353805Y40556800D02*
G75*
G03*
X-82353805Y40556800I-499999J0D01*
G01*
X-82103805Y40556800D02*
G75*
G03*
X-82103805Y40556800I-749999J0D01*
G01*
X-84893804Y40556800D02*
G75*
G03*
X-84893804Y40556800I-500000J0D01*
G01*
X-84643804Y40556800D02*
G75*
G03*
X-84643804Y40556800I-750000J0D01*
G01*
X-87433804Y40556800D02*
G75*
G03*
X-87433804Y40556800I-500000J0D01*
G01*
X-87183804Y40556800D02*
G75*
G03*
X-87183804Y40556800I-750000J0D01*
G01*
X-89973804Y40556800D02*
G75*
G03*
X-89973804Y40556800I-500000J0D01*
G01*
X-89723804Y40556800D02*
G75*
G03*
X-89723804Y40556800I-750000J0D01*
G01*
X-92513804Y40556800D02*
G75*
G03*
X-92513804Y40556800I-500000J0D01*
G01*
X-92263804Y40556800D02*
G75*
G03*
X-92263804Y40556800I-750000J0D01*
G01*
X-81087804Y21760800D02*
G75*
G03*
X-81087804Y21760800I-750000J0D01*
G01*
X-80637804Y21760800D02*
G75*
G03*
X-80637804Y21760800I-1200000J0D01*
G01*
X-85417804Y21760800D02*
G75*
G03*
X-85417804Y21760800I-1500000J0D01*
G01*
D14*
%TO.C,J5*%
X-146705204Y40279000D02*
X-146705204Y36279000D01*
X-146415204Y41309000D02*
X-146415204Y35289000D01*
X-146415204Y35289000D02*
X-128415204Y35289000D01*
X-145835204Y41309000D02*
X-145835204Y40709000D01*
X-145835204Y40709000D02*
X-144235204Y40709000D01*
X-145035204Y36289000D02*
X-144785204Y36819000D01*
X-145035204Y36289000D02*
X-139955204Y36289000D01*
X-145035204Y35289000D02*
X-145035204Y36289000D01*
X-144785204Y36819000D02*
X-139955204Y36819000D01*
X-144785204Y35289000D02*
X-144785204Y36289000D01*
X-144235204Y40709000D02*
X-144235204Y41309000D01*
X-143295204Y41309000D02*
X-143295204Y40709000D01*
X-143295204Y40709000D02*
X-141695204Y40709000D01*
X-141695204Y40709000D02*
X-141695204Y41309000D01*
X-140755204Y41309000D02*
X-140755204Y40709000D01*
X-140755204Y40709000D02*
X-139155204Y40709000D01*
X-139955204Y36819000D02*
X-139955204Y36289000D01*
X-139955204Y36289000D02*
X-139955204Y35289000D01*
X-139155204Y40709000D02*
X-139155204Y41309000D01*
X-138215204Y41309000D02*
X-138215204Y40709000D01*
X-138215204Y40709000D02*
X-136615204Y40709000D01*
X-136615204Y40709000D02*
X-136615204Y41309000D01*
X-135675204Y41309000D02*
X-135675204Y40709000D01*
X-135675204Y40709000D02*
X-134075204Y40709000D01*
X-134875204Y36819000D02*
X-134875204Y36289000D01*
X-134875204Y36289000D02*
X-134875204Y35289000D01*
X-134075204Y40709000D02*
X-134075204Y41309000D01*
X-133135204Y41309000D02*
X-133135204Y40709000D01*
X-133135204Y40709000D02*
X-131535204Y40709000D01*
X-131535204Y40709000D02*
X-131535204Y41309000D01*
X-130595204Y41309000D02*
X-130595204Y40709000D01*
X-130595204Y40709000D02*
X-128995204Y40709000D01*
X-130045204Y36819000D02*
X-134875204Y36819000D01*
X-130045204Y35289000D02*
X-130045204Y36289000D01*
X-129795204Y36289000D02*
X-134875204Y36289000D01*
X-129795204Y36289000D02*
X-130045204Y36819000D01*
X-129795204Y35289000D02*
X-129795204Y36289000D01*
X-128995204Y40709000D02*
X-128995204Y41309000D01*
X-128415204Y41309000D02*
X-146415204Y41309000D01*
X-128415204Y35289000D02*
X-128415204Y41309000D01*
%TO.C,RV1*%
X-100554204Y15559000D02*
X-97314204Y15559000D01*
X-100554204Y15559000D02*
X-100554204Y17078000D01*
X-98934204Y15559000D02*
X-98934204Y16318000D01*
X-97314204Y15559000D02*
X-97314204Y17078000D01*
X-100554204Y17078000D02*
X-97314204Y17078000D01*
X-101084204Y17079000D02*
X-96784204Y17079000D01*
X-101084204Y17079000D02*
X-101084204Y24810000D01*
X-96784204Y17079000D02*
X-96784204Y19730000D01*
X-96784204Y21269000D02*
X-96784204Y32430000D01*
X-101084204Y26349000D02*
X-101084204Y36619000D01*
X-96784204Y33969000D02*
X-96784204Y36619000D01*
X-101084204Y36619000D02*
X-96784204Y36619000D01*
%TO.C,J14*%
X-46413200Y50955275D02*
X-56674800Y50955275D01*
X-46413200Y50955275D02*
X-46404000Y43474475D01*
X-56674800Y50955275D02*
X-56684000Y43474475D01*
X-48877000Y50929875D02*
X-48885900Y43474475D01*
X-54084000Y50929875D02*
X-54084000Y43474475D01*
X-51484000Y50904475D02*
X-51544000Y43474475D01*
X-46404000Y43474475D02*
X-56684000Y43474475D01*
X-47374000Y43474475D02*
X-47374000Y43124475D01*
X-48094000Y43474475D02*
X-48094000Y43124475D01*
X-49914000Y43474475D02*
X-49914000Y43064475D01*
X-50634000Y43474475D02*
X-50634000Y43064475D01*
X-52454000Y43474475D02*
X-52454000Y43064475D01*
X-53174000Y43474475D02*
X-53174000Y43064475D01*
X-54994000Y43474475D02*
X-54994000Y43064475D01*
X-55714000Y43474475D02*
X-55714000Y43064475D01*
%TO.C,C24*%
X-37126252Y93587275D02*
X-36603748Y93587275D01*
X-37126252Y92117275D02*
X-36603748Y92117275D01*
D15*
%TO.C,J4*%
X-108332204Y18142400D02*
X-112269204Y18142400D01*
X-112269204Y18142400D02*
X-113412204Y18142400D01*
X-112269204Y18142400D02*
X-112269204Y13570400D01*
X-109475204Y18115400D02*
X-109475204Y13570400D01*
X-108332204Y13570400D02*
X-108332204Y13062400D01*
X-109475204Y13570400D02*
X-108332204Y13570400D01*
X-112269204Y13570400D02*
X-109475204Y13570400D01*
X-113285204Y13570400D02*
X-112269204Y13570400D01*
X-108332204Y13062400D02*
X-113285204Y13062400D01*
X-108332204Y13062400D02*
X-108332204Y12554400D01*
X-113285204Y13062400D02*
X-113285204Y13570400D01*
X-108332204Y12554400D02*
X-113285204Y12554400D01*
X-108332204Y12554400D02*
X-108332204Y12046400D01*
X-113285204Y12554400D02*
X-113285204Y13062400D01*
X-108332204Y12046400D02*
X-113285204Y12046400D01*
X-108332204Y12046400D02*
X-108332204Y11538400D01*
X-113285204Y12046400D02*
X-113285204Y12554400D01*
X-108332204Y11538400D02*
X-113285204Y11538400D01*
X-108332204Y11538400D02*
X-108332204Y11030400D01*
X-113285204Y11538400D02*
X-113285204Y12046400D01*
X-108332204Y11030400D02*
X-113285204Y11030400D01*
X-108332204Y11030400D02*
X-108332204Y10522400D01*
X-113285204Y11030400D02*
X-113285204Y11538400D01*
X-108332204Y10522400D02*
X-113285204Y10522400D01*
X-113285204Y10522400D02*
X-113285204Y11030400D01*
D14*
%TO.C,TP7*%
X-29337000Y60293275D02*
X-29337000Y65373275D01*
X-25273000Y60293275D02*
X-29337000Y60293275D01*
X-29337000Y65373275D02*
X-25273000Y65373275D01*
X-25273000Y65373275D02*
X-25273000Y60293275D01*
%TO.C,TP4*%
X-20955000Y70453275D02*
X-20955000Y65373275D01*
X-25019000Y70453275D02*
X-20955000Y70453275D01*
X-20955000Y65373275D02*
X-25019000Y65373275D01*
X-25019000Y65373275D02*
X-25019000Y70453275D01*
%TO.C,J7*%
X-82620204Y46263000D02*
X-82620204Y50263000D01*
X-82910204Y45233000D02*
X-82910204Y51253000D01*
X-82910204Y51253000D02*
X-103450204Y51253000D01*
X-83490204Y45233000D02*
X-83490204Y45833000D01*
X-83490204Y45833000D02*
X-85090204Y45833000D01*
X-84290204Y50253000D02*
X-84540204Y49723000D01*
X-84290204Y50253000D02*
X-89370204Y50253000D01*
X-84290204Y51253000D02*
X-84290204Y50253000D01*
X-84540204Y49723000D02*
X-89370204Y49723000D01*
X-84540204Y51253000D02*
X-84540204Y50253000D01*
X-85090204Y45833000D02*
X-85090204Y45233000D01*
X-86030204Y45233000D02*
X-86030204Y45833000D01*
X-86030204Y45833000D02*
X-87630204Y45833000D01*
X-87630204Y45833000D02*
X-87630204Y45233000D01*
X-88570204Y45233000D02*
X-88570204Y45833000D01*
X-88570204Y45833000D02*
X-90170204Y45833000D01*
X-89370204Y49723000D02*
X-89370204Y50253000D01*
X-89370204Y50253000D02*
X-89370204Y51253000D01*
X-90170204Y45833000D02*
X-90170204Y45233000D01*
X-91110204Y45233000D02*
X-91110204Y45833000D01*
X-91110204Y45833000D02*
X-92710204Y45833000D01*
X-92710204Y45833000D02*
X-92710204Y45233000D01*
X-93650204Y45233000D02*
X-93650204Y45833000D01*
X-93650204Y45833000D02*
X-95250204Y45833000D01*
X-95250204Y45833000D02*
X-95250204Y45233000D01*
X-96190204Y45233000D02*
X-96190204Y45833000D01*
X-96190204Y45833000D02*
X-97790204Y45833000D01*
X-96990204Y49723000D02*
X-96990204Y50253000D01*
X-96990204Y50253000D02*
X-96990204Y51253000D01*
X-97790204Y45833000D02*
X-97790204Y45233000D01*
X-98730204Y45233000D02*
X-98730204Y45833000D01*
X-98730204Y45833000D02*
X-100330204Y45833000D01*
X-100330204Y45833000D02*
X-100330204Y45233000D01*
X-101270204Y45233000D02*
X-101270204Y45833000D01*
X-101270204Y45833000D02*
X-102870204Y45833000D01*
X-101820204Y49723000D02*
X-96990204Y49723000D01*
X-101820204Y51253000D02*
X-101820204Y50253000D01*
X-102070204Y50253000D02*
X-96990204Y50253000D01*
X-102070204Y50253000D02*
X-101820204Y49723000D01*
X-102070204Y51253000D02*
X-102070204Y50253000D01*
X-102870204Y45833000D02*
X-102870204Y45233000D01*
X-103450204Y45233000D02*
X-82910204Y45233000D01*
X-103450204Y51253000D02*
X-103450204Y45233000D01*
%TO.C,R30*%
X-65158252Y101668275D02*
X-64635748Y101668275D01*
X-65158252Y100198275D02*
X-64635748Y100198275D01*
%TO.C,TP2*%
X-115952204Y28754000D02*
X-115952204Y33834000D01*
X-111888204Y28754000D02*
X-115952204Y28754000D01*
X-115952204Y33834000D02*
X-111888204Y33834000D01*
X-111888204Y33834000D02*
X-111888204Y28754000D01*
%TO.C,U10*%
X-70739000Y87090275D02*
X-70739000Y78073275D01*
X-70739000Y78073275D02*
X-44577000Y78073275D01*
X-66040000Y85947275D02*
X-66040000Y83407275D01*
X-66040000Y83407275D02*
X-64516000Y83407275D01*
X-66040000Y83153275D02*
X-66040000Y81629275D01*
X-66040000Y81629275D02*
X-62738000Y81629275D01*
X-64516000Y85947275D02*
X-66040000Y85947275D01*
X-64516000Y83407275D02*
X-64516000Y85947275D01*
X-63754000Y85947275D02*
X-63754000Y83407275D01*
X-63754000Y85947275D02*
X-62230000Y85947275D01*
X-63754000Y83407275D02*
X-62484000Y83407275D01*
X-62738000Y85947275D02*
X-63754000Y85947275D01*
X-62738000Y83153275D02*
X-66040000Y83153275D01*
X-62738000Y81629275D02*
X-62738000Y83153275D01*
X-62484000Y83407275D02*
X-62738000Y83407275D01*
X-62230000Y85947275D02*
X-62230000Y83407275D01*
X-62230000Y83407275D02*
X-62484000Y83407275D01*
X-61468000Y85947275D02*
X-60198000Y85947275D01*
X-61468000Y83407275D02*
X-61468000Y85947275D01*
X-60198000Y85947275D02*
X-60198000Y83407275D01*
X-60198000Y83407275D02*
X-61468000Y83407275D01*
X-58928000Y85947275D02*
X-58928000Y83407275D01*
X-58928000Y83407275D02*
X-57404000Y83407275D01*
X-57404000Y85947275D02*
X-58928000Y85947275D01*
X-57404000Y83407275D02*
X-57404000Y85947275D01*
X-56388000Y85947275D02*
X-56388000Y83407275D01*
X-56388000Y83407275D02*
X-54864000Y83407275D01*
X-54864000Y85947275D02*
X-56388000Y85947275D01*
X-54864000Y83407275D02*
X-54864000Y85947275D01*
X-54356000Y86582275D02*
X-49276000Y86582275D01*
X-54356000Y82518275D02*
X-54356000Y86582275D01*
X-49276000Y86582275D02*
X-49276000Y82518275D01*
X-49276000Y82518275D02*
X-54356000Y82518275D01*
X-44577000Y87090275D02*
X-70739000Y87090275D01*
X-44577000Y78073275D02*
X-44577000Y87090275D01*
%TO.C,R35*%
X-28059748Y93340275D02*
X-28582252Y93340275D01*
X-28059748Y94810275D02*
X-28582252Y94810275D01*
%TO.C,C25*%
X-36603748Y94403275D02*
X-37126252Y94403275D01*
X-36603748Y95873275D02*
X-37126252Y95873275D01*
%TO.C,TP5*%
X-29337000Y65373275D02*
X-29337000Y70453275D01*
X-25273000Y65373275D02*
X-29337000Y65373275D01*
X-29337000Y70453275D02*
X-25273000Y70453275D01*
X-25273000Y70453275D02*
X-25273000Y65373275D01*
D15*
%TO.C,M2*%
X-32781000Y105382275D02*
X-32781000Y57182275D01*
X-32781000Y57182275D02*
X-22901000Y57182275D01*
X-27831000Y111582275D02*
X-9831000Y111582275D01*
X-27831000Y105382275D02*
X-32781000Y105382275D01*
X-27831000Y105382275D02*
X-27831000Y111582275D01*
X-22901000Y57182275D02*
X-22901000Y56282275D01*
X-22901000Y56282275D02*
X-14771000Y56282275D01*
X-14771000Y57182275D02*
X-4881000Y57182275D01*
X-14771000Y56282275D02*
X-14771000Y57182275D01*
X-9831000Y111582275D02*
X-9831000Y105382275D01*
X-4881000Y105382275D02*
X-9831000Y105382275D01*
X-4881000Y57182275D02*
X-4881000Y105382275D01*
D12*
X-33301000Y104252275D02*
G75*
G03*
X-33301000Y104252275I-100000J0D01*
G01*
D14*
%TO.C,C19*%
X-63888252Y89984275D02*
X-63365748Y89984275D01*
X-63888252Y88514275D02*
X-63365748Y88514275D01*
%TO.C,TP1*%
X-110872204Y28754000D02*
X-110872204Y33834000D01*
X-106808204Y28754000D02*
X-110872204Y28754000D01*
X-110872204Y33834000D02*
X-106808204Y33834000D01*
X-106808204Y33834000D02*
X-106808204Y28754000D01*
%TO.C,R38*%
X-28059748Y75560275D02*
X-28582252Y75560275D01*
X-28059748Y77030275D02*
X-28582252Y77030275D01*
%TO.C,R37*%
X-9498000Y64350024D02*
X-9498000Y64872528D01*
X-8028000Y64350024D02*
X-8028000Y64872528D01*
%TO.C,TP6*%
X-25019000Y60293275D02*
X-25019000Y65373275D01*
X-20955000Y60293275D02*
X-25019000Y60293275D01*
X-25019000Y65373275D02*
X-20955000Y65373275D01*
X-20955000Y65373275D02*
X-20955000Y60293275D01*
%TO.C,R28*%
X-61622000Y67412527D02*
X-61622000Y66890023D01*
X-63092000Y67412527D02*
X-63092000Y66890023D01*
D12*
%TO.C,M1*%
X-32234000Y17356475D02*
X-33504000Y16086475D01*
X-32234001Y37716474D02*
X-32234001Y17356475D01*
X-32234001Y37716474D02*
X-33504001Y38986474D01*
X-33504000Y16086475D02*
X-69584000Y16086475D01*
X-33504001Y38986475D02*
X-69584000Y38986475D01*
X-40499020Y23716475D02*
X-40499020Y31356475D01*
X-40499020Y23716475D02*
X-43749921Y23716475D01*
X-40499020Y31356475D02*
X-43749921Y31356475D01*
X-41588622Y24356475D02*
X-41588622Y30716476D01*
X-41588622Y30716475D02*
X-44160157Y30716475D01*
X-44160157Y24356475D02*
X-41588622Y24356475D01*
X-69584000Y38986474D02*
X-70854000Y37716474D01*
X-70854000Y17356475D02*
X-69584000Y16086475D01*
X-70854000Y37716474D02*
X-70854000Y17356475D01*
X-43749922Y31356475D02*
G75*
G03*
X-43749922Y23716475I-10101858J-3820000D01*
G01*
X-44160158Y30716475D02*
G75*
G03*
X-44160158Y24356475I-9691622J-3180000D01*
G01*
X-33264001Y21186475D02*
G75*
G03*
X-33264001Y21186475I-499999J0D01*
G01*
X-33014001Y21186475D02*
G75*
G03*
X-33014001Y21186475I-749999J0D01*
G01*
X-33264000Y23726475D02*
G75*
G03*
X-33264000Y23726475I-500000J0D01*
G01*
X-33014000Y23726475D02*
G75*
G03*
X-33014000Y23726475I-750000J0D01*
G01*
X-33264000Y26266475D02*
G75*
G03*
X-33264000Y26266475I-500000J0D01*
G01*
X-33014000Y26266475D02*
G75*
G03*
X-33014000Y26266475I-750000J0D01*
G01*
X-33264000Y28806475D02*
G75*
G03*
X-33264000Y28806475I-500000J0D01*
G01*
X-33014000Y28806475D02*
G75*
G03*
X-33014000Y28806475I-750000J0D01*
G01*
X-33264000Y31346475D02*
G75*
G03*
X-33264000Y31346475I-500000J0D01*
G01*
X-33014000Y31346475D02*
G75*
G03*
X-33014000Y31346475I-750000J0D01*
G01*
X-33264001Y33886475D02*
G75*
G03*
X-33264001Y33886475I-499999J0D01*
G01*
X-33014001Y33886475D02*
G75*
G03*
X-33014001Y33886475I-749999J0D01*
G01*
X-38573999Y37136474D02*
G75*
G03*
X-38573999Y37136474I-1100000J0D01*
G01*
X-38574000Y17936475D02*
G75*
G03*
X-38574000Y17936475I-1100000J0D01*
G01*
X-40683867Y27802671D02*
G75*
G03*
X-40683867Y27802671I-750000J0D01*
G01*
X-40233867Y27802671D02*
G75*
G03*
X-40233867Y27802671I-1200000J0D01*
G01*
X-60184028Y27536639D02*
G75*
G03*
X-60184028Y27536639I-750000J0D01*
G01*
X-59734028Y27536639D02*
G75*
G03*
X-59734028Y27536639I-1200000J0D01*
G01*
X-65094000Y37136475D02*
G75*
G03*
X-65094000Y37136475I-1100000J0D01*
G01*
X-68824000Y23726475D02*
G75*
G03*
X-68824000Y23726475I-500000J0D01*
G01*
X-68574000Y23726475D02*
G75*
G03*
X-68574000Y23726475I-750000J0D01*
G01*
X-68824000Y26266475D02*
G75*
G03*
X-68824000Y26266475I-500000J0D01*
G01*
X-68574000Y26266475D02*
G75*
G03*
X-68574000Y26266475I-750000J0D01*
G01*
X-68824000Y28806475D02*
G75*
G03*
X-68824000Y28806475I-500000J0D01*
G01*
X-68574000Y28806475D02*
G75*
G03*
X-68574000Y28806475I-750000J0D01*
G01*
X-68824000Y31346475D02*
G75*
G03*
X-68824000Y31346475I-500000J0D01*
G01*
X-68574000Y31346475D02*
G75*
G03*
X-68574000Y31346475I-750000J0D01*
G01*
D14*
%TO.C,J12*%
X-16559000Y4295475D02*
X-16559000Y22135475D01*
X-16559000Y4295475D02*
X-19219000Y4295475D01*
X-16559000Y22135475D02*
X-19219000Y22135475D01*
X-17889000Y1695475D02*
X-19219000Y1695475D01*
X-19219000Y1695475D02*
X-19219000Y3025475D01*
X-19219000Y4295475D02*
X-19219000Y22135475D01*
%TD*%
M02*
