M48
; DRILL file {KiCad 7.0.1} date Thu Mar 16 09:26:03 2023
; FORMAT={-:-/ absolute / metric / decimal}
; #@! TF.CreationDate,2023-03-16T09:26:03+01:00
; #@! TF.GenerationSoftware,Kicad,Pcbnew,7.0.1
; #@! TF.FileFunction,MixedPlating,1,2
FMAT,2
METRIC
; #@! TA.AperFunction,Plated,PTH,ComponentDrill
T1C0.300
; #@! TA.AperFunction,Plated,PTH,ViaDrill
T2C0.400
; #@! TA.AperFunction,Plated,PTH,ComponentDrill
T3C0.600
; #@! TA.AperFunction,Plated,PTH,ComponentDrill
T4C0.850
; #@! TA.AperFunction,Plated,PTH,ComponentDrill
T5C1.000
; #@! TA.AperFunction,Plated,PTH,ComponentDrill
T6C1.200
; #@! TA.AperFunction,Plated,PTH,ComponentDrill
T7C1.500
; #@! TA.AperFunction,Plated,PTH,ComponentDrill
T8C2.200
; #@! TA.AperFunction,Plated,PTH,ComponentDrill
T9C3.200
%
G90
G05
T1
X-137.249Y65.611
X-136.995Y74.831
X-134.76Y74.831
X-134.76Y72.291
X-134.709Y65.611
X-132.599Y100.68
X-132.599Y98.14
X-131.735Y103.474
X-131.102Y67.789
X-130.772Y64.062
X-130.211Y100.579
X-129.703Y97.074
X-129.195Y103.474
X-128.562Y72.739
X-127.902Y83.59
X-125.87Y71.529
X-125.87Y68.989
X-125.67Y100.626
X-125.565Y75.644
X-124.72Y100.626
X-124.72Y98.351
X-123.77Y100.626
X-122.466Y67.789
X-122.092Y64.004
X-121.196Y72.739
X-119.926Y72.739
X-117.613Y100.782
X-117.613Y98.242
X-117.59Y85.072
X-117.59Y82.531
X-115.946Y68.129
X-115.174Y100.811
X-115.174Y98.271
X-114.422Y73.121
X-111.494Y75.644
X-111.247Y70.361
X-109.088Y72.905
X-108.961Y67.672
X-106.82Y75.644
X-104.229Y82.121
X-104.229Y79.581
X-102.051Y79.371
X-99.53Y56.797
X-99.511Y79.371
X-98.241Y84.321
X-98.241Y79.371
X-97.752Y87.904
X-96.99Y56.797
X-96.99Y54.257
X-95.654Y82.629
X-94.704Y82.629
X-92.291Y72.72
X-91.91Y61.522
X-91.91Y58.982
X-91.021Y67.77
X-89.751Y72.72
X-89.37Y56.797
X-88.481Y72.72
X-86.83Y56.797
X-86.322Y72.829
X-86.322Y70.289
X-84.417Y58.118
X-84.417Y55.197
X-84.112Y72.85
X-84.112Y70.31
X-83.909Y68.151
X-83.896Y65.992
X-68.834Y96.361
X-68.834Y94.329
X-63.62Y92.805
X-62.357Y89.249
X-62.357Y65.881
X-56.007Y65.881
X-52.451Y65.881
X-49.911Y66.135
X-44.831Y68.421
X-44.831Y65.881
X-42.834Y95.138
X-42.834Y92.852
X-40.294Y95.138
X-40.294Y92.852
X-38.227Y88.995
X-38.135Y95.138
X-38.135Y92.852
X-35.595Y95.138
X-35.595Y92.852
X-34.417Y104.882
X-34.417Y102.596
X-34.417Y100.322
X-27.051Y94.075
X-27.051Y86.455
X-27.051Y76.295
X-25.781Y100.171
X-14.714Y2.644
X-14.714Y5.057
X-12.174Y2.644
X-12.174Y5.057
X-8.763Y63.341
T2
X-146.772Y90.024
X-146.592Y41.016
X-146.592Y29.205
X-146.592Y19.426
X-146.518Y111.868
X-146.518Y99.422
X-146.518Y82.404
X-146.518Y64.878
X-146.518Y55.734
X-145.592Y18.205
X-145.502Y113.138
X-145.084Y43.097
X-142.495Y31.421
X-142.495Y31.421
X-142.29Y19.475
X-142.238Y111.023
X-141.184Y99.422
X-141.184Y82.404
X-140.004Y28.873
X-138.685Y18.975
X-138.685Y18.975
X-138.644Y57.258
X-138.136Y90.278
X-137.882Y107.042
X-137.718Y22.523
X-136.866Y52.432
X-136.866Y45.574
X-136.702Y43.097
X-136.612Y62.592
X-135.67Y96.916
X-135.416Y106.568
X-134.58Y99.422
X-134.58Y82.404
X-133.13Y93.614
X-133.056Y62.592
X-133.056Y57.258
X-131.86Y108.854
X-131.86Y106.314
X-131.532Y113.138
X-131.532Y83.674
X-131.278Y90.278
X-131.278Y45.574
X-130.313Y93.58
X-128.484Y48.876
X-128.066Y20.491
X-127.214Y78.34
X-127.05Y35.731
X-126.706Y52.432
X-126.034Y43.097
X-125.673Y62.802
X-124.748Y93.614
X-124.458Y111.023
X-124.24Y95.9
X-124.166Y57.258
X-124.166Y47.606
X-122.97Y108.854
X-121.208Y32.429
X-121.208Y28.873
X-121.208Y21.253
X-120.938Y104.536
X-120.7Y18.205
X-120.102Y90.278
X-119.34Y84.69
X-119.34Y80.372
X-119.34Y47.606
X-118.922Y35.477
X-117.816Y57.258
X-117.816Y52.432
X-116.89Y32.429
X-116.89Y28.873
X-116.636Y21.253
X-116.112Y95.9
X-115.784Y113.138
X-115.604Y93.614
X-115.53Y78.34
X-114.334Y104.536
X-114.08Y108.854
X-113.244Y62.846
X-113.244Y59.798
X-110.806Y90.278
X-110.778Y105.044
X-110.778Y96.662
X-110.704Y80.372
X-109.524Y39.795
X-109.524Y37.001
X-108.926Y57.258
X-108.926Y47.606
X-108.672Y62.846
X-108.672Y52.432
X-107.948Y111.023
X-106.998Y73.917
X-106.935Y38.279
X-106.132Y90.278
X-105.37Y71.228
X-105.116Y57.258
X-105.116Y50.654
X-104.952Y22.015
X-104.862Y63.1
X-104.444Y18.205
X-103.936Y35.731
X-103.682Y41.065
X-102.92Y29.635
X-102.92Y23.285
X-102.852Y61.33
X-102.83Y59.019
X-102.83Y54.464
X-102.322Y77.324
X-101.56Y65.64
X-100.798Y50.527
X-100.29Y113.138
X-100.29Y107.042
X-100.268Y30.341
X-100.268Y30.341
X-99.479Y74.222
X-99.479Y71.225
X-99.479Y61.522
X-99.479Y61.522
X-99.479Y61.522
X-98.602Y28.111
X-98.26Y68.786
X-97.586Y18.205
X-96.824Y24.301
X-95.808Y30.905
X-95.248Y111.023
X-94.653Y65.891
X-93.014Y37.653
X-92.924Y65.894
X-92.76Y20.745
X-92.76Y18.205
X-92.162Y77.832
X-90.892Y45.574
X-90.22Y37.255
X-90.13Y60.306
X-89.712Y32.175
X-89.712Y24.809
X-89.622Y113.138
X-89.622Y106.534
X-89.622Y96.374
X-89.622Y90.278
X-89.622Y81.388
X-89.622Y64.624
X-87.426Y18.205
X-86.32Y77.832
X-85.394Y37.255
X-85.304Y51.162
X-84.886Y27.603
X-83.818Y111.023
X-83.018Y52.432
X-82.764Y62.338
X-82.6Y43.097
X-82.002Y74.53
X-82.002Y45.574
X-81.838Y37.255
X-81.584Y18.205
X-81.494Y113.138
X-80.478Y111.36
X-80.478Y96.374
X-80.478Y90.278
X-80.478Y77.832
X-80.478Y47.352
X-80.314Y41.573
X-80.314Y31.667
X-80.314Y19.475
X-70.739Y112.617
X-70.739Y96.361
X-70.739Y86.201
X-70.485Y58.261
X-70.485Y53.689
X-70.467Y43.792
X-70.467Y34.14
X-70.467Y18.9
X-70.467Y10.01
X-70.467Y3.152
X-69.197Y0.866
X-68.58Y108.672
X-67.691Y82.899
X-67.437Y113.125
X-66.167Y58.261
X-66.167Y53.689
X-65.133Y18.9
X-64.879Y10.01
X-63.863Y34.14
X-63.609Y28.806
X-62.865Y105.759
X-61.12Y31.346
X-60.96Y108.672
X-60.561Y43.792
X-60.307Y37.95
X-59.817Y96.361
X-59.436Y70.707
X-59.055Y57.499
X-59.037Y16.614
X-58.801Y113.125
X-58.58Y20.678
X-58.547Y99.409
X-58.529Y28.806
X-58.529Y6.454
X-57.531Y82.899
X-56.769Y70.961
X-55.989Y26.266
X-55.499Y53.181
X-54.483Y57.499
X-54.229Y99.409
X-54.229Y96.361
X-53.34Y108.672
X-52.705Y86.201
X-52.578Y83.026
X-51.943Y70.961
X-51.671Y15.598
X-50.165Y105.759
X-50.165Y68.929
X-49.893Y31.042
X-49.893Y19.662
X-49.403Y86.201
X-49.149Y95.472
X-48.387Y82.899
X-47.861Y0.866
X-47.498Y64.738
X-47.371Y68.929
X-45.72Y108.672
X-45.339Y99.79
X-45.339Y95.599
X-45.339Y92.297
X-45.085Y89.249
X-45.085Y87.725
X-43.797Y37.95
X-43.561Y113.125
X-43.561Y105.759
X-43.187Y43.691
X-43.18Y63.595
X-42.164Y80.232
X-41.275Y100.425
X-40.259Y83.788
X-39.733Y43.792
X-39.733Y30.838
X-39.733Y19.408
X-36.957Y78.835
X-36.449Y77.184
X-36.449Y53.181
X-35.433Y57.753
X-34.417Y86.963
X-34.399Y37.95
X-33.655Y92.551
X-33.129Y43.792
X-32.893Y62.325
X-32.893Y57.245
X-32.113Y0.866
X-31.623Y113.125
X-30.589Y21.948
X-30.081Y15.598
X-29.337Y102.584
X-28.829Y100.679
X-28.829Y72.485
X-28.575Y58.515
X-27.559Y97.504
X-27.305Y106.013
X-27.051Y91.027
X-26.543Y78.835
X-25.273Y102.076
X-25.273Y102.076
X-24.003Y92.805
X-24.003Y84.423
X-24.003Y76.803
X-23.749Y97.631
X-23.731Y46.332
X-23.731Y38.204
X-23.731Y27.282
X-23.731Y21.948
X-23.477Y6.454
X-22.987Y58.515
X-21.717Y94.329
X-21.717Y94.329
X-21.59Y108.672
X-21.445Y12.804
X-21.209Y86.201
X-20.955Y80.359
X-20.447Y113.125
X-20.193Y97.631
X-19.812Y90.646
X-19.812Y90.646
X-18.669Y53.181
X-17.653Y86.455
X-17.145Y91.281
X-16.891Y94.329
X-15.984Y38.822
X-14.714Y36.282
X-14.097Y95.345
X-13.843Y101.187
X-13.081Y60.293
X-12.827Y87.979
X-12.319Y93.567
X-12.319Y93.567
X-12.174Y10.899
X-12.065Y53.943
X-11.557Y98.901
X-11.557Y60.293
X-11.539Y7.724
X-10.015Y21.948
X-10.015Y13.312
X-9.525Y56.737
X-9.271Y93.567
X-8.763Y60.293
X-6.096Y108.672
X-5.969Y53.181
X-5.697Y0.866
X-4.953Y112.871
X-4.427Y46.332
X-4.427Y34.14
X-4.427Y17.122
X-4.427Y2.39
X-4.191Y107.791
X-4.191Y99.155
X-4.191Y92.551
X-4.191Y78.835
X-4.191Y67.913
X-4.191Y54.197
T3
X-113.572Y85.042
X-113.572Y83.772
X-113.572Y82.502
X-105.284Y25.579
X-102.744Y33.199
X-102.744Y20.499
X-100.204Y25.579
X-97.664Y33.199
X-97.664Y20.499
X-19.207Y109.075
X-19.207Y106.535
X-19.207Y102.725
X-19.207Y100.185
T4
X-145.035Y38.279
X-142.495Y38.279
X-139.955Y38.279
X-137.415Y38.279
X-136.805Y25.117
X-135.42Y22.277
X-134.875Y38.279
X-134.035Y25.117
X-132.65Y22.277
X-132.335Y38.279
X-131.265Y25.117
X-129.88Y22.277
X-129.795Y38.279
X-128.495Y25.117
X-127.11Y22.277
X-125.725Y25.117
X-124.715Y38.279
X-124.708Y86.333
X-124.708Y83.793
X-124.708Y81.253
X-122.175Y38.279
X-122.168Y86.333
X-122.168Y83.793
X-122.168Y81.253
X-121.11Y100.969
X-121.11Y97.869
X-119.635Y38.279
X-117.095Y38.279
X-114.555Y38.279
X-112.015Y38.279
X-102.07Y48.263
X-99.53Y48.263
X-96.99Y48.263
X-94.45Y48.263
X-93.014Y40.557
X-91.91Y48.263
X-90.474Y40.557
X-89.37Y48.263
X-87.934Y40.557
X-86.83Y48.263
X-85.394Y40.557
X-84.29Y48.263
X-82.854Y40.557
X-69.324Y31.346
X-69.324Y28.806
X-69.324Y26.266
X-69.324Y23.726
X-69.215Y61.055
X-69.088Y80.613
X-68.689Y12.804
X-66.675Y61.055
X-66.548Y80.613
X-66.149Y12.804
X-65.659Y73.247
X-64.135Y61.055
X-64.008Y80.613
X-63.609Y12.804
X-63.119Y73.247
X-61.595Y61.055
X-61.468Y80.613
X-61.069Y12.804
X-60.579Y73.247
X-60.071Y101.695
X-60.071Y91.535
X-59.055Y61.055
X-58.928Y80.613
X-58.529Y12.804
X-58.039Y73.247
X-57.531Y101.695
X-57.531Y91.535
X-56.515Y61.055
X-56.388Y80.613
X-55.989Y12.804
X-55.499Y73.247
X-55.354Y42.014
X-55.354Y37.442
X-54.991Y101.695
X-54.991Y91.535
X-53.848Y80.613
X-52.959Y73.247
X-52.814Y42.014
X-52.814Y37.442
X-52.451Y101.695
X-52.451Y91.535
X-52.451Y61.055
X-51.308Y80.613
X-50.419Y73.247
X-50.274Y42.014
X-50.274Y37.442
X-49.911Y101.695
X-49.911Y91.535
X-49.911Y61.055
X-48.768Y80.613
X-47.879Y73.247
X-47.734Y42.014
X-47.734Y37.442
X-47.371Y101.695
X-47.371Y91.535
X-47.371Y61.055
X-46.228Y80.613
X-44.831Y61.055
X-42.291Y73.267
X-42.291Y61.055
X-41.732Y97.805
X-39.751Y73.267
X-39.751Y61.055
X-39.192Y97.805
X-37.211Y73.267
X-37.211Y61.055
X-36.652Y97.805
X-33.764Y33.886
X-33.764Y31.346
X-33.764Y28.806
X-33.764Y26.266
X-33.764Y23.726
X-33.764Y21.186
X-31.531Y104.132
X-31.531Y101.592
X-31.531Y99.052
X-31.531Y96.512
X-31.531Y93.972
X-31.531Y91.432
X-31.531Y88.892
X-31.531Y86.352
X-31.531Y83.812
X-31.531Y81.272
X-31.531Y78.732
X-31.531Y76.192
X-31.531Y73.652
X-31.531Y71.112
X-31.531Y68.572
X-31.531Y66.032
X-31.531Y63.492
X-31.531Y60.952
X-31.531Y58.412
X-29.498Y110.612
X-29.448Y46.442
X-29.411Y43.902
X-29.373Y41.362
X-29.336Y38.822
X-29.298Y36.282
X-29.261Y33.742
X-29.261Y31.202
X-29.261Y28.662
X-26.721Y46.442
X-26.721Y43.902
X-26.721Y41.362
X-26.721Y38.822
X-26.721Y36.282
X-26.721Y33.742
X-26.721Y31.202
X-26.721Y28.662
X-24.998Y110.612
X-17.907Y83.661
X-17.907Y81.121
X-17.907Y78.581
X-17.907Y76.041
X-17.907Y73.501
X-17.907Y70.961
X-17.907Y68.421
X-17.907Y65.881
X-17.889Y20.805
X-17.889Y18.265
X-17.889Y15.725
X-17.889Y13.185
X-17.889Y10.645
X-17.889Y8.105
X-17.889Y5.565
X-17.889Y3.025
X-15.402Y110.839
X-12.862Y110.839
X-12.862Y108.299
X-12.862Y103.219
X-11.592Y104.997
X-11.592Y103.219
X-10.322Y110.839
X-10.322Y108.299
X-10.322Y103.219
X-8.941Y46.442
X-8.941Y43.902
X-8.941Y41.362
X-8.941Y38.822
X-8.941Y36.282
X-8.941Y33.742
X-8.941Y31.202
X-8.941Y28.662
X-7.782Y110.839
X-6.401Y46.442
X-6.401Y43.902
X-6.401Y41.362
X-6.401Y38.822
X-6.401Y36.282
X-6.401Y33.742
X-6.401Y31.202
X-6.363Y28.662
X-6.131Y104.132
X-6.131Y101.592
X-6.131Y99.052
X-6.131Y96.512
X-6.131Y93.972
X-6.131Y91.432
X-6.131Y88.892
X-6.131Y86.352
X-6.131Y83.812
X-6.131Y81.272
X-6.131Y78.732
X-6.131Y76.192
X-6.131Y73.652
X-6.131Y71.112
X-6.131Y68.572
X-6.131Y66.032
X-6.131Y63.492
X-6.131Y60.952
X-6.131Y58.412
T5
X-30.758Y108.122
X-23.748Y108.122
T6
X-144.945Y52.178
X-144.945Y47.098
X-142.405Y49.638
X-139.865Y52.178
X-139.865Y47.098
X-113.412Y24.746
X-113.412Y19.666
X-110.872Y22.206
X-108.332Y24.746
X-108.332Y19.666
T7
X-113.92Y31.294
X-112.99Y50.146
X-108.84Y31.294
X-97.84Y39.033
X-27.305Y67.913
X-27.305Y62.833
X-22.987Y67.913
X-22.987Y62.833
X-8.237Y3.914
T8
X-143.429Y105.801
X-143.429Y61.801
X-103.429Y98.801
X-103.429Y68.801
X-83.429Y105.801
X-83.429Y83.801
X-67.0Y105.538
X-67.0Y67.405
X-67.0Y42.538
X-67.0Y4.405
X-38.735Y105.538
X-38.735Y67.405
X-38.735Y42.538
X-38.735Y4.405
T9
X-143.765Y24.817
X-118.765Y24.817
T0
M30
